<?xml version="1.0" standalone="no"?>
<!DOCTYPE svg PUBLIC "-//W3C//DTD SVG 1.1//EN" "http://www.w3.org/Graphics/SVG/1.1/DTD/svg11.dtd" >
<svg xmlns="http://www.w3.org/2000/svg">
<metadata></metadata>
<defs>
<font id="amiribold" horiz-adv-x="1090" >
<font-face units-per-em="2048" ascent="1638" descent="-410" />
<missing-glyph horiz-adv-x="600" />
<glyph unicode="&#xfb01;" horiz-adv-x="1256" d="M46 758q26 36 64 68q68 0 88 6q1 142 36.5 252t99 178t146.5 102t182 34q67 0 131 -12t123 -37t97.5 -69.5t44.5 -103.5q5 -53 -24 -96t-80 -42q-16 1 -31 4t-26 7.5t-21.5 12.5t-18 14t-15 17.5t-11 17.5t-9 19t-7.5 17.5t-6 17.5t-5 15q-22 63 -56 90.5t-116 27.5 q-49 0 -87.5 -53.5t-58.5 -130.5t-29 -154.5t-5 -133.5h234q117 0 224.5 18.5t165.5 47.5q10 -3 22 -16t12 -18q-4 -12 -11 -52.5t-9 -61.5q-2 -44 -2 -126v-328q0 -148 16 -188q11 -28 114 -36q7 -11 6.5 -38t-6.5 -36q-136 14 -260 14q-138 0 -274 -14q-6 9 -6.5 36 t6.5 38q118 9 128 36q16 40 16 188v230q0 130 -18 164q-14 27 -63.5 37.5t-94.5 10.5h-194v-442q0 -148 16 -188q10 -27 128 -36q7 -11 6.5 -38t-6.5 -36q-136 14 -274 14t-274 -14q-6 9 -6.5 36t6.5 38q118 9 128 36q16 40 16 188v442h-142q-10 4 -10 26z" />
<glyph unicode="&#xfb02;" horiz-adv-x="1262" d="M46 788q26 36 64 68h88v30q0 205 116.5 348t285.5 148q53 1 119 -25.5t107 -30.5q52 1 96.5 7.5t72 16t46.5 19t28 15.5l9 6q8 -1 18 -13.5t12 -20.5q-22 -124 -22 -204q-3 -59 -7 -156t-4.5 -327.5t11.5 -378.5q0 -148 16 -188q10 -27 128 -36q7 -11 6.5 -38t-6.5 -36 q-136 14 -274 14t-274 -14q-6 9 -6.5 36t6.5 38q118 9 128 36q16 40 16 188v606q0 188 -24 256q-24 65 -74.5 99t-111.5 29q-76 -6 -109 -55t-47 -141q-12 -83 -8 -228h234q12 0 12 -26q0 -13 -15 -35t-31 -33h-194v-472q0 -148 16 -188q10 -27 128 -36q7 -11 6.5 -38 t-6.5 -36q-136 14 -274 14t-274 -14q-6 9 -6.5 36t6.5 38q118 9 128 36q16 40 16 188v472h-142q-10 4 -10 26z" />
<glyph unicode="&#xfb03;" horiz-adv-x="1888" d="M46 762q26 36 64 68h88q1 112 27.5 201t68 144t96.5 92t106.5 52.5t105.5 18.5q110 6 201 -22.5t133 -91.5q124 174 358 174q67 0 131 -12t123 -37t97.5 -69.5t44.5 -103.5q5 -53 -24 -96t-80 -42q-16 1 -31 4t-26 7.5t-21.5 12.5t-18 14t-15 17.5t-11 17.5t-9 19 t-7.5 17.5t-6 17.5t-5 15q-22 63 -56 90.5t-116 27.5q-49 0 -87.5 -53.5t-58.5 -130.5t-29 -154.5t-5 -133.5h234q117 0 224.5 18.5t165.5 47.5q10 -3 22 -16t12 -18q-4 -12 -11 -52.5t-9 -61.5q-2 -44 -2 -126v-328q0 -148 16 -188q11 -28 114 -36q7 -11 6.5 -38t-6.5 -36 q-136 14 -260 14q-138 0 -274 -14q-6 9 -6.5 36t6.5 38q118 9 128 36q16 40 16 188v230q0 130 -18 164q-14 27 -63.5 37.5t-94.5 10.5h-194v-442q0 -148 16 -188q10 -27 128 -36q7 -11 6.5 -38t-6.5 -36q-136 14 -274 14t-274 -14q-6 9 -6.5 36t6.5 38q118 9 128 36 q16 40 16 188q0 266 -2 446h-370v-446q0 -148 16 -188q10 -27 128 -36q7 -11 6.5 -38t-6.5 -36q-136 14 -274 14t-274 -14q-6 9 -6.5 36t6.5 38q118 9 128 36q16 40 16 188v446h-142q-10 4 -10 26zM452 830h376q0 107 26 208q-26 1 -50 26.5t-48.5 66t-31.5 49.5 q-63 73 -132 58q-50 -12 -85 -85.5t-47.5 -160.5t-7.5 -162z" />
<glyph unicode="&#xfb04;" horiz-adv-x="1892" d="M46 788q26 36 64 68h88q1 112 28 198.5t67.5 137t97 84t106.5 46.5t105 16q112 6 202.5 -22t131.5 -92q54 72 130.5 113.5t163.5 44.5q53 1 119 -25.5t107 -30.5q52 1 96.5 7.5t72 16t46.5 19t28 15.5l9 6q8 -1 18 -13.5t12 -20.5q-22 -124 -22 -204q-3 -59 -7 -156 t-4.5 -327.5t11.5 -378.5q0 -148 16 -188q10 -27 128 -36q7 -11 6.5 -38t-6.5 -36q-136 14 -274 14t-274 -14q-6 9 -6.5 36t6.5 38q118 9 128 36q16 40 16 188v606q0 188 -24 256q-24 65 -74.5 99t-111.5 29q-76 -6 -109 -55t-47 -141q-12 -83 -8 -228h234q12 0 12 -26 q0 -13 -15 -35t-31 -33h-194v-472q0 -148 16 -188q10 -27 128 -36q7 -11 6.5 -38t-6.5 -36q-136 14 -274 14t-274 -14q-6 9 -6.5 36t6.5 38q118 9 128 36q16 40 16 188v472h-370v-472q0 -148 16 -188q10 -27 128 -36q7 -11 6.5 -38t-6.5 -36q-136 14 -274 14t-274 -14 q-6 9 -6.5 36t6.5 38q118 9 128 36q16 40 16 188v472h-142q-10 4 -10 26zM452 856h376v30q0 72 20 152q-25 4 -48 30t-45.5 64t-30.5 48q-63 73 -132 58q-50 -12 -85 -79t-47.5 -148t-7.5 -155z" />
<glyph horiz-adv-x="0" />
<glyph horiz-adv-x="682" />
<glyph unicode=" "  horiz-adv-x="600" />
<glyph unicode="&#x09;" horiz-adv-x="600" />
<glyph unicode="&#xa0;" horiz-adv-x="600" />
<glyph unicode="!" horiz-adv-x="540" d="M118 132q0 60 44 103t106 43t106 -45.5t44 -106.5q0 -60 -43.5 -104t-104.5 -44q-63 0 -107.5 45t-44.5 109zM144 1240q0 62 38 98t94 36q50 0 87 -37t37 -99q0 -40 -32 -348q-28 -237 -52 -448q-6 -51 -42 -51q-41 0 -47 53q-31 228 -51 424q-32 302 -32 372z" />
<glyph unicode="&#x22;" horiz-adv-x="662" d="M72 1234q0 56 35.5 111t88.5 55q38 0 62 -32q0 -51 -11.5 -208.5t-22.5 -251.5q-16 -28 -48 -46q-14 0 -20 16q-84 286 -84 356zM392 1234q0 56 35.5 111t88.5 55q38 0 62 -32q0 -51 -11.5 -208.5t-22.5 -251.5q-16 -28 -48 -46q-14 0 -20 16q-84 286 -84 356z" />
<glyph unicode="#" horiz-adv-x="950" d="M94.5 329q2.5 28 16 62.5t25.5 38.5h118l40 248h-136q-10 5 -8 33t15 62.5t25 38.5h126l36 224q9 26 58 26q17 0 26 -6l-40 -244h242l36 224q9 26 58 26q17 0 26 -6l-39 -244h123q12 -5 11.5 -32.5t-13 -61.5t-24.5 -40h-119l-40 -248h131q12 -5 11 -32.5t-14 -61.5 t-25 -40h-124l-36 -224q-2 -7 -21.5 -16.5t-40.5 -9.5q-9 0 -14.5 2t-6.5 4l-1 2l39 242h-243l-36 -224q-2 -7 -21 -16.5t-39 -9.5q-9 0 -14.5 2t-6.5 4l-1 2l39 242h-131q-10 5 -7.5 33zM334 430h242l40 248h-241z" />
<glyph unicode="$" horiz-adv-x="1036" d="M108 356q5 8 26 17t30 9q21 0 24 -16q7 -41 32.5 -92t63.5 -100q37 -45 90 -77l71 438q-35 24 -43 29q-116 78 -148 104q-111 93 -128 213q-4 26 -4 55q0 95 61 176t154.5 125.5t192.5 44.5q18 0 37 -1l9 55q78 0 78 -16l-8 -48q23 -4 42 -8q30 -6 83 -18t81 -18 q8 -77 20 -318q-8 -10 -20 -10q-55 0 -58 12q-6 43 -26 91t-51 94t-78 75q-4 3 -8 5l-65 -395q40 -29 88 -60q17 -11 48.5 -29.5t50 -30t46.5 -32t44.5 -38t36.5 -45.5t30.5 -57t18 -69.5t7.5 -86.5q0 -101 -61 -183.5t-156 -126.5t-201 -44q-38 0 -82 3l-10 -63 q-22 0 -50 4.5t-28 13.5l9 54q-92 13 -203 38q-13 56 -27.5 164.5t-18.5 161.5zM376 1036q0 -90 119 -196l59 361q-7 1 -14 1q-66 0 -115 -39.5t-49 -126.5zM450 65q24 -5 48 -5q31 0 60 8.5t59 27.5t48.5 58t18.5 94q0 36 -15.5 72t-34.5 61t-56.5 57t-57.5 47q-1 0 -2 1z " />
<glyph unicode="%" horiz-adv-x="1372" d="M78 974q0 127 90.5 217.5t221.5 90.5q137 0 225.5 -85t88.5 -213q0 -127 -90.5 -218.5t-221.5 -91.5q-138 0 -226 86t-88 214zM102 -16l1032 1280q30 26 80 26q13 0 22.5 -6t9.5 -14l-1032 -1280q-7 -10 -32.5 -20t-49.5 -10q-13 0 -20.5 6t-8.5 12zM268 1000 q0 -63 13.5 -120.5t46 -100.5t78.5 -43q35 0 58 19.5t33 55.5t13.5 68t3.5 75q0 63 -14 122t-47 102.5t-79 43.5q-35 0 -57.5 -20t-32.5 -56.5t-13 -69t-3 -76.5zM672 300q0 127 90.5 217.5t221.5 90.5q137 0 225.5 -85t88.5 -213q0 -127 -90.5 -218.5t-221.5 -91.5 q-138 0 -226 86t-88 214zM862 326q0 -63 13.5 -120.5t46 -100.5t78.5 -43q35 0 58 19.5t33 55.5t13.5 68t3.5 75q0 63 -14 122t-47 102.5t-79 43.5q-35 0 -57.5 -20t-32.5 -56.5t-13 -69t-3 -76.5z" />
<glyph unicode="&#x26;" horiz-adv-x="1392" d="M112 312q0 63 18 119t42 92.5t64 73t68.5 55.5t69.5 45q12 7 18 11q-4 6 -27 37.5t-32.5 48.5t-25.5 48.5t-22.5 65.5t-6.5 72q0 136 86 223t226 87q154 0 254 -64t100 -168q0 -64 -26.5 -119t-71 -93t-90 -63t-96.5 -43q27 -36 137.5 -186t142.5 -192q6 7 21.5 25t24 28 t22.5 26.5t21.5 27t16 22.5t12.5 20t4 13q0 20 -20 28t-48.5 8h-29.5q-6 9 -5.5 35t7.5 29l136 -2q74 -2 256 6q6 -3 5.5 -30t-9.5 -36q-1 0 -22 -1.5t-40 -3.5t-41.5 -8.5t-34.5 -16.5t-54.5 -57.5t-93.5 -105t-72 -79.5l12 -14q12 -14 22.5 -26.5t28 -30t31 -29.5t29 -21 t25.5 -9q13 0 27.5 6.5t25.5 14.5t24 22t20 22.5t18 23t13 17.5q13 0 27.5 -10.5t22.5 -25.5q-4 -11 -31 -47t-66.5 -79.5t-91.5 -76.5t-95 -33q-51 0 -94.5 20.5t-66.5 42t-59 63.5q-134 -128 -344 -128q-63 0 -126.5 22t-116.5 61.5t-86 101.5t-33 135zM372 440 q0 -51 16 -102t47 -95t83.5 -71.5t117.5 -27.5q74 0 128 46q-149 203 -316 436q-76 -66 -76 -186zM510 1052q0 -105 98 -238q130 68 130 212q0 27 -5.5 57.5t-17.5 62t-35.5 52t-55.5 20.5q-52 0 -83 -46.5t-31 -119.5z" />
<glyph unicode="'" horiz-adv-x="362" d="M66 1254q0 68 42 118t104 50q55 0 76 -44q-25 -319 -46 -438q-17 -25 -52 -38q-15 0 -24 12q-5 14 -22 57.5t-24 62.5t-20 56.5t-18.5 60.5t-10.5 51.5t-5 51.5z" />
<glyph unicode="(" horiz-adv-x="940" d="M272 342q0 501 279 859q143 183 311 273l24 -55q-82 -72 -169 -244q-187 -372 -187 -833q0 -463 187 -835q87 -172 169 -244l-24 -55q-168 90 -311 273q-279 358 -279 861z" />
<glyph unicode=")" horiz-adv-x="940" d="M54 -737q82 72 169 244q187 372 187 835q0 461 -187 833q-87 172 -169 244l24 55q168 -90 311 -273q279 -358 279 -859q0 -503 -279 -861q-143 -183 -311 -273z" />
<glyph unicode="*" horiz-adv-x="882" d="M69 916q-5 36 16.5 68t65.5 42q40 9 77.5 -0.5t73.5 -21.5t67 -8q24 2 26 12q2 6 -8 22q-18 31 -70 71.5t-78 84.5q-22 42 -11.5 81t39.5 55q29 17 68 5.5t62 -49.5q21 -36 23.5 -75t1.5 -76t13 -65q10 -20 20 -22q10 0 18 8q25 27 47 89t55 99q30 34 73.5 36.5 t64.5 -20.5q26 -26 27 -63t-29 -75q-27 -31 -63.5 -45t-72 -24.5t-58.5 -32.5q-14 -16 -14 -26t16 -16q33 -15 99.5 -16.5t112.5 -21.5q41 -17 57 -57t1 -71q-16 -32 -52 -44t-80 4q-30 13 -52.5 35t-34 42t-30.5 41.5t-41 33.5q-2 1 -5.5 2.5t-12 4.5t-10.5 -1 q-6 -3 -8 -16q-4 -36 14.5 -99t13.5 -113q-4 -44 -36.5 -70.5t-65.5 -23.5q-36 6 -60 37t-20 75q5 52 47.5 108t48.5 90q2 20 -4 28q-2 5 -18 2q-35 -8 -90 -44.5t-104 -47.5q-44 -10 -78.5 12.5t-41.5 55.5z" />
<glyph unicode="+" horiz-adv-x="1084" d="M62 466q0 54 20 84h398l2 398q14 11 42 16.5t42 5.5q32 0 32 -18l-2 -402h408q8 0 13 -9t5 -19q0 -53 -28 -88h-396v-396q-33 -22 -94 -22q-9 0 -15.5 5t-6.5 11v402h-408q-12 0 -12 32z" />
<glyph unicode="," horiz-adv-x="448" d="M38 -266q44 28 93 88t49 124q0 18 -10 32t-24 26.5t-28 27t-24 41.5t-10 63q0 15 7 36t23 46.5t48.5 42.5t75.5 17q44 0 88 -32q28 -52 28 -130q0 -136 -81 -255t-193 -175q-15 4 -28.5 21t-13.5 27z" />
<glyph unicode="-" horiz-adv-x="750" d="M112 420q0 50 30 114q416 22 482 24q14 0 14 -18q0 -56 -30 -120q-41 -3 -482 -22q-14 0 -14 22z" />
<glyph unicode="." horiz-adv-x="468" d="M84 132q0 60 44 103t106 43t106 -45.5t44 -106.5q0 -60 -43.5 -104t-104.5 -44q-63 0 -107.5 45t-44.5 109z" />
<glyph unicode="/" horiz-adv-x="706" d="M29 -401l517 1814q8 16 33 30t65 14q34 0 38 -16l-517 -1814q-4 -15 -29 -28.5t-71 -13.5q-13 0 -22 3.5t-11 7.5z" />
<glyph unicode="0" d="M104 622q0 170 61 315.5t164 229t221 83.5q90 0 169.5 -42.5t138.5 -121t93.5 -198.5t34.5 -266q0 -171 -58.5 -315.5t-159 -228.5t-218.5 -84q-91 0 -171.5 42.5t-141.5 121t-97 198.5t-36 266zM364 604q0 -231 55 -378.5t133 -147.5q47 0 81.5 45.5t54.5 127t29 182 t9 223.5q0 237 -46 373.5t-128 136.5q-63 0 -106 -76.5t-62.5 -200t-19.5 -285.5z" />
<glyph unicode="1" d="M234 1062q0 23 4 24q97 41 214 93t179.5 79.5t64.5 27.5h4q8 0 15 -13.5t9 -24.5q-18 -58 -18 -188v-770q0 -148 16 -188q10 -27 128 -36q7 -11 6.5 -38t-6.5 -36q-136 14 -274 14t-274 -14q-6 9 -6.5 36t6.5 38q118 9 128 36q16 40 16 188v674q0 65 -8.5 85.5 t-33.5 20.5q-16 0 -65.5 -15t-78.5 -31q-11 6 -18.5 17t-7.5 21z" />
<glyph unicode="2" d="M112 36q18 20 104 113t115.5 127.5t88 111t108.5 154.5q116 184 116 356q0 96 -65 163t-149 67q-39 0 -75 -12.5t-62.5 -33.5t-44.5 -39t-32.5 -37t-15.5 -20q-10 0 -26 14t-16 34q15 33 46.5 72t81 81t121.5 69.5t151 27.5q150 0 249 -89.5t99 -246.5q0 -170 -152 -348 q-210 -245 -376 -396h344q18 0 34 3.5t28.5 8t25 14t21 16t18.5 21t15.5 21.5t14 24t11 23.5t10.5 24.5t10 22q6 14 28 14q25 0 40 -12q-8 -32 -27 -95t-36.5 -117.5t-36 -109.5t-20.5 -62h-728q-14 14 -18 36z" />
<glyph unicode="3" d="M132 148q0 40 28 73t76 33q9 0 17.5 -1.5t17 -6t15 -8t15.5 -11.5t14 -12t14 -14.5t12 -13t12.5 -14.5t10.5 -13q75 -88 140 -88q92 0 140 74t48 210q0 118 -59.5 203t-156.5 85q-45 0 -112 -18q-16 20 -16 48v18q38 7 75 17.5t78 29.5t72 42.5t51 58.5t20 76 q0 95 -50.5 157.5t-137.5 62.5q-69 0 -132.5 -38.5t-87.5 -65.5q-10 3 -17 22t-7 34q63 83 158 139.5t206 56.5q32 0 68.5 -7t79 -25.5t76 -46.5t56 -74t22.5 -103q0 -59 -26 -111.5t-65 -87t-70.5 -55t-56.5 -30.5q24 -1 56 -9.5t76 -30.5t80 -54t61 -87t25 -123 q0 -102 -47.5 -189t-124 -143.5t-171 -88t-191.5 -31.5q-89 0 -160.5 22.5t-107.5 51.5q-10 12 -17 40.5t-7 45.5z" />
<glyph unicode="4" d="M96 398q130 161 362 453t326 409q24 28 40 28q11 0 31.5 -20t20.5 -36v-748h92q11 0 19.5 -26t8.5 -68q0 -13 -5 -23.5t-10 -14.5l-5 -4h-100v-340q-52 -18 -136 -18q-116 0 -116 26v332h-508q-20 10 -20 50zM268 484h356v448z" />
<glyph unicode="5" d="M136 148q0 40 28 73t76 33q9 0 17.5 -1.5t17 -6t15 -8t15.5 -11.5t14 -12t14 -14.5t12 -13t12.5 -14.5t10.5 -13q75 -88 142 -88q92 0 140 74t48 210q0 86 -46 157t-108.5 107t-121.5 36q-114 0 -184 -28q-8 0 -14 14.5t-6 25.5q1 3 25.5 131t52 277t34.5 194h356 q81 0 184 22q1 0 5 -1.5t6 -2.5t5.5 -3t5 -4.5t3 -7t1.5 -9.5q0 -22 -29 -92t-45 -100q-124 -12 -300 -16q-64 -2 -134 -2l-46 -234q108 26 212 26q97 0 189.5 -52t151.5 -142t59 -192t-46 -192t-120 -150.5t-168 -95t-190 -34.5q-89 0 -162 23t-108 51q-10 12 -17 40.5 t-7 45.5z" />
<glyph unicode="6" d="M130 484q0 154 66 293.5t166 244.5q81 85 179.5 145.5t177 86.5t155.5 36q21 -16 14 -52q-353 -146 -458 -478q87 50 164 50q76 0 139.5 -21.5t115.5 -67t81.5 -124t29.5 -183.5q0 -114 -61 -213t-158.5 -156t-202.5 -57q-109 0 -204 69.5t-149.5 184t-54.5 242.5z M392 442q0 -68 8.5 -129.5t27 -117.5t52.5 -89.5t80 -33.5q60 0 99 80t39 212q0 91 -17.5 161.5t-62 118.5t-112.5 48q-22 0 -51.5 -9.5t-48.5 -28.5q-14 -98 -14 -212z" />
<glyph unicode="7" d="M116 908q39 147 88 364l576 2q31 0 73 2t73 4t34 2q14 0 14 -30q0 -5 -2.5 -12.5t-8 -19.5t-10.5 -23t-15.5 -31.5t-17.5 -35.5l-544 -1146q-8 -6 -34 -6q-22 0 -55 12t-33 36q64 91 241.5 426t312.5 620h-462q-36 0 -62.5 -14t-45 -43.5t-28 -50.5t-22.5 -60 q-3 -10 -24 -12q-29 -3 -48 16z" />
<glyph unicode="8" d="M126 306q0 115 76.5 195t179.5 111q6 3 -4 10q-7 6 -29 24.5t-35.5 29.5t-36 33t-37 40t-32 45t-28 52.5t-17.5 58.5t-7 67q0 85 57 153.5t144.5 104.5t182.5 36t178.5 -31.5t139.5 -98.5t56 -158q0 -89 -64 -159.5t-158 -110.5q-3 -2 -3 -5t3 -5q28 -16 57.5 -37.5 t70 -58t71 -75.5t52 -90.5t21.5 -102.5q0 -103 -63 -183.5t-159.5 -121.5t-205.5 -41q-80 0 -150 16.5t-130 52t-95 99.5t-35 150zM388 312q0 -61 15.5 -113t54 -89.5t94.5 -37.5q71 0 110.5 46.5t39.5 117.5q0 44 -18.5 88.5t-41 75t-60 66t-55 49t-47.5 35.5 q-12 10 -18 10q-9 0 -10 -2q-64 -79 -64 -246zM414 1024q0 -48 19 -93t49 -76t55.5 -51t48.5 -32q15 -10 24 -10q6 0 12 6q42 63 42 204q0 49 -12.5 95.5t-43 81.5t-72.5 35q-54 0 -88 -46t-34 -114z" />
<glyph unicode="9" d="M130 864q0 114 61 213t158.5 156t202.5 57q109 0 204 -69.5t149.5 -184t54.5 -242.5q0 -154 -66 -293.5t-166 -244.5q-81 -85 -179.5 -145.5t-177 -86.5t-155.5 -36q-21 16 -14 52q353 146 458 478q-87 -50 -164 -50q-76 0 -139.5 21.5t-115.5 67t-81.5 124t-29.5 183.5z M392 914q0 -91 17.5 -161.5t62 -118.5t112.5 -48q22 0 51.5 9.5t48.5 28.5q14 68 14 212q0 68 -8.5 129.5t-27 117.5t-52.5 89.5t-80 33.5q-60 0 -99 -80t-39 -212z" />
<glyph unicode=":" horiz-adv-x="524" d="M112 132q0 60 44 103t106 43t106 -45.5t44 -106.5q0 -60 -43.5 -104t-104.5 -44q-63 0 -107.5 45t-44.5 109zM112 716q0 60 44 103t106 43t106 -45.5t44 -106.5q0 -60 -43.5 -104t-104.5 -44q-63 0 -107.5 45t-44.5 109z" />
<glyph unicode=";" horiz-adv-x="508" d="M78 -266q44 28 93 88t49 124q0 18 -10 32t-24 26.5t-28 27t-24 41.5t-10 63q0 15 7 36t23 46.5t48.5 42.5t75.5 17q44 0 88 -32q28 -52 28 -130q0 -136 -81 -255t-193 -175q-15 4 -28.5 21t-13.5 27zM98 718q0 60 45 103t107 43q60 0 101 -43t41 -103q0 -62 -41 -109 t-101 -47q-62 0 -107 47.5t-45 108.5z" />
<glyph unicode="&#x3c;" horiz-adv-x="990" d="M60 434q0 30 36 48l746 374q8 4 10 4q12 0 34 -114q1 -5 -0.5 -9.5t-3.5 -6.5l-2 -2l-636 -310l638 -316q6 -2 6 -12q0 -15 -12 -67.5t-20 -52.5q-2 0 -10 4l-750 380q-36 19 -36 80z" />
<glyph unicode="=" horiz-adv-x="1118" d="M132.5 296.5q1.5 24.5 14.5 54.5t26 35h806q12 -4 11.5 -27.5t-12.5 -53.5t-25 -37h-812q-10 4 -8.5 28.5zM132.5 584.5q1.5 24.5 14.5 54.5t26 35h806q12 -4 11.5 -27.5t-12.5 -53.5t-25 -37h-812q-10 4 -8.5 28.5z" />
<glyph unicode="&#x3e;" horiz-adv-x="990" d="M102 90q0 4 2 7q0 3 2 4l2 1l638 316l-636 310l-2 2t-3 6t-1 10q22 114 34 114q2 0 10 -4l746 -374q36 -18 36 -48q0 -61 -36 -80l-750 -380q-8 -4 -10 -4q-8 0 -20 52.5t-12 67.5z" />
<glyph unicode="?" horiz-adv-x="798" d="M108 1168q0 25 9.5 54t20.5 38q60 34 180 34q32 0 78 -9.5t105.5 -35t109.5 -63t84.5 -101.5t34.5 -143q0 -32 -7 -61.5t-16.5 -51.5t-29 -45.5t-33 -37.5t-41 -34t-40.5 -28t-44.5 -27t-40.5 -25q-11 -7 -42 -25.5t-48.5 -29.5t-39.5 -29.5t-34 -35.5q-4 -6 -6.5 -14 t-3 -18.5t-1 -18.5t0 -19t0.5 -14q-3 -10 -13 -23t-17 -13q-22 0 -46 24q-14 31 -27 88.5t-13 111.5q0 41 13.5 76.5t40.5 64t49.5 46.5t56.5 41q212 140 212 220q0 36 -29 66t-79 30q-24 0 -53 -19.5t-52.5 -42.5t-55 -42.5t-59.5 -19.5q-55 0 -89.5 40t-34.5 92zM134 132 q0 62 43 104t101 42q63 0 106.5 -42.5t43.5 -103.5q0 -62 -41.5 -108t-100.5 -46q-58 0 -105 44.5t-47 109.5z" />
<glyph unicode="@" horiz-adv-x="1534" d="M92 330q0 117 38 236t110.5 224.5t169 187.5t222 130t260.5 48q143 0 254 -45.5t179.5 -125.5t103.5 -183t35 -222q0 -150 -61 -288t-164 -222t-217 -84q-81 0 -138.5 43t-57.5 129q0 37 8 58q-38 -73 -120.5 -149.5t-163.5 -76.5q-42 0 -74 10.5t-60.5 36t-44 77 t-15.5 126.5q0 142 93.5 294t238 252t282.5 100q54 0 122 -8t96 -18l-112 -606q-6 -24 -6 -50q0 -2 -0.5 -14t0 -17.5t1.5 -17t4 -18t8 -13.5t13.5 -10.5t19.5 -3.5q38 0 83 37t84.5 96.5t66 146.5t26.5 176q0 105 -27.5 194.5t-83.5 161.5t-151.5 113t-221.5 41 q-99 0 -193.5 -30.5t-170.5 -83t-140.5 -124t-108 -153t-67.5 -170.5t-24 -175q0 -166 77 -296t193 -198q70 -41 154 -54q0 -12 -28 -26t-52 -14q-43 0 -90 18q-146 54 -248 206t-102 354zM602 296q0 -53 22 -80.5t58 -27.5q64 0 123.5 98.5t92.5 261.5l40 204 q-14 16 -23.5 21t-28.5 5q-80 0 -146.5 -73t-102 -183t-35.5 -226z" />
<glyph unicode="A" horiz-adv-x="1350" d="M-26 22v12q0 17 4 30q22 0 74 21t66 43q34 56 70 140l426 980q10 22 34.5 49t39.5 27q13 0 26 -4.5t16 -9.5l410 -1014q14 -33 31 -78.5t25 -65.5q12 -28 36 -47.5t51 -26.5t43 -9.5t28 -2.5q6 -12 8 -40q0 -6 1 -11q0 -19 -5 -23q-18 1 -117 8.5t-151 7.5q-41 0 -97 -3 t-121 -7.5t-84 -5.5q-8 8 -8 41t8 33q29 0 63.5 9.5t54.5 26.5q18 15 18 34q0 8 -30 84t-60 148l-30 72q-8 8 -14 8q-38 2 -192 2q-138 0 -208 -2q-9 0 -14 -10q-50 -112 -72 -168q-44 -110 -44 -136q0 -18 21.5 -32.5t50 -21.5t51 -10.5t31.5 -3.5q8 -12 7.5 -39.5 t-5.5 -34.5q-140 16 -216 16q-78 0 -218 -16q-6 6 -8 30zM420 560q0 -8 4 -8q60 -6 166 -6q98 0 160 4q2 0 4 2q2 4 2 6v2l-166 392z" />
<glyph unicode="B" horiz-adv-x="1238" d="M70 34q0 24 7 34q118 9 128 34q16 40 16 188v736q0 148 -16 188q-9 23 -128 32q-7 10 -7 34v4q0 27 7 36q90 -6 286 -6q38 0 141 3t165 3q74 0 142.5 -17.5t128.5 -53t96.5 -99t36.5 -146.5q0 -56 -25.5 -106t-63.5 -83.5t-70 -53.5t-57 -29q-16 -7 -10 -12 q32 -4 72 -19.5t84.5 -44.5t81 -67t60.5 -92t24 -113q0 -96 -57 -181.5t-153 -142.5q-55 -33 -133 -48q-76 -16 -130 -18q-32 -1 -81 0h-72h-466q-7 10 -7 40zM501 218q0 -92 16 -116q17 -24 126 -24q37 0 72.5 14.5t67.5 44.5t52 86t20 129q0 60 -13 112.5t-40.5 99 t-78 73.5t-118.5 27h-104v-446zM501 742h104q77 0 124.5 61t47.5 171q0 266 -166 266q-89 0 -100 -24q-10 -24 -10 -122v-352z" />
<glyph unicode="C" horiz-adv-x="1348" d="M80 644q0 142 55 270t148 220t221 146t268 54q229 0 416 -38q0 -1 34 -144.5t34 -157.5q0 -9 -17 -19.5t-35 -10.5q-20 0 -28 8q-7 29 -20 59t-43.5 71t-70.5 71.5t-106 52.5t-146 22q-102 0 -179.5 -45t-122 -123t-66.5 -172.5t-22 -203.5q0 -121 25.5 -230.5 t75.5 -200.5t135 -145t194 -54q155 0 248 86q38 34 72.5 94.5t49 98.5t18.5 55q43 0 70 -24q0 -28 -31.5 -162t-50.5 -142q-87 -32 -133.5 -47t-132.5 -31t-172 -16q-186 0 -343.5 84.5t-251 236.5t-93.5 337z" />
<glyph unicode="D" horiz-adv-x="1522" d="M70 34q0 24 7 34q118 9 128 34q16 40 16 188v736q0 148 -16 188q-9 23 -128 32q-7 10 -7 34v4q0 27 7 36q90 -6 286 -6q48 0 157.5 2.5t148.5 3.5q231 0 403.5 -76t268.5 -223t96 -349q0 -137 -40 -250t-111 -191.5t-169.5 -132.5t-214 -79t-247.5 -25h-578q-7 10 -7 40z M501 282q0 -118 16 -158q9 -20 47 -33t79 -13q244 0 360 139.5t116 432.5q0 285 -139 437.5t-369 152.5q-89 0 -100 -24q-10 -24 -10 -122v-812z" />
<glyph unicode="E" horiz-adv-x="1204" d="M70 34q0 24 7 34q118 9 128 34q16 40 16 188v736q0 148 -16 188q-9 23 -128 32q-7 10 -7 34v4q0 27 7 36q90 -6 286 -6q48 0 330.5 6t319.5 8q6 -45 16 -95t23.5 -112.5t18.5 -88.5q-10 -10 -46 -10q-26 0 -32 16q-18 47 -35 79t-42.5 62.5t-60 45.5t-78.5 15h-166 q-89 0 -100 -24q-10 -24 -10 -122v-358q0 -9 26.5 -15.5t59.5 -6.5h106q88 0 120 26t56 114q3 16 24 16q28 0 38 -10v-384q-8 -8 -36 -8q-25 0 -28 16q-26 102 -70 122q-34 14 -152 14q-144 0 -144 -28v-310q0 -118 16 -158q8 -19 47 -29.5t83 -10.5h132q120 0 186 66 q58 58 108 190q3 12 28 12q16 0 36 -4t24 -8q-4 -12 -23.5 -66t-28 -79t-22.5 -68t-22 -74.5t-12 -56.5q-898 0 -976 -2q-7 10 -7 40z" />
<glyph unicode="F" horiz-adv-x="1098" d="M70 32q0 24 7 34q118 9 128 36q16 40 16 188v736q0 148 -16 188q-9 23 -128 32q-7 10 -7 34v4q0 27 7 36q90 -6 286 -6q48 0 330.5 6t319.5 8q6 -45 16 -95t23.5 -112.5t18.5 -88.5q-10 -10 -46 -10q-26 0 -32 16q-18 47 -35 79t-42.5 62.5t-60 45.5t-78.5 15h-166 q-89 0 -100 -24q-10 -24 -10 -122v-366q0 -9 26.5 -15.5t59.5 -6.5h106q88 0 120 26t56 114q3 16 24 16q28 0 38 -10v-384q-8 -8 -36 -8q-25 0 -28 16q-26 102 -70 122q-34 14 -152 14q-144 0 -144 -28v-294q0 -148 16 -188q10 -26 146 -36q7 -11 6.5 -38t-6.5 -36 q-137 14 -304 14q-145 0 -282 -14q-7 10 -7 40z" />
<glyph unicode="G" horiz-adv-x="1444" d="M80 644q0 184 93 343t253 253t346 94q229 0 416 -38q0 -1 34 -144.5t34 -157.5q0 -9 -17 -19.5t-35 -10.5q-20 0 -28 8q-8 30 -20 59.5t-42 71t-69 71.5t-105 52t-146 22q-86 0 -154.5 -31t-112.5 -83t-73 -124.5t-41.5 -150t-12.5 -165.5q0 -119 27 -229t78.5 -198.5 t134 -141.5t184.5 -53q84 0 156 32q18 9 18 30v232q0 65 -10 102q-6 23 -36 36t-52.5 15.5t-43.5 2.5q-8 0 -8.5 33t6.5 41q34 -1 96.5 -4.5t113.5 -5.5t96 -2q37 0 78.5 2t91.5 5.5t76 4.5q4 -12 4 -30q1 -4 1 -7q0 -14 -2 -24q-2 -13 -5 -13q-15 0 -53 -8.5t-53 -17.5 q-9 -6 -16.5 -32t-7.5 -54v-214q0 -10 6 -32t6 -26q0 -25 -70 -52q-84 -32 -135 -49t-139 -34t-174 -17q-187 0 -344.5 85t-250.5 236.5t-93 336.5z" />
<glyph unicode="H" horiz-adv-x="1482" d="M70 32q0 24 7 34q118 9 128 36q16 40 16 188v736q0 148 -16 188q-10 27 -128 36q-7 10 -7 34v4q0 27 7 36q137 -14 286 -14q145 0 282 14q6 -9 6.5 -36t-6.5 -38q-118 -9 -128 -36q-16 -40 -16 -188v-284l4 -6q234 -6 242 -6q18 0 234 6q4 4 4 8l-2 282q0 148 -16 188 q-10 27 -128 36q-7 11 -6.5 38t6.5 36q137 -14 286 -14q145 0 282 14q7 -9 7 -36v-4q0 -24 -7 -34q-118 -9 -128 -36q-16 -40 -16 -188v-736q0 -148 16 -188q10 -27 128 -36q7 -10 7 -34v-4q0 -27 -7 -36q-137 14 -286 14q-145 0 -282 -14q-6 9 -6.5 36t6.5 38q118 9 128 36 q16 40 16 188v330l-4 10q-148 4 -232 4q-232 0 -244 -8l-2 -8v-328q0 -148 16 -188q10 -27 128 -36q7 -11 6.5 -38t-6.5 -36q-137 14 -286 14q-145 0 -282 -14q-7 10 -7 40z" />
<glyph unicode="I" horiz-adv-x="720" d="M70 32q0 24 7 34q118 9 128 36q16 40 16 188v736q0 148 -16 188q-10 27 -128 36q-7 10 -7 34v4q0 27 7 36q137 -14 286 -14q145 0 282 14q7 -9 7 -36v-4q0 -24 -7 -34q-118 -9 -128 -36q-16 -40 -16 -188v-736q0 -148 16 -188q10 -27 128 -36q7 -10 7 -34v-4 q0 -27 -7 -36q-137 14 -286 14q-145 0 -282 -14q-7 10 -7 40z" />
<glyph unicode="J" horiz-adv-x="690" d="M-250 -314q0 52 36.5 93t83.5 41q48 0 114 -66q2 -2 9.5 -10t10 -10.5l9 -9t10 -9t9.5 -8t9.5 -7.5t9 -5.5t9.5 -5t8.5 -2.5t9.5 -1q23 0 41.5 10.5t32 35t23 51t15.5 72t10 84t5.5 101t2 109t0.5 121.5v756q0 148 -16 188q-10 27 -128 36q-7 11 -6.5 38t6.5 36 q136 -14 286 -14q146 0 282 14q7 -10 7 -40q0 -24 -7 -34q-118 -9 -128 -36q-16 -40 -16 -188v-740q0 -340 -158.5 -531t-433.5 -191q-27 0 -63 12t-51 24q-1 2 -6 9t-6.5 10.5t-5.5 10.5t-6 12t-4 12.5t-3 15t-1 16.5z" />
<glyph unicode="K" horiz-adv-x="1438" d="M70 32q0 24 7 34q118 9 128 36q16 40 16 188v736q0 148 -16 188q-10 27 -128 36q-7 10 -7 34v4q0 27 7 36q137 -14 286 -14q145 0 282 14q6 -9 6.5 -36t-6.5 -38q-118 -9 -128 -36q-16 -40 -16 -188v-352q141 112 208 182l63.5 63.5t57.5 58.5t44 47t49.5 56t45.5 59 q20 26 20 66q0 27 -37 36.5t-75 9.5q-7 11 -8 35t4 37q23 -1 79 -5t102 -6.5t79 -2.5q119 0 248 14q5 -10 4 -35.5t-8 -34.5q-155 -17 -226 -88q-226 -230 -376 -388q-15 -17 -6 -32l360 -486q42 -53 90.5 -92t85.5 -58t75 -29.5t54 -12.5t27 -2q5 -10 5 -30v-10 q-2 -28 -5 -34q-116 -8 -262 -8q-105 0 -183 44.5t-123 105.5q-23 32 -90 121t-148.5 197.5t-113.5 151.5q-8 8 -20 8q-14 0 -20 -12v-310q0 -148 16 -188q10 -27 128 -36q7 -11 6.5 -38t-6.5 -36q-137 14 -286 14q-145 0 -282 -14q-7 10 -7 40z" />
<glyph unicode="L" horiz-adv-x="1158" d="M70 34q0 24 7 34q118 9 128 34q16 40 16 188v736q0 148 -16 188q-10 27 -128 36q-7 10 -7 34v4q0 27 7 36q137 -14 286 -14q145 0 282 14q6 -9 6.5 -36t-6.5 -38q-118 -9 -128 -36q-16 -40 -16 -160v-28v-744q0 -118 16 -158q8 -19 47 -29.5t83 -10.5h132q120 0 186 66 q58 58 108 190q3 12 28 12q16 0 36 -4t24 -8q-4 -12 -23.5 -66t-28 -79t-22.5 -68t-22 -74.5t-12 -56.5q-422 0 -691 -1q-258 0 -285 -1q-7 10 -7 40z" />
<glyph unicode="M" horiz-adv-x="1814" d="M33 30q0 21 5 34q33 0 94.5 19t75.5 53q5 13 13.5 79t10.5 97q5 103 12.5 291t14 361t7.5 198q0 30 -10 44q-11 15 -56.5 29.5t-73.5 14.5q-8 13 -6 41.5t6 32.5q33 -1 98.5 -6.5t117.5 -5.5q39 0 113 5.5t97 6.5q147 -325 378 -848q6 -4 8 -4q1 0 4.5 5t3.5 7 q150 368 236 608q14 38 30 94t26 93l10 37q54 -6 216 -6q39 0 124.5 6.5t109.5 7.5q7 -7 11 -35t-3 -41q-18 0 -54.5 -6.5t-49.5 -15.5q-17 -12 -23 -28t-5 -54q2 -43 12 -368t18 -472q0 -4 1 -25t1.5 -26.5t1.5 -23.5t2 -24.5t2.5 -21.5t3 -23t3.5 -20t5 -21t6 -17 q8 -18 54 -27t72 -9q6 -14 7 -36v-9q0 -17 -3 -29q-17 1 -118.5 8.5t-153.5 7.5q-54 0 -174 -7.5t-140 -8.5q-6 6 -7.5 34t3.5 40q30 0 79 10t61 28q16 26 16 70q0 86 -2 122l-20 698q0 52 -14 52q-4 0 -10 -14l-352 -952q-7 -20 -34.5 -52t-51.5 -32q-6 0 -18 4l-446 1046 q-5 -159 -9.5 -303t-8 -240t-8.5 -235q0 -8 -1 -17q0 -26 3 -62q3 -48 6 -59q8 -27 77 -45.5t97 -18.5q5 -11 6.5 -34.5t-2.5 -39.5q-23 1 -110 8.5t-138 7.5q-52 0 -133.5 -7t-116.5 -9q-7 11 -7 38z" />
<glyph unicode="N" horiz-adv-x="1520" d="M58 18q0 4 -1 8q0 14 2 26q2 14 4 14q32 0 91 14.5t69 37.5q10 22 17 82.5t7 119.5v708q0 127 -36 180q-12 17 -59.5 29.5t-72.5 12.5q-8 0 -9.5 33t5.5 41q18 -1 61 -5t83.5 -6.5t81.5 -2.5q106 0 218 14q27 -55 102.5 -157.5t150 -194.5t200.5 -244.5t189 -231.5 q4 14 4 82v374q0 67 -6 151t-16 105q-10 23 -67 33.5t-95 10.5q-2 0 -4 14.5t-1.5 33t5.5 26.5q36 -2 114.5 -9t129.5 -7t140 7.5t112 8.5q4 -12 4 -37.5t-8 -38.5q-19 0 -48 -2t-70 -13.5t-48 -30.5q-7 -20 -13.5 -104t-6.5 -142v-680q0 -72 8 -280q-8 -8 -50 -8 q-27 0 -62 46l-814 1002v-724q0 -52 7 -112t15 -82q9 -24 71.5 -38t92.5 -14q8 -13 8 -38.5t-4 -37.5q-23 1 -112 8.5t-140 7.5t-129.5 -7t-114.5 -9q-5 8 -5 26z" />
<glyph unicode="O" horiz-adv-x="1520" d="M80 656q0 137 57 263.5t150.5 216.5t218 144t254.5 54t254.5 -54t218 -144t150.5 -216.5t57 -263.5t-57 -263t-150.5 -216t-218 -143.5t-254.5 -53.5t-254.5 53.5t-218 143.5t-150.5 216t-57 263zM400 726q0 -79 9.5 -155.5t28.5 -151.5t51.5 -138t75.5 -111.5t104 -76 t133 -27.5q69 0 124.5 31t91 81.5t59 119t33.5 139.5t10 147q0 95 -13.5 186.5t-44.5 179t-77 153t-116.5 105.5t-156.5 40q-68 0 -122.5 -31.5t-89.5 -82.5t-58 -120t-32.5 -140.5t-9.5 -147.5z" />
<glyph unicode="P" horiz-adv-x="1170" d="M70 32q0 24 7 34q118 9 128 36q16 40 16 188v736q0 148 -16 188q-9 23 -128 32q-7 10 -7 34v4q0 27 7 36q90 -6 286 -6q38 0 141.5 3t166.5 3q127 0 230 -40.5t166.5 -123t63.5 -192.5q0 -115 -59 -206t-149.5 -137.5t-193.5 -46.5q-48 0 -85.5 15.5t-52.5 30.5t-15 50 q0 14 7 14q27 -8 82 -8q74 0 121 72.5t47 187.5q0 123 -62.5 213.5t-159.5 90.5q-89 0 -100 -24q-10 -24 -10 -122v-804q0 -148 16 -188q10 -27 128 -36q7 -11 6.5 -38t-6.5 -36q-137 14 -286 14q-145 0 -282 -14q-7 10 -7 40z" />
<glyph unicode="Q" horiz-adv-x="1520" d="M80 656q0 137 57 263.5t150.5 216.5t218 144t254.5 54t254.5 -54t218 -144t150.5 -216.5t57 -263.5q0 -219 -136 -396.5t-340 -245.5q47 -23 115.5 -61.5t103 -55t95 -31t132.5 -14.5q35 0 67 4t51.5 8t23.5 4q10 0 24.5 -7.5t21.5 -18.5l4 -10q-89 -47 -206.5 -82.5 t-203.5 -35.5q-61 0 -123.5 23t-118.5 59t-109 74t-117 75t-122 55q-221 58 -371.5 241t-150.5 415zM400 726q0 -79 9.5 -155.5t28.5 -151.5t51.5 -138t75.5 -111.5t104 -76t133 -27.5q69 0 124.5 31t91 81.5t59 119t33.5 139.5t10 147q0 95 -13.5 186.5t-44.5 179t-77 153 t-116.5 105.5t-156.5 40q-68 0 -122.5 -31.5t-89.5 -82.5t-58 -120t-32.5 -140.5t-9.5 -147.5z" />
<glyph unicode="R" horiz-adv-x="1386" d="M70 32q0 24 7 34q118 9 128 36q16 40 16 188v736q0 148 -16 188q-9 23 -128 32q-7 10 -7 34v4q0 27 7 36q90 -6 286 -6q38 0 141.5 3t166.5 3q195 0 316.5 -95t121.5 -269q0 -58 -28.5 -115.5t-71.5 -99.5t-88.5 -71t-83.5 -38q65 -87 137 -180q72 -92 113 -142l40 -50 q42 -53 90.5 -92t85.5 -58t75 -29.5t54 -12.5t27 -2q5 -10 5 -30v-10q-2 -28 -5 -34q-116 -8 -262 -8q-105 0 -183 44.5t-123 105.5l-324 434q-20 30 -36 30h-30v-308q0 -148 16 -188q10 -27 128 -36q7 -11 6.5 -38t-6.5 -36q-137 14 -286 14q-145 0 -282 -14q-7 10 -7 40z M501 676h92q88 0 153 74t65 186q0 65 -8.5 115t-29.5 95t-62 69.5t-100 24.5q-89 0 -100 -24q-10 -24 -10 -122v-418z" />
<glyph unicode="S" horiz-adv-x="1042" d="M94 372q6 8 27.5 18t30.5 10q23 0 26 -16q7 -43 33.5 -96t67 -104t100 -85.5t123.5 -34.5q84 0 139 47t55 147q0 26 -9.5 52.5t-21.5 48t-37 47.5t-41.5 42t-49.5 41t-47.5 35t-49 33l-40.5 27q-123 82 -164 120q-119 107 -127 250q-1 12 -1 24q0 99 63.5 184 t161.5 131.5t201 46.5q42 0 88 -6t75.5 -12t88 -19t84.5 -19q12 -126 22 -332q-9 -12 -22 -12q-56 0 -60 14q-6 45 -27 95t-53.5 97.5t-81.5 78.5t-104 31q-69 0 -119.5 -41t-50.5 -133q0 -36 20 -74t45.5 -67.5t71.5 -67t74.5 -58t78.5 -53.5q8 -5 40 -26t42 -28t39 -28 t40.5 -32.5l34.5 -34.5t33 -40.5t25.5 -44.5t22 -52.5t12 -58t5.5 -67.5q0 -106 -63.5 -192.5t-162.5 -132t-210 -45.5q-157 0 -380 52q-14 60 -29 174.5t-19 165.5z" />
<glyph unicode="T" horiz-adv-x="1268" d="M16 978l54 368q12 6 24 6t34.5 -9.5t66.5 -19t107 -9.5h664q63 0 106.5 9.5t66.5 19t35 9.5t24 -6l54 -368q-4 -4 -24 -9t-34 -5q-18 0 -20 10q-15 100 -77 176t-137 76h-186v-936q0 -148 16 -188q10 -27 128 -36q7 -11 6.5 -38t-6.5 -36q-136 14 -286 14 q-146 0 -282 -14q-6 9 -6.5 36t6.5 38q118 9 128 36q16 40 16 188v936h-186q-75 0 -137 -76t-77 -176q-2 -10 -20 -10q-14 0 -34 5t-24 9z" />
<glyph unicode="U" horiz-adv-x="1460" d="M45 1324q137 -14 286 -14q145 0 282 14q6 -9 6.5 -36t-6.5 -38q-118 -9 -128 -36q-16 -40 -16 -188v-366q0 -119 9 -194t41 -148q83 -192 304 -192q62 0 118.5 28.5t103.5 85.5t74.5 154.5t27.5 223.5v340q0 67 -8 141t-20 103q-16 38 -150 48q-7 11 -6.5 38t6.5 36 q165 -14 250 -14q51 0 131 6.5t103 7.5q7 -9 7 -36v-4q0 -24 -7 -34q-1 0 -11.5 -0.5t-17 -1.5t-19.5 -2t-22 -3t-21.5 -4.5t-21.5 -6t-18 -8t-14.5 -10t-8.5 -12.5q-12 -29 -20 -102t-8 -140v-388q0 -119 -29.5 -217.5t-80.5 -166.5t-121 -115t-149.5 -69t-167.5 -22 q-131 0 -241.5 44.5t-180.5 131.5q-112 141 -112 444v424q0 148 -16 188q-10 27 -128 36q-7 10 -7 34q0 30 7 40z" />
<glyph unicode="V" horiz-adv-x="1368" d="M-5 1324q137 -14 286 -14q145 0 282 14q6 -9 6.5 -36t-6.5 -38q-1 0 -11 -0.5t-15 -1t-17 -2t-19 -3.5t-17.5 -4.5t-17 -6.5t-13 -9t-9.5 -12t-3 -15q0 -38 48 -150l298 -674q244 614 264 670q2 5 11 31t12.5 37t9.5 31t8.5 34.5t2.5 26.5q0 36 -160 48q-7 11 -6.5 38 t6.5 36q165 -14 238 -14q51 0 124.5 6.5t99.5 7.5q7 -9 7 -36v-4q0 -24 -7 -34q-2 0 -14.5 -1t-21 -1.5t-23 -2.5t-25 -4.5t-22.5 -6t-20.5 -8.5t-13.5 -12q-27 -36 -82 -166q-94 -229 -228 -546t-186 -442q-12 -27 -45 -54.5t-51 -27.5q-8 0 -12.5 3.5t-8.5 12t-7 12.5 l-436 1014q-43 105 -70 164q-11 24 -41 39.5t-52.5 20t-42.5 6.5q-7 10 -7 34q0 30 7 40z" />
<glyph unicode="W" horiz-adv-x="1902" d="M-4 1324q136 -14 286 -14q146 0 282 14q6 -9 6.5 -36t-6.5 -38q-1 0 -11 -0.5t-15 -1t-17 -2t-19 -3.5t-17.5 -4.5t-17 -6.5t-13 -9t-9.5 -12t-3 -15q0 -9 2.5 -21t8.5 -29.5t10.5 -29.5l13.5 -36t13 -34l196 -544q218 618 266 748q11 30 28.5 52t33.5 22q12 0 24 -32 l342 -864q176 550 196 614q3 9 10 31.5t11 36t9 32t7.5 33.5t2.5 27q0 36 -156 48q-7 11 -6.5 38t6.5 36q164 -14 238 -14q51 0 124.5 6.5t99.5 7.5q6 -9 6 -36q0 -2 1 -4q0 -24 -7 -34q-2 0 -14.5 -1t-21 -1.5t-23 -2.5t-25 -4.5t-22.5 -6t-20.5 -8.5t-13.5 -12 q-51 -68 -82 -166q-43 -131 -328 -968q-14 -39 -38 -70.5t-42 -31.5t-38 28l-330 830q-156 -461 -254 -748q-11 -30 -32.5 -70t-37.5 -40q-18 0 -38 28l-360 1014q-11 33 -70 164q-11 24 -41 39.5t-52.5 20t-42.5 6.5q-8 10 -8 34q0 29 8 40z" />
<glyph unicode="X" horiz-adv-x="1420" d="M-18 28.5q0 27.5 8 37.5q13 0 33 2.5t56.5 10t71.5 28.5t57 51l356 486l-280 430q-6 9 -21.5 33t-24.5 37t-21.5 30.5t-22.5 28.5t-18 17q-19 13 -65 21.5t-71 8.5q-8 0 -8 33t8 41q294 -12 312 -12q48 0 288 12q4 -9 3.5 -41.5t-7.5 -32.5q-30 0 -67.5 -11t-38.5 -31 q0 -20 16 -44l222 -336q25 33 94 116.5t111 138.5t55 85q6 12 6 20q0 25 -47.5 43.5t-100.5 18.5q-8 0 -8.5 33t6.5 41q122 -14 266 -14q138 0 240 14q5 -10 5 -42t-7 -32q-13 0 -31.5 -2.5t-53 -11.5t-72 -33t-67.5 -59l-342 -406q128 -193 254 -377t148 -209 q38 -45 99.5 -65.5t98.5 -20.5q7 -15 7 -41q0 -21 -7 -33q-240 12 -320 12q-66 0 -182 -5.5t-134 -6.5q-7 8 -5.5 41t9.5 33q26 0 69 16t43 40q0 13 -6 22l-266 402q-230 -304 -276 -380q-16 -27 -16 -34q0 -32 54.5 -49t111.5 -17q7 -10 9 -34t-3 -40q-198 12 -264 12 q-46 0 -89.5 -2t-93 -5.5t-73.5 -4.5q-8 9 -8 36.5z" />
<glyph unicode="Y" horiz-adv-x="1248" d="M7 1324q137 -14 286 -14q145 0 282 14q6 -9 6.5 -36t-6.5 -38q-1 0 -11 -0.5t-15 -1t-17 -2t-19 -3.5t-17.5 -4.5t-17 -6.5t-13 -9t-9.5 -12t-3 -15t14 -32l240 -442h1q10 0 84 132q79 138 167 302q10 20 10 46q0 37 -148 48q-7 11 -6.5 38t6.5 36q165 -14 226 -14 q51 0 124.5 6.5t99.5 7.5q6 -9 7 -36v-4q0 -24 -7 -34l-13 -1q-12 -1 -17.5 -1.5t-19.5 -2t-23 -4t-21.5 -6t-21.5 -8.5t-18 -12t-14 -15q-54 -82 -191.5 -305t-174.5 -299q-10 -20 -10 -38v-268v-28q0 -120 16 -160q10 -27 128 -36q7 -11 6.5 -38t-6.5 -36q-137 14 -286 14 q-145 0 -282 -14q-6 9 -6.5 36t6.5 38q118 9 128 36q3 7 5 14t3.5 16.5t2.5 16.5t2 20t1.5 20t0.5 23.5t0.5 23.5t0.5 27v27v278q0 13 -12 40q-23 48 -85 164q-62 118 -114 210l-51 92q-33 62 -62 110q-19 32 -61 47.5t-75 18.5q-7 10 -7 34q0 30 7 40z" />
<glyph unicode="Z" horiz-adv-x="1280" d="M41 44l792 1176h-366q-31 0 -58.5 -4.5t-48.5 -11t-40.5 -20t-33 -24t-27 -30.5t-21.5 -32.5t-18.5 -36.5t-15 -36.5t-14 -39t-13.5 -37.5q-4 -12 -26 -12q-48 0 -58 10q7 38 22.5 114t28 141.5t21.5 122.5q21 -5 123 -9.5t139 -4.5l280 2q221 3 464 20q6 -1 13 -25.5 t7 -40.5q-3 -7 -197 -300q-194 -292 -388 -582l-193 -290h432q120 0 190 70q33 33 57.5 72t48.5 104q3 12 28 12q16 0 36 -4t24 -8q-9 -31 -53.5 -159.5t-54.5 -178.5l-1028 -2q-12 0 -26 10q-13 10 -21 20q-5 8 -6 11q0 2 1 3z" />
<glyph unicode="[" horiz-adv-x="740" d="M220 -738v2152q0 32 29 44q5 2 9 2q246 0 410 32q8 0 11 -11q1 -4 1 -7q0 -14 -18 -50q-1 -2 -2 -2q-39 -20 -185 -46q-28 -5 -41 -8v-2060q15 -3 54 -10q119 -20 172 -44q11 -5 17 -30q3 -12 3 -22q-1 -15 -12 -18q-166 32 -410 32q-31 2 -37 36q-1 5 -1 10z" />
<glyph unicode="\" horiz-adv-x="706" d="M24 1441q4 16 38 16q40 0 65 -14t33 -30l517 -1814l-3 -3q-2 -4 -11 -7.5t-22 -3.5q-46 0 -71 13.5t-29 28.5z" />
<glyph unicode="]" horiz-adv-x="740" d="M60 -798q0 10 3 22q6 25 17 30q53 24 172 44q39 7 54 10v2060q-13 3 -41 8q-146 26 -185 46q-1 0 -2 2q-18 36 -18 50q0 3 1 7q3 11 11 11q164 -32 410 -32q4 0 9 -2q29 -12 29 -44v-2152q0 -5 -1 -10q-6 -34 -37 -36q-244 0 -410 -32q-11 3 -12 18z" />
<glyph unicode="^" horiz-adv-x="782" d="M76 874q39 60 75 119.5t53 89t65 113.5t65 114q16 28 38 28q24 0 40 -28q30 -53 81 -144.5t87.5 -153.5t85.5 -138q0 -15 -12.5 -25.5t-25.5 -10.5q-52 48 -116 116q-64 70 -102 114l-38 44q-140 -166 -256 -274q-14 0 -27 10.5t-13 25.5z" />
<glyph unicode="_" horiz-adv-x="986" d="M16 -66q10 92 30 92h898q8 0 8 -10q0 -17 -20 -90q-2 -5 -5 -8.5t-5 -3.5h-2h-890q-14 0 -14 20z" />
<glyph unicode="`" horiz-adv-x="498" d="M88 1316q0 18 23 38t69 20q50 0 68 -18q34 -39 79.5 -105.5t76 -116t30.5 -54.5q0 -9 -12 -22.5t-22 -13.5q-12 0 -87.5 51t-150 118.5t-74.5 102.5z" />
<glyph unicode="a" horiz-adv-x="944" d="M62 228q0 56 31.5 101.5t72.5 58.5q33 11 101 36.5t150.5 57.5t118.5 46v42v52q0 78 -33.5 139t-84.5 61q-22 0 -39.5 -9.5t-28.5 -23t-20.5 -38.5t-15 -44.5t-12.5 -52.5q-19 -88 -112 -88q-42 0 -73 27.5t-31 68.5q0 33 28 82q38 38 153.5 96t228.5 58q126 0 213 -86.5 t87 -219.5v-374q0 -39 13.5 -60.5t34.5 -21.5q10 0 20 3t16 5q6 4 14 8l8 4q14 -7 14 -34q0 -17 -8 -30q-21 -19 -47.5 -39.5t-73.5 -42.5t-85 -22q-48 0 -93 31t-59 69q-25 -22 -102 -63t-124 -41q-110 0 -186 75.5t-76 168.5zM332 248q1 -59 39 -91.5t83 -32.5 q34 0 58 15.5t24 26.5v280q-6 -3 -57 -26t-75 -38q-72 -47 -72 -126v-8z" />
<glyph unicode="b" horiz-adv-x="1084" d="M-4 1292q2 16 7 20q63 6 125 16t106.5 20.5t79.5 20t54.5 15.5t20.5 6q8 -1 18 -13.5t12 -20.5q-22 -90 -22 -202v-324v-9.5t1.5 -11t3.5 -7.5t7 2q37 30 95.5 62t102.5 32q175 0 295.5 -121.5t120.5 -304.5q0 -93 -31 -173t-83 -137t-121 -98t-145.5 -60.5t-155.5 -19.5 q-59 0 -146 23t-106 23q-41 0 -74 -14q-6 0 -27 20.5t-21 29.5q24 62 24 238v812q0 62 -14 96q-7 16 -50 26t-70 10q-4 0 -6 14q-1 8 -1 17q-1 6 0 13zM397 196q0 -53 35.5 -88.5t96.5 -35.5t109.5 49.5t72.5 122t24 148.5q0 192 -62.5 275t-165.5 83q-64 0 -104 -44 q-6 -6 -6 -18v-492z" />
<glyph unicode="c" horiz-adv-x="894" d="M62 400q0 90 43 180t114 159.5t167.5 113t197.5 43.5q74 0 127.5 -11.5t74.5 -24.5q40 -44 40 -96q0 -47 -32.5 -85.5t-83.5 -38.5q-15 0 -29 5t-28 17t-22 20t-22 25.5t-19 22.5q-55 62 -136 62q-42 0 -75 -44t-49 -106.5t-16 -125.5q0 -100 26.5 -174.5t70 -114.5 t91.5 -58.5t100 -18.5q133 0 224 100q10 -3 17 -14.5t7 -21.5q0 -29 -6 -38q-16 -25 -46 -54.5t-76 -62.5t-109.5 -55t-130.5 -22q-113 0 -208 49t-153.5 145.5t-58.5 223.5z" />
<glyph unicode="d" horiz-adv-x="1094" d="M64 400q0 97 37 181t95 139.5t129 95.5t138.5 58t124.5 18q48 0 80 -4q10 0 10 46v182q0 62 -14 96q-7 16 -50 26t-70 10q-4 0 -6 14.5t-0.5 30t6.5 19.5q63 6 125 16t106.5 20.5t79.5 20t54.5 15.5t20.5 6q8 -1 18 -13.5t12 -20.5q-22 -90 -22 -202v-938q0 -56 18 -76 t90 -20q6 -6 6 -26t-12 -38q-51 -5 -132 -22.5t-141.5 -32.5t-70.5 -15q-7 0 -12.5 13.5t-5.5 34.5v32q0 14 -6 10q-134 -92 -246 -92q-146 0 -254 121t-108 295zM348 486q0 -167 55 -270.5t147 -103.5q40 0 84 26.5t44 47.5v514q0 29 -48 59.5t-108 30.5q-61 0 -101.5 -44 t-56.5 -109.5t-16 -150.5z" />
<glyph unicode="e" horiz-adv-x="920" d="M64 400q0 124 62.5 238.5t166 185t215.5 70.5q75 0 136.5 -20.5t100 -52.5t65 -73t37.5 -80t11 -76q0 -33 -16 -58t-38 -26q-180 -16 -480 -24q0 -80 21 -142t51.5 -97t70.5 -57.5t73 -30t64 -7.5q133 0 224 100q10 -3 17 -14.5t7 -21.5q0 -29 -6 -38q-16 -25 -46 -54.5 t-76 -62.5t-109.5 -55t-130.5 -22q-113 0 -208 49t-153.5 145.5t-58.5 223.5zM326 564h6q22 0 112 5q104 6 140 11q26 2 26 32q0 80 -30 140t-92 60q-41 0 -74.5 -28.5t-51.5 -70.5t-27 -81t-9 -68z" />
<glyph unicode="f" horiz-adv-x="710" d="M46 758q26 36 64 68h88v60q0 98 43.5 194.5t107 164t135 109.5t128.5 42q196 0 206 -112v-10q0 -42 -28 -86q-28 -42 -80 -42q-50 0 -98 52q-12 12 -28 24q-37 30 -80 30q-24 0 -42 -57.5t-18 -126.5q0 -118 8 -242h234q12 0 12 -26q0 -13 -15 -35t-31 -33h-194v-442 q0 -145 16 -188q10 -27 128 -36q7 -11 6.5 -38t-6.5 -36q-136 14 -274 14t-274 -14q-6 9 -6.5 36t6.5 38q118 9 128 36q16 40 16 188v442h-142q-10 4 -10 26z" />
<glyph unicode="g" horiz-adv-x="956" d="M48 -206q0 55 52.5 108.5t117.5 85.5q-50 13 -85 72t-35 124q0 25 51.5 68t114.5 78q-86 35 -136 104t-50 154q0 125 104.5 211.5t257.5 86.5q140 0 214 -50q6 -6 12 -6l250 24q22 -7 22 -22q0 -12 -18 -51t-32 -49q-38 3 -112 12q-12 0 -12 -6q42 -58 42 -140 q0 -126 -104.5 -214t-257.5 -88q-51 0 -104 10q-48 -39 -48 -62q0 -22 29 -36t67 -14q229 0 264 -2q65 -4 118.5 -29t84 -59.5t47 -69.5t16.5 -62q0 -117 -77.5 -212t-199.5 -145.5t-259 -50.5q-147 0 -240.5 64t-93.5 166zM268 -116q0 -97 66.5 -152.5t173.5 -55.5 q68 0 117 16t73.5 42.5t35 53t10.5 54.5q0 61 -62.5 95.5t-161.5 34.5h-220q-32 -37 -32 -88zM320 614q0 -61 13 -113.5t46.5 -91.5t82.5 -39q22 0 38.5 7t27 16.5t18 28.5t11 31.5t5.5 39t2 38v39.5q0 61 -11 112.5t-42.5 90.5t-80.5 39q-37 0 -60.5 -17t-33.5 -50t-13 -61 t-3 -70z" />
<glyph unicode="h" horiz-adv-x="1166" d="M26 32q0 24 7 34q118 9 128 36q16 40 16 188v826q0 62 -14 96q-7 16 -50 26t-70 10q-4 0 -6 14.5t-0.5 30t6.5 19.5q63 6 125 16t106.5 20.5t79.5 20t54.5 15.5t20.5 6q8 -1 18 -13.5t12 -20.5q-22 -124 -22 -204v-408q0 -10 2 -12q4 0 14 10q46 53 131.5 101.5 t150.5 48.5q68 0 116 -19.5t78.5 -55t47.5 -95.5t23.5 -130.5t6.5 -171.5v-130q0 -148 16 -188q10 -27 128 -36q7 -10 7 -34v-4q0 -27 -7 -36q-137 14 -274 14q-113 0 -250 -14q-6 9 -6.5 36t6.5 38q93 7 104 36q16 40 16 188v158q0 282 -134 282q-57 0 -116.5 -40 t-59.5 -72v-328q0 -148 16 -188q11 -28 114 -36q7 -11 6.5 -38t-6.5 -36q-137 14 -260 14q-137 0 -274 -14q-7 10 -7 40z" />
<glyph unicode="i" horiz-adv-x="630" d="M52 32q0 24 7 34q118 9 128 36q16 40 16 188v230q0 130 -18 164q-10 19 -56.5 29.5t-69.5 10.5q-5 3 -5 32.5t7 29.5q104 8 213.5 40t176.5 66q10 -3 22 -16t12 -18q-4 -12 -11 -52.5t-9 -61.5q-2 -44 -2 -126v-328q0 -148 16 -188q11 -28 114 -36q7 -10 7 -34v-4 q0 -27 -7 -36q-137 14 -260 14q-137 0 -274 -14q-7 10 -7 40zM169 1232q0 60 42 102t102 42t103 -42t43 -102t-43 -102t-103 -42t-102 42t-42 102z" />
<glyph unicode="j" horiz-adv-x="572" d="M-24 -402q0 12 2 14q10 5 24.5 15t48.5 50t59.5 92t46.5 147.5t21 211.5v392q0 130 -18 164q-10 19 -56.5 29.5t-69.5 10.5q-5 3 -5 32.5t7 29.5q104 8 213.5 40t176.5 66q10 -3 22 -16t12 -18q-4 -12 -11 -52.5t-9 -61.5q-2 -44 -2 -126v-378q0 -304 -96 -444 q-65 -95 -173 -163.5t-165 -68.5q-28 16 -28 34zM144 1232q0 62 43 105t105 43t105 -43t43 -105t-43 -105t-105 -43t-105 43t-43 105z" />
<glyph unicode="k" horiz-adv-x="1180" d="M26 32q0 24 7 34q118 9 128 36q16 40 16 188v826q0 62 -14 96q-7 16 -50 26t-70 10q-4 0 -6 14.5t-0.5 30t6.5 19.5q63 6 125 16t106.5 20.5t79.5 20t54.5 15.5t20.5 6q8 -1 18 -13.5t12 -20.5q-22 -124 -22 -204l-2 -680q53 19 150 102q103 88 139.5 128.5t36.5 63.5 q0 16 -46 29t-82 15q-5 13 -4 39t8 29q178 -8 262 -8q32 0 65.5 1.5t79 4.5t77.5 4q9 -15 6 -40t-12 -30q-126 -12 -198 -62q-18 -13 -55.5 -46.5t-99.5 -90.5t-109 -99q82 -96 166 -187t118 -129q39 -44 73 -70.5t65 -37.5t50 -13.5t50 -2.5q6 -17 6 -31q-1 -3 -1 -6 q-2 -16 -5 -23q-25 -9 -85.5 -16.5t-116.5 -7.5q-85 0 -156.5 32t-117.5 86q-138 148 -236 270q-4 5 -10.5 11.5l-10.5 10.5l-5 4v-112q0 -148 16 -188q10 -27 128 -36q7 -11 6.5 -38t-6.5 -36q-137 14 -274 14t-274 -14q-7 10 -7 40z" />
<glyph unicode="l" horiz-adv-x="612" d="M26 32q0 24 7 34q118 9 128 36q16 40 16 188v826q0 62 -14 96q-7 16 -50 26t-70 10q-4 0 -6 14.5t-0.5 30t6.5 19.5q63 6 125 16t106.5 20.5t79.5 20t54.5 15.5t20.5 6q8 -1 18 -13.5t12 -20.5q-22 -124 -22 -204v-862q0 -148 16 -188q10 -27 128 -36q7 -10 7 -34v-4 q0 -27 -7 -36q-137 14 -274 14t-274 -14q-7 10 -7 40z" />
<glyph unicode="m" horiz-adv-x="1766" d="M52 32q0 24 7 34q118 9 128 36q16 40 16 188v230q0 130 -18 164q-10 19 -56.5 29.5t-69.5 10.5q-5 3 -5 32.5t7 29.5q104 8 213.5 40t176.5 66q10 -3 22 -16t12 -18q-4 -11 -13 -61.5t-7 -52.5q0 -10 2 -12q4 0 14 10q47 53 131.5 101.5t148.5 48.5q97 0 153.5 -38.5 t92.5 -133.5q68 67 164.5 119.5t163.5 52.5q68 0 116 -19.5t78.5 -55t47.5 -95.5t23.5 -130.5t6.5 -171.5v-130q0 -148 16 -188q10 -27 128 -36q7 -10 7 -34v-4q0 -27 -7 -36q-137 14 -274 14q-113 0 -250 -14q-6 9 -6.5 36t6.5 38q93 7 104 36q16 40 16 188v158 q0 282 -134 282q-58 0 -123 -39.5t-65 -70.5v-12q8 -112 8 -188v-130q0 -148 16 -188q10 -27 124 -36q7 -11 6.5 -38t-6.5 -36q-137 14 -270 14q-117 0 -254 -14q-6 9 -6.5 36t6.5 38q97 7 108 36q16 40 16 188v158q0 282 -134 282q-57 0 -116.5 -40t-59.5 -72v-328 q0 -148 16 -188q11 -28 114 -36q7 -11 6.5 -38t-6.5 -36q-137 14 -260 14q-137 0 -274 -14q-7 10 -7 40z" />
<glyph unicode="n" horiz-adv-x="1192" d="M52 32q0 24 7 34q118 9 128 36q16 40 16 188v230q0 130 -18 164q-10 19 -56.5 29.5t-69.5 10.5q-5 3 -5 32.5t7 29.5q104 8 213.5 40t176.5 66q9 0 21.5 -13t12.5 -21q-2 -7 -7 -35t-9 -53t-4 -26q0 -10 2 -12q4 0 14 10q47 53 131.5 101.5t148.5 48.5q68 0 116 -19.5 t78.5 -55t47.5 -95.5t23.5 -130.5t6.5 -171.5v-130q0 -148 16 -188q10 -27 128 -36q7 -10 7 -34v-4q0 -27 -7 -36q-137 14 -274 14q-113 0 -250 -14q-6 9 -6.5 36t6.5 38q93 7 104 36q16 40 16 188v158q0 282 -134 282q-57 0 -116.5 -40t-59.5 -72v-328q0 -148 16 -188 q11 -28 114 -36q7 -11 6.5 -38t-6.5 -36q-137 14 -260 14q-137 0 -274 -14q-7 10 -7 40z" />
<glyph unicode="o" horiz-adv-x="1064" d="M64 434q0 190 135.5 325t330.5 135q206 0 338 -126t132 -318q0 -125 -61 -231.5t-168.5 -169.5t-236.5 -63q-206 0 -338 128.5t-132 319.5zM348 474q0 -95 20 -183.5t68.5 -154.5t117.5 -66q42 0 73 21.5t47.5 53.5t26.5 80t12.5 88t2.5 91q0 96 -20.5 185.5t-69.5 156 t-118 66.5q-52 0 -86 -30.5t-49 -86t-20 -105.5t-5 -116z" />
<glyph unicode="p" horiz-adv-x="1106" d="M20 -396q0 24 7 34q118 9 128 36q16 40 16 188v658q0 130 -18 164q-10 19 -56.5 29.5t-69.5 10.5q-5 3 -5 32.5t7 29.5q104 8 213.5 40t176.5 66q10 -3 22 -16t12 -18q0 -1 -6 -14.5t-9 -26.5t-3 -27t5 -14q1 0 3 2q47 50 105 84t103 34q117 0 208 -61t137.5 -158 t46.5 -209q0 -110 -45.5 -204t-117.5 -153.5t-157.5 -93t-169.5 -33.5q-25 0 -52 4.5t-44.5 9t-19.5 4.5q-6 0 -6 -32v-108q0 -148 16 -188q10 -27 128 -36q7 -11 6.5 -38t-6.5 -36q-137 14 -274 14t-274 -14q-7 10 -7 40zM431 192q0 -57 40 -88.5t96 -31.5q27 0 57.5 19 t60.5 56t50 103t20 148q0 352 -214 352q-34 0 -61 -12.5t-38 -24.5t-11 -19v-502z" />
<glyph unicode="q" horiz-adv-x="1068" d="M64 384q0 113 48 211t125 161.5t172 99.5t191 36q40 0 124 -23t112 -23q30 0 72 14q10 -3 29 -21.5t19 -28.5q-24 -58 -24 -228v-720q0 -148 16 -188q10 -27 128 -36q7 -10 7 -34q0 -30 -7 -40q-136 14 -274 14t-274 -14q-6 9 -6.5 36t6.5 38q118 9 128 36q16 40 16 188 v172v10.5t-1.5 10.5t-4 7t-6.5 -2q-32 -24 -99 -50t-129 -26q-151 0 -259.5 118.5t-108.5 281.5zM348 486q0 -67 10.5 -129.5t33 -119t64 -91t96.5 -34.5q33 0 62.5 10.5t43.5 21.5t14 16v528q0 9 -9 24.5t-25.5 33t-47 30t-66.5 12.5q-50 0 -86 -26.5t-55 -72t-27 -95.5 t-8 -108z" />
<glyph unicode="r" horiz-adv-x="898" d="M52 32q0 24 7 34q118 9 128 36q16 40 16 188v230q0 130 -18 164q-10 19 -56.5 29.5t-69.5 10.5q-5 3 -5 32.5t7 29.5q104 8 213.5 40t176.5 66q10 -3 22 -16t12 -18q-4 -12 -12 -74t-8 -84q0 -5 2.5 -7t5.5 -1.5t4 2.5q22 39 42.5 68.5t52 62.5t71 51t84.5 18 q89 0 126 -34q7 -11 14.5 -40t7.5 -58q0 -55 -36 -106.5t-84 -51.5q-13 0 -26.5 6t-20 10.5t-22.5 18.5t-17 15q-3 3 -12 11.5t-13.5 12t-12.5 9t-16 7.5t-18 2q-55 0 -94.5 -60t-39.5 -102v-244q0 -148 16 -188q10 -25 147 -36q7 -11 6.5 -38t-6.5 -36q-136 14 -293 14 q-137 0 -274 -14q-7 10 -7 40z" />
<glyph unicode="s" horiz-adv-x="808" d="M76 620q0 71 35.5 126.5t92 87t119 47t125.5 15.5q42 0 78.5 -5.5t85.5 -18t60 -14.5q13 -55 27.5 -138.5t14.5 -107.5q0 -6 -12 -10t-24 -4q-14 0 -38 16q-45 202 -212 202q-51 0 -82.5 -28t-31.5 -80q0 -25 9.5 -46.5t23 -36t37 -29.5t41.5 -23.5t48 -21.5t45 -21 q96 -48 129 -75q87 -70 87 -195q0 -72 -32 -127t-87.5 -86.5t-124.5 -47t-150 -15.5q-31 0 -69 5.5t-60.5 10.5t-61.5 15t-43 11q-5 30 -10.5 131.5t-5.5 128.5q0 14 30 14q12 0 26 -6t18 -14q10 -62 33.5 -106.5t55.5 -67t63 -32.5t64 -10q51 0 82.5 32t31.5 76 q0 29 -11.5 51.5t-35 40t-45 29.5t-58 29t-56.5 28q-50 27 -83.5 51t-65 56.5t-47.5 73t-16 89.5z" />
<glyph unicode="t" horiz-adv-x="684" d="M12 788q26 36 64 68h88v106q45 38 126 123.5t84 88.5q16 10 31 10h1q16 0 18 -10v-318h228q12 0 12 -26q0 -13 -15 -35t-31 -33h-194v-496q0 -79 26 -115.5t82 -36.5q31 0 62.5 18t43.5 30q14 -14 14 -28q0 -7 -6 -20.5t-10 -17.5q-16 -18 -40 -38.5t-74.5 -46 t-97.5 -25.5q-39 0 -74.5 8.5t-70 30t-59.5 54t-40.5 83.5t-15.5 116v484h-142q-10 4 -10 26z" />
<glyph unicode="u" horiz-adv-x="1132" d="M18 756.5q0 29.5 7 29.5q104 8 213.5 40t176.5 66q10 -3 22 -16t12 -18q-4 -12 -11 -52.5t-9 -61.5q-2 -44 -2 -126v-180q0 -169 33.5 -247.5t122.5 -78.5q41 0 84.5 25.5t43.5 48.5v334q0 130 -18 164q-10 19 -56.5 29.5t-69.5 10.5q-5 3 -5 32.5t7 29.5q104 8 213.5 40 t176.5 66q10 -3 22 -16t12 -18q-4 -12 -11 -52.5t-9 -61.5q-2 -44 -2 -126v-402q0 -56 18 -76t90 -20q6 -6 6 -26t-12 -38q-51 -5 -132 -22.5t-141.5 -32.5t-70.5 -15q-7 0 -12.5 13.5t-5.5 34.5v32q0 14 -6 10q-24 -16 -56.5 -33t-97 -35t-128.5 -18q-70 0 -121.5 29 t-80 80.5t-41.5 113t-13 135.5v172q0 130 -18 164q-10 19 -56.5 29.5t-69.5 10.5q-5 3 -5 32.5z" />
<glyph unicode="v" horiz-adv-x="1066" d="M0 886q121 -14 270 -14q135 0 252 14q8 -8 8 -36.5t-8 -37.5q-27 0 -72.5 -16t-45.5 -38q0 -20 4 -30l206 -394q92 202 158 350q22 44 22 74q0 17 -19 29t-47 17t-46 6.5t-30 1.5q-7 7 -7.5 35.5t5.5 38.5q105 -14 210 -14q103 0 208 14q6 -8 6 -36q0 -2 1 -3 q0 -25 -7 -35q-20 0 -47.5 -3.5t-64.5 -20t-50 -42.5l-308 -656q-57 -112 -90 -112q-8 0 -24 16q-37 77 -159 330.5t-199 411.5q-17 39 -59.5 57.5t-66.5 18.5q-8 12 -8 36q0 27 8 38z" />
<glyph unicode="w" horiz-adv-x="1578" d="M0 886q121 -14 256 -14q149 0 266 14q8 -8 8 -36.5t-8 -37.5q-27 0 -72.5 -16t-45.5 -38q0 -20 4 -30l194 -384q132 296 132 326t-18 66q-19 37 -61.5 56.5t-64.5 19.5q-10 13 -9.5 38.5t7.5 35.5q71 -9 270 -14q135 0 252 14q8 -8 8 -36.5t-8 -37.5q-27 0 -72.5 -16 t-45.5 -38q0 -20 4 -30l168 -368q72 178 136 324q22 55 22 74q0 17 -19 29t-47 17t-46 6.5t-30 1.5q-7 7 -7.5 35.5t5.5 38.5q105 -14 210 -14q85 0 190 14q6 -8 6 -36q0 -2 1 -3q0 -25 -7 -35q-109 0 -136 -62q-159 -369 -294 -662q-24 -53 -53.5 -81.5t-46.5 -28.5 q-8 0 -24 16q-156 402 -222 558q-28 -69 -78 -185q-48 -115 -84 -197l-36 -82q-23 -52 -53 -81t-47 -29q-8 0 -24 16q-253 538 -354 742q-18 39 -60.5 57.5t-65.5 18.5q-8 12 -8 36q0 27 8 38z" />
<glyph unicode="x" horiz-adv-x="1116" d="M10 31q0 25 7 35q33 0 84 18.5t84 49.5q57 55 143.5 148t108.5 116q-36 49 -84.5 114.5t-89 120t-88.5 115.5q-26 33 -70 48.5t-68 15.5q-10 13 -9.5 38.5t7.5 35.5q70 -9 276 -14q135 0 252 14q7 -8 7 -36.5t-7 -37.5q-28 0 -62 -11t-34 -33q0 -3 20 -28l128 -164 q154 165 154 182t-19 29t-47 17t-46 6.5t-30 1.5q-7 7 -7.5 35.5t5.5 38.5q105 -14 210 -14q137 0 242 14q6 -8 6.5 -35.5t-6.5 -38.5q-104 0 -166 -64q-79 -83 -230 -256q48 -62 137 -173.5t147 -186.5q26 -34 69 -50t65 -16q10 -12 10 -36q-1 0 -1 -2q0 -26 -7 -36 q-69 9 -278 14q-137 0 -254 -14q-7 8 -7 36.5t7 37.5q28 0 62 11t34 33q0 3 -20 28l-142 174q-14 -15 -49 -51t-61.5 -64t-40.5 -47q-15 -20 -15 -30q0 -17 19 -29t47 -17t46 -6.5t30 -1.5q7 -7 7.5 -35.5t-5.5 -38.5q-105 14 -210 14q-149 0 -254 -14q-7 9 -7 39z" />
<glyph unicode="y" horiz-adv-x="1068" d="M0 886q121 -14 270 -14q135 0 252 14q8 -8 8 -36.5t-8 -37.5q-27 0 -72.5 -16t-45.5 -38q0 -20 4 -30l206 -394q92 202 158 350q22 44 22 74q0 17 -19 29t-47 17t-46 6.5t-30 1.5q-7 7 -7.5 35.5t5.5 38.5q105 -14 210 -14q103 0 208 14q6 -8 6 -36q1 -1 1 -3 q0 -25 -7 -35q-20 0 -47.5 -3.5t-64.5 -20t-50 -42.5q-204 -433 -330 -696q-11 -24 -40 -86t-41.5 -86.5t-38.5 -67t-56 -79.5q-134 -167 -254 -167q-60 0 -97 31.5t-37 74.5q0 62 46 94q129 0 200.5 30t129.5 126q30 51 70 142l-332 674q-17 39 -59.5 57.5t-66.5 18.5 q-8 12 -8 36q0 27 8 38z" />
<glyph unicode="z" horiz-adv-x="920" d="M58 34q0 18 8 34l448 694q-144 2 -208 2q-29 0 -54 -14t-40.5 -31.5t-30.5 -47t-21.5 -48t-15.5 -47.5q-4 -14 -46 -14q-24 0 -24 8q27 146 36 298q118 -12 190 -12h276q127 0 258 16q6 -10 6 -48l-486 -732h228q82 0 138.5 65.5t71.5 136.5q3 14 26 14q10 0 22 -5t19 -9 t9 -6q-12 -35 -32 -107q-20 -73 -34 -127l-14 -54h-710q-20 16 -20 34z" />
<glyph unicode="{" horiz-adv-x="814" d="M265 314v52q170 97 143 234q-10 52 -68 207q-53 139 -50 284q5 273 173 406q47 37 72 6q29 -36 -7 -73q-131 -137 -124 -289q3 -52 70 -165q106 -174 70 -374q-32 -182 -171 -262q139 -80 171 -262q36 -200 -70 -374q-67 -113 -70 -165q-7 -152 124 -289q36 -37 7 -73 q-25 -31 -72 6q-168 133 -173 406q-3 145 50 284q58 155 68 207q27 137 -143 234z" />
<glyph unicode="|" horiz-adv-x="404" d="M148 -780q0 1 0.5 4.5t0.5 4.5v2215l2 11q4 3 8 5q34 10 78 10q17 -1 16 -12l2 -2215q0 -11 -89 -29q-5 -1 -7 -1q-10 0 -11 7z" />
<glyph unicode="}" horiz-adv-x="814" d="M265 78q32 182 171 262q-139 80 -171 262q-36 200 70 374q67 113 70 165q7 152 -124 289q-36 37 -7 73q25 31 72 -6q168 -133 173 -406q3 -145 -50 -284q-58 -155 -68 -207q-27 -137 143 -234v-52q-170 -97 -143 -234q10 -52 68 -207q53 -139 50 -284q-5 -273 -173 -406 q-47 -37 -72 -6q-29 36 7 73q131 137 124 289q-3 52 -70 165q-106 174 -70 374z" />
<glyph unicode="~" horiz-adv-x="1100" d="M96 534q0 62 80 130t166 68q43 0 94 -12.5t76 -22.5t78 -33q4 -1 25.5 -10.5t28.5 -12t27.5 -10.5t31 -11t29.5 -8.5t32.5 -7.5t31.5 -4t34 -2q52 0 100 31t72 63q11 -4 14 -16q0 -62 -80 -130t-166 -68q-23 0 -47.5 3.5t-42 7.5t-44.5 13t-38.5 13.5t-40.5 16.5t-35 14 q-5 2 -34.5 14t-40 16t-37 13t-43 12.5t-40 7t-45.5 3.5q-52 0 -100 -31t-72 -63q-11 4 -14 16z" />
<glyph unicode="&#xa1;" horiz-adv-x="494" d="M98 738q0 60 43.5 104t104.5 44q63 0 107.5 -45t44.5 -109q0 -60 -44 -103t-106 -43t-106 45.5t-44 106.5zM116 -284q0 40 31.5 302.5t52.5 403.5q13 43 40 52q8 0 23 -10t23 -24q20 -122 53 -389.5t33 -336.5q0 -61 -38 -97.5t-94 -36.5q-50 0 -87 37t-37 99z" />
<glyph unicode="&#xa2;" horiz-adv-x="964" d="M88 400q0 90 43 180t114 159.5t167.5 113t197.5 43.5q74 0 127.5 -11.5t74.5 -24.5q40 -44 40 -96q0 -47 -32.5 -85.5t-83.5 -38.5q-15 0 -29 5t-28 17t-22 20t-22 25.5t-19 22.5q-55 62 -136 62q-42 0 -75 -44t-49 -106.5t-16 -125.5q0 -100 26.5 -174.5t70 -114.5 t91.5 -58.5t100 -18.5q133 0 224 100q10 -3 17 -14.5t7 -21.5q0 -29 -6 -38q-16 -25 -46 -54.5t-76 -62.5t-109.5 -55t-130.5 -22q-113 0 -208 49t-153.5 145.5t-58.5 223.5zM396 -58l166 1020q70 0 70 -16l-166 -1022q-18 0 -42 5t-28 13z" />
<glyph unicode="&#xa3;" horiz-adv-x="956" d="M93 32q0 16 7 34.5t20.5 37t24.5 31.5t27.5 31t20.5 22q35 39 51.5 116t16.5 160q0 51 -26 150h-140q-9 9 9 46.5t31 37.5h78q-14 55 -14 70q0 98 41.5 193t105 162t140.5 108t147 41q47 0 76.5 -11t65.5 -33q6 -6 12 -27.5t6 -36.5q0 -53 -28 -85.5t-70 -32.5 q-38 0 -60 13t-42 39q-16 20 -25.5 30.5t-26.5 21t-34 10.5q-29 0 -49 -17.5t-30.5 -52t-14.5 -75.5t-4 -97q0 -78 40 -189q6 -16 11 -31h307q14 -12 10 -30t-13.5 -33.5t-16.5 -20.5h-264q6 -28 6 -48q0 -100 -46 -188t-96 -134q54 30 130 30q35 0 113 -43t133 -43 q27 0 48 9t36.5 28.5t21 28t16.5 28.5q6 3 16 -1.5t16 -12.5q10 -12 10 -38q-10 -30 -30.5 -66.5t-53.5 -79.5t-82 -71.5t-104 -28.5q-45 0 -89.5 18.5t-75 40.5t-77.5 40.5t-96 18.5q-18 0 -42.5 -14.5t-40.5 -29t-41 -40.5t-30 -30q-12 0 -22 15t-10 29z" />
<glyph unicode="&#xa4;" horiz-adv-x="1126" d="M146 308l108 102q-60 95 -60 204q0 131 76 232l-104 112q-8 8 4.5 25t36.5 33.5t47 23.5l104 -110q90 62 204 62q126 0 224 -82l118 110q8 8 25 -4.5t33.5 -36.5t23.5 -47l-120 -112q58 -97 58 -206q0 -119 -66 -216l108 -116q8 -8 -4.5 -25t-36.5 -33.5t-47 -23.5 l-104 110q-95 -70 -212 -70q-129 0 -228 80l-106 -100q-8 -8 -25 4.5t-33.5 36.5t-23.5 47zM380 638q0 -135 58 -226.5t138 -91.5q73 0 117.5 76.5t44.5 191.5q0 137 -55.5 230.5t-134.5 93.5q-74 0 -121 -79.5t-47 -194.5z" />
<glyph unicode="&#xa5;" horiz-adv-x="1384" d="M56.5 1250q0.5 27 6.5 36q137 -14 286 -14q145 0 282 14q6 -9 6.5 -36t-6.5 -38q-1 0 -11 -0.5t-15 -1t-17 -2t-19 -3.5t-17.5 -4.5t-17 -6.5t-13 -9t-9.5 -12t-3 -15t14 -32l240 -442q7 -7 85.5 131.5t166.5 302.5q10 20 10 46q0 37 -148 48q-7 11 -6.5 38t6.5 36 q165 -14 226 -14q51 0 124.5 6.5t99.5 7.5q6 -9 6.5 -36t-6.5 -38l-13 -1q-12 -1 -17.5 -1.5t-19.5 -2t-23 -4t-21.5 -6t-21.5 -8.5t-18 -12t-14 -15q-45 -66 -187 -298t-178 -308q-3 -7 -5 -14h188q14 -12 10 -30t-13.5 -33.5t-16.5 -20.5h-173v-76h193q14 -12 10 -30 t-13.5 -33.5t-16.5 -20.5h-174v-8q-2 -144 16 -188q10 -27 128 -36q7 -11 6.5 -38t-6.5 -36q-137 14 -286 14q-145 0 -282 -14q-6 9 -6.5 36t6.5 38q118 9 128 36q3 7 5 14t3.5 16.5t2.5 16.5t2 20t1.5 20t0.5 23.5t0.5 23.5t0.5 27v27v8h-198q-9 9 9 46.5t31 37.5h158v76 h-198q-9 9 9 46.5t31 37.5h156q-1 8 -5 18q-18 42 -82 161t-118 217l-55 98q-33 62 -62 110q-19 32 -61 47.5t-75 18.5q-7 11 -6.5 38z" />
<glyph unicode="&#xa6;" horiz-adv-x="420" d="M148.5 464.5q-0.5 1.5 0 6t0.5 5.5v968q-2 12 10 16q34 10 80 10q8 0 12 -3t4 -6v-3v-968q-1 -10 -43 -20t-53 -10q-5 0 -7.5 1.5t-3 3zM148.5 -775.5q0.5 4.5 0.5 5.5v958q-2 12 10 16q34 10 80 10q8 0 12 -3t4 -6v-3v-958q-1 -10 -43 -20t-53 -10q-5 0 -7.5 1.5t-3 3 t0 6z" />
<glyph unicode="&#xa7;" horiz-adv-x="934" d="M72 754q0 -39 7.5 -75t16.5 -63t31.5 -60.5t35 -51.5t47 -52.5t47.5 -47t55 -50.5q256 -234 256 -330q0 -52 -48.5 -80t-103.5 -28q-50 0 -72 22q-44 44 -86 44q-41 0 -60.5 -24.5t-19.5 -61.5q0 -28 14 -52q56 -28 100 -28q162 0 277 104l13 13v-1q31 21 76.5 68.5 t92 108.5t79 132.5t32.5 126.5q0 39 -7.5 75t-16.5 63t-31.5 60.5t-35 51.5t-47 52.5t-47.5 47t-55 50.5q-256 234 -256 330q0 52 48.5 80t103.5 28q49 0 78 -26q45 -40 82 -40q78 0 78 80q0 32 -14 60q-61 26 -100 26q-162 0 -277 -104l-13 -13v1q-31 -21 -76.5 -68.5 t-92 -108.5t-79 -132.5t-32.5 -126.5zM214 862q0 61 16 96q8 16 21 35q-1 -11 -1 -21q0 -33 12.5 -67t28 -59t46.5 -58.5t50 -51.5t57 -51.5t50 -44.5q41 -38 66 -62.5t59 -65.5t53.5 -76t33.5 -81.5t14 -94.5q0 -60 -18 -98q-7 -15 -19 -33q1 11 1 21q0 33 -12.5 67t-28 59 t-46.5 58.5t-50 51.5t-57 51.5t-50 44.5q-41 38 -66 62.5t-59 65.5t-53.5 76t-33.5 81.5t-14 94.5z" />
<glyph unicode="&#xa8;" horiz-adv-x="814" d="M76 1028q0 57 41.5 97.5t98.5 40.5t97.5 -40.5t40.5 -97.5t-40.5 -98.5t-97.5 -41.5t-98.5 41.5t-41.5 98.5zM454 1028q0 57 40.5 97.5t97.5 40.5t98.5 -40.5t41.5 -97.5t-41.5 -98.5t-98.5 -41.5t-97.5 41.5t-40.5 98.5z" />
<glyph unicode="&#xa9;" horiz-adv-x="1306" d="M106 622q0 226 160 386t386 160q149 0 275 -73t199.5 -199t73.5 -274t-73.5 -274t-199.5 -199t-275 -73q-226 0 -386 160t-160 386zM196 620q0 -189 133.5 -322.5t322.5 -133.5t322.5 133.5t133.5 322.5t-133.5 322.5t-322.5 133.5t-322.5 -133.5t-133.5 -322.5zM368 610 q0 130 88.5 215t209.5 85q24 0 54 -5t70 -15t50 -12q1 -3 8 -33t13.5 -58.5t6.5 -32.5q0 -3 -11 -7.5t-19 -4.5q-10 0 -12 2q-4 16 -11.5 32t-24 36.5t-47 33t-71.5 12.5q-55 0 -92.5 -36.5t-52.5 -88t-15 -113.5q0 -103 44 -173.5t126 -70.5q67 0 104 34q35 33 58 102 q30 0 38 -8q0 -12 -13 -67.5t-21 -58.5q-12 -4 -40 -15t-47 -18t-47.5 -13t-55.5 -6q-129 0 -209.5 77t-80.5 207z" />
<glyph unicode="&#xaa;" horiz-adv-x="774" d="M86 660q0 37 23.5 69t52.5 43q202 75 268 98v20v36q0 52 -23.5 90t-60.5 38q-38 0 -54.5 -26.5t-29.5 -81.5q-15 -58 -82 -58q-31 0 -53.5 18t-22.5 46t20 58q25 25 110 64.5t168 39.5q91 0 154.5 -60t63.5 -150v-250q0 -25 10.5 -37.5t25.5 -12.5q9 0 19 4t18 9t9 5 q4 -1 9 -11.5t5 -16.5q0 -12 -8 -24q-25 -22 -70.5 -47t-85.5 -25q-35 0 -68 18.5t-44 43.5q-20 -15 -74.5 -39.5t-87.5 -24.5q-80 0 -136 51t-56 113zM282 674q1 -40 29 -61t61 -21q20 0 39 11.5t19 18.5v176q-77 -28 -98 -40q-50 -30 -50 -84z" />
<glyph unicode="&#xab;" horiz-adv-x="850" d="M70.5 341q0.5 135 73 252.5t196.5 178.5q50 24 73 -17t-13 -72q-170 -137 -170 -338.5t170 -347.5q35 -29 12 -71t-72 -18q-127 65 -199 181q-71 117 -70.5 252zM428.5 341q0.5 135 73 252.5t196.5 178.5q50 24 73 -17t-13 -72q-170 -137 -170 -338.5t170 -347.5 q35 -29 12 -71t-72 -18q-127 65 -199 181q-71 117 -70.5 252z" />
<glyph unicode="&#xac;" horiz-adv-x="1178" d="M92 744q10 96 30 96h918v-502q-1 -1 -20.5 -5.5t-48.5 -8.5t-49 -4q-9 0 -15.5 3t-8.5 7l-2 4v390h-792q-12 0 -12 20z" />
<glyph unicode="&#xad;" horiz-adv-x="748" d="M114 408q0 44 5 74.5t10 41t9 10.5h2l482 24h2q12 0 12 -18q0 -44 -6 -77q-8 -33 -14 -44l-6 -11l-482 -22h-4t-6 5.5t-4 16.5z" />
<glyph unicode="&#xae;" horiz-adv-x="1306" d="M106 724q0 226 160 386t386 160q149 0 275 -73t199.5 -199t73.5 -274t-73.5 -274t-199.5 -199t-275 -73q-226 0 -386 160t-160 386zM196 722q0 -189 133.5 -322.5t322.5 -133.5t322.5 133.5t133.5 322.5t-133.5 322.5t-322.5 133.5t-322.5 -133.5t-133.5 -322.5z M403 483.5q0 12.5 3 16.5q11 0 30 4.5t22 11.5q6 16 6 74v292q0 58 -6 74q-5 12 -52 12q-3 4 -3 17.5t3 16.5q36 -2 120 -2q15 0 56.5 1t67.5 1q79 0 131.5 -39.5t52.5 -108.5q0 -44 -42.5 -82t-79.5 -48q26 -35 57 -71.5t49 -56.5l18 -20q26 -30 54 -48t41 -22t19 -4 q1 -2 1.5 -7.5t-0.5 -11t-1 -10.5v-5q-48 -4 -90 -4q-44 0 -73.5 17.5t-58.5 54.5l-120 162q-8 12 -14 12h-12v-120q0 -58 6 -74q3 -7 22 -11.5t30 -4.5q3 -4 3 -16.5t-3 -15.5q-48 6 -116 6q-70 0 -118 -6q-3 3 -3 15.5zM582 748h32q40 0 68 27.5t28 72.5q0 50 -22.5 83 t-61.5 33q-36 0 -40 -8q-4 -10 -4 -50v-158z" />
<glyph unicode="&#xaf;" horiz-adv-x="938" d="M1124 1112q0 5 1 15t3 27t7 28.5t13 11.5h430q10 0 10 -14q0 -29 -12 -72q-2 -5 -6 -8.5t-6 -4.5l-2 -1h-426h-3t-5.5 4.5t-3.5 13.5z" />
<glyph unicode="&#xb0;" horiz-adv-x="580" d="M68 1074q0 91 65 155.5t157 64.5t157 -64.5t65 -155.5q0 -92 -65.5 -158t-156.5 -66t-156.5 66t-65.5 158zM162 1074q0 -54 37 -93t91 -39t92 39t38 93t-38 92t-92 38t-91 -38t-37 -92z" />
<glyph unicode="&#xb1;" horiz-adv-x="1164" d="M100 50q0 12 6 40.5t16 43.5h922q8 0 13 -9t5 -19q0 -50 -30 -88h-920q-12 0 -12 32zM100 644q0 12 6 40.5t16 43.5h398v398q14 11 42 16.5t42 5.5q32 0 32 -18v-402h408q8 0 13 -9t5 -19q0 -50 -30 -88h-396v-396q-33 -22 -94 -22q-9 0 -15.5 5t-6.5 11v402h-408 q-12 0 -12 32z" />
<glyph unicode="&#xb2;" horiz-adv-x="704" d="M76 536q136 150 238 282q51 66 72.5 120t21.5 112t-37.5 93t-90.5 35q-30 0 -58 -14.5t-42 -30t-28 -34.5l-14 -19q-5 0 -11.5 1.5t-13.5 8.5t-7 18q10 21 31 47.5t54 57t79.5 51t95.5 20.5q108 0 170 -53.5t62 -154.5q0 -73 -44.5 -138t-117.5 -132q-102 -92 -190 -156 h224q14 0 27 6t21 12t17.5 21t13 22t12 26.5t9.5 22.5q3 10 22 10t28 -6q-9 -39 -38.5 -137t-37.5 -119h-454q-7 7 -14 28z" />
<glyph unicode="&#xb3;" horiz-adv-x="676" d="M72 586q0 25 17.5 47.5t46.5 22.5q40 0 80 -62q14 -23 39.5 -36.5t50.5 -13.5q58 0 90 41.5t32 122.5q0 71 -42 124.5t-102 53.5q-44 0 -64 -6q-12 18 -12 30q0 16 4 24q27 4 54.5 12t57 24t48 43.5t18.5 62.5q0 50 -33 83t-87 33q-30 0 -60.5 -15.5t-45.5 -28.5t-22 -22 q-10 2 -20.5 11.5t-7.5 22.5q37 49 106.5 86.5t137.5 37.5q67 0 129.5 -43t62.5 -125q0 -43 -16 -75t-41.5 -49.5t-46.5 -25.5t-42 -12q14 -1 36.5 -7t52.5 -21.5t55 -37t42.5 -57t17.5 -77.5q0 -64 -32.5 -116t-85 -83.5t-113 -48t-121.5 -16.5q-56 0 -101 12.5t-65 29.5 q-18 27 -18 54z" />
<glyph unicode="&#xb4;" horiz-adv-x="472" d="M56 1080q0 5 30.5 54.5t76 116t79.5 105.5q18 18 68 18q46 0 69 -20t23 -38q0 -35 -74.5 -102.5t-150 -118.5t-87.5 -51q-10 0 -22 13.5t-12 22.5z" />
<glyph unicode="&#xb5;" horiz-adv-x="1022" d="M294 -350q0 49 17 348.5t33 433.5q0 24 -16 164.5t-16 163.5q0 64 6 88q16 44 50 44q20 0 89 -31.5t69 -48.5q0 -65 -28 -196q-9 -46 -22.5 -106t-15.5 -70q5 -35 15.5 -68.5t28.5 -67.5t47 -55t65 -21q88 0 158 64t70 142q-14 112 -14 224q0 34 -4 186q30 48 60 48 q20 0 92 -31.5t72 -48.5q0 -22 -5.5 -55.5t-11.5 -57.5t-18.5 -70.5t-16.5 -64.5q-8 -32 -23.5 -87t-24.5 -87q-1 -58 9.5 -97t28.5 -56t33.5 -23t32.5 -6q27 0 50 10.5t41 31t26.5 32.5t20.5 32q8 0 20 -21t16 -35q4 -16 -4 -40q-75 -226 -162 -226q-46 1 -83 38t-58.5 92 t-30.5 122q-32 -114 -92.5 -187t-139.5 -73q-71 0 -137 95.5t-79 194.5q1 -7 5 -93.5t9 -177.5t17 -209.5t27 -199.5q-9 -15 -34.5 -31.5t-49.5 -16.5q-27 0 -74.5 42t-47.5 62z" />
<glyph unicode="&#xb6;" horiz-adv-x="1058" d="M66 938q0 80 25 144.5t64.5 105t91.5 67.5t103.5 38t103.5 11q59 0 108 -4t108 -4q60 0 120 3t90 5l30 2q7 -8 6.5 -38.5t-8.5 -35.5q-25 0 -55 -11.5t-37 -28.5q-6 -21 -6 -128v-376q4 -1 29 5.5t47 13.5l22 7q8 0 8 -20q-2 -15 -19 -43.5t-27 -32.5q-37 -17 -62 -20 v-364q0 -86 10 -114q9 -24 64 -38t82 -14q8 -13 8 -38.5t-4 -37.5q-252 14 -312 14q-54 0 -110 -2.5t-118 -6.5t-84 -5q-5 8 -5.5 26.5t1.5 33t4 14.5q29 0 79.5 14.5t60.5 37.5q12 26 12 114v342q-197 0 -313.5 94t-116.5 270zM596 236q0 -104 10 -132q3 -10 46 -10 q40 0 44 8q12 26 12 122v360q-8 -1 -32 -2.5t-45 -3l-35 -2.5v-340zM596 666q18 0 63.5 3t50.5 7v520q-10 10 -58 10q-44 0 -56 -12v-528z" />
<glyph unicode="&#xb7;" horiz-adv-x="482" d="M94 530q0 60 43.5 103t104.5 43q60 0 103 -43t43 -103q0 -61 -41.5 -106.5t-100.5 -45.5q-62 0 -107 45.5t-45 106.5z" />
<glyph unicode="&#xb8;" horiz-adv-x="908" d="M312 -240q0 14 6 14q60 -30 96 -30q47 0 67.5 17.5t20.5 42.5q0 26 -12 46t-40 20q-17 0 -52 -14q-5 0 -15.5 11t-10.5 19q36 60 56 110h64q-16 -28 -26 -46q32 4 44 4q40 0 70 -29.5t30 -68.5q0 -73 -52.5 -120.5t-141.5 -47.5q-30 0 -57 10t-39 22q-8 12 -8 40z" />
<glyph unicode="&#xb9;" horiz-adv-x="582" d="M78 1124q0 12 2 14q62 26 140 62.5t124.5 59t47.5 22.5h2q5 0 17.5 -17t14.5 -23q-24 -88 -24 -170v-380q0 -90 20 -110q10 -12 44.5 -19t49.5 -7q3 0 2.5 -25t-2.5 -27q-192 8 -200 8q-12 0 -204 -8q-4 4 -4 28t4 24q16 0 51.5 8.5t44.5 19.5q7 8 13.5 49t6.5 61v328 q0 41 -10 67.5t-28 26.5q-20 0 -90 -32q-7 1 -14.5 14.5t-7.5 25.5z" />
<glyph unicode="&#xba;" horiz-adv-x="812" d="M70 800q0 127 97 216.5t237 89.5q147 0 242.5 -84.5t95.5 -211.5t-97.5 -217.5t-238.5 -90.5q-147 0 -241.5 85.5t-94.5 212.5zM274 826q0 -63 14 -120t49 -99.5t85 -42.5q38 0 62.5 19.5t35.5 54.5t14.5 67t3.5 75q0 63 -14.5 121t-50 101.5t-85.5 43.5q-26 0 -45.5 -9 t-31.5 -27t-20 -37.5t-11.5 -47t-4.5 -49.5t-1 -50z" />
<glyph unicode="&#xbb;" horiz-adv-x="850" d="M78.5 754.5q22.5 42.5 73.5 17.5q125 -62 197.5 -179.5t72 -252.5t-72 -251.5t-197.5 -180.5q-48 -24 -72 17t12 72q171 148 170.5 349t-170.5 337q-36 29 -13.5 71.5zM436.5 754q22.5 42 73.5 18q125 -62 197.5 -179.5t72 -252.5t-72 -251.5t-197.5 -180.5 q-48 -24 -72 17t12 72q171 148 170.5 349t-170.5 337q-36 29 -13.5 71z" />
<glyph unicode="&#xbc;" horiz-adv-x="1474" d="M66 1138q62 26 140.5 62.5t125.5 59t48 22.5q30 -34 32 -40q-24 -88 -24 -170v-380q0 -90 20 -110q10 -12 44.5 -19t49.5 -7q3 0 2.5 -25t-2.5 -27q-192 8 -200 8q-12 0 -204 -8q-4 4 -4 28t4 24q16 0 51.5 8.5t44.5 19.5q7 8 13.5 49t6.5 61v328q0 41 -10 67.5t-28 26.5 q-20 0 -90 -32q-7 1 -14.5 26.5t-5.5 27.5zM404 -50l690 1376q20 30 72 42q13 3 23.5 -1.5t12.5 -12.5l-690 -1376q-5 -11 -27.5 -25.5t-46.5 -20.5q-13 -3 -21.5 1.5t-10.5 10.5zM824 218q35 42 438 538q13 16 26 16q8 0 24 -12.5t16 -25.5v-458h50q39 -36 20 -92h-70v-180 q-40 -10 -94 -10q-80 0 -80 16v174h-306q-9 3 -16.5 13t-7.5 21zM950 276h1h1h1h1h1h1h1h1h1h1h1h1h1h1h1h1h1h1h1h1h1h1h1h1h1h1h1h1h1h1h1h1h1h1h1h1h1h1h1h1h1h1h1h1h1h1h1h1h1h1h1h1h1h1h1h1h1h1h1h1h1h1h1h1h1h1h1h1h1h1h1h1h1h1h1h1h1h1h2h1h1h1h1h1h1h1h1h1h1h1h1h1 h1h1h2h1h1h1h1h1h1h1h1h1h2h1h1h1h1h1h1h1h1h2h1h1h1h1h1h1h1h2h1h1h1h1h1h1h1h2h1h1h1h1h1h1h2h1h1h1h1h1h1h2h1h1h1h1h1h1h1h2h1h1h1h1h1h1h2h1h1h1h1h1h1h1h1h2h1h1h1h1h1h1h1h1h1h1h2h1h1h1h1h9v248q-25 -30 -109.5 -133t-94.5 -115z" />
<glyph unicode="&#xbd;" horiz-adv-x="1496" d="M69 1138q62 26 140.5 62.5t125.5 59t48 22.5q28 -28 32 -40q-24 -88 -24 -170v-380q0 -90 20 -110q10 -12 44.5 -19t49.5 -7q3 0 2.5 -25t-2.5 -27q-192 8 -200 8q-12 0 -204 -8q-5 4 -5 28t5 24q16 0 51.5 8.5t44.5 19.5q7 8 13.5 49t6.5 61v328q0 41 -10 67.5t-28 26.5 q-20 0 -90 -32q-7 1 -15 22t-5 32zM363 -50l690 1376q20 30 72 42q13 3 23.5 -1.5t12.5 -12.5l-690 -1376q-5 -11 -27.5 -25.5t-46.5 -20.5q-13 -3 -21.5 1.5t-10.5 10.5zM885 24q136 150 238 282q51 66 72.5 120t21.5 112t-37.5 93t-90.5 35q-30 0 -58 -14.5t-42 -30 t-28 -34.5l-14 -19q-5 0 -11.5 1.5t-13.5 8.5t-7 18q10 21 31 47.5t54 57t79.5 51t95.5 20.5q108 0 170 -53.5t62 -154.5q0 -73 -44.5 -138t-117.5 -132q-102 -92 -190 -156h224q14 0 27 6t21 12t17.5 21t13 22t12 26.5t9.5 22.5q3 10 22 10t28 -6q-9 -39 -38.5 -137 t-37.5 -119h-454q-7 7 -14 28z" />
<glyph unicode="&#xbe;" horiz-adv-x="1480" d="M68 586q0 25 17.5 47.5t46.5 22.5q40 0 80 -62q14 -23 39.5 -36.5t50.5 -13.5q58 0 90 41.5t32 122.5q0 71 -42 124.5t-102 53.5q-44 0 -64 -6q-12 18 -12 30q0 16 4 24q27 4 54.5 12t57 24t48 43.5t18.5 62.5q0 50 -33 83t-87 33q-30 0 -60.5 -15.5t-45.5 -28.5t-22 -22 q-10 2 -20.5 11.5t-7.5 22.5q37 49 106.5 86.5t137.5 37.5q67 0 129.5 -43t62.5 -125q0 -43 -16 -75t-41.5 -49.5t-46.5 -25.5t-42 -12q14 -1 36.5 -7t52.5 -21.5t55 -37t42.5 -57t17.5 -77.5q0 -64 -32.5 -116t-85 -83.5t-113 -48t-121.5 -16.5q-56 0 -101 12.5t-65 29.5 q-18 27 -18 54zM430 -50l690 1376q20 30 72 42q13 3 23.5 -1.5t12.5 -12.5l-690 -1376q-5 -11 -27.5 -25.5t-46.5 -20.5q-13 -3 -21.5 1.5t-10.5 10.5zM830 218q35 42 438 538q13 16 26 16q8 0 24 -12.5t16 -25.5v-458h50q39 -36 20 -92h-70v-180q-40 -10 -94 -10 q-80 0 -80 16v174h-306q-9 3 -16.5 13t-7.5 21zM956 276h1h1h1h1h1h1h1h1h1h1h1h1h1h1h1h1h1h1h1h1h1h1h1h1h1h1h1h1h1h1h1h1h1h1h1h1h1h1h1h1h1h1h1h1h1h1h1h1h1h1h1h1h1h1h1h1h1h1h1h1h1h1h1h1h1h1h1h1h1h1h1h1h1h1h1h1h1h1h2h1h1h1h1h1h1h1h1h1h1h1h1h1h1h1h2h1h1h1h1h1 h1h1h1h1h2h1h1h1h1h1h1h1h1h2h1h1h1h1h1h1h1h2h1h1h1h1h1h1h1h2h1h1h1h1h1h1h2h1h1h1h1h1h1h2h1h1h1h1h1h1h1h2h1h1h1h1h1h1h2h1h1h1h1h1h1h1h1h2h1h1h1h1h1h1h1h1h1h1h2h1h1h1h1h9v248q-25 -30 -109.5 -133t-94.5 -115z" />
<glyph unicode="&#xbf;" horiz-adv-x="776" d="M64 -76q0 32 7 61.5t16.5 51.5t29 45.5t33 37.5t41 34t40.5 28t44.5 27t40.5 25q11 7 42 25.5t48.5 29.5t39.5 29.5t34 35.5q4 6 6.5 14t3 18.5t1 18.5t0 19t-0.5 14q3 10 13 23t17 13q22 0 46 -24q14 -31 27 -88.5t13 -111.5q0 -41 -13.5 -76.5t-40.5 -64t-49.5 -46.5 t-56.5 -41q-212 -140 -212 -220q0 -36 29 -66t79 -30q24 0 53 19.5t52.5 42.5t55 42.5t59.5 19.5q55 0 89.5 -40t34.5 -92q0 -25 -9.5 -54t-20.5 -38q-60 -34 -180 -34q-32 0 -78 9.5t-105.5 35t-109.5 63t-84.5 101.5t-34.5 143zM366 734q0 62 41.5 108t100.5 46 q58 0 105 -44.5t47 -109.5q0 -62 -43 -104t-101 -42q-63 0 -106.5 42.5t-43.5 103.5z" />
<glyph unicode="&#xc0;" horiz-adv-x="1350" d="M-26 22.5q-2 24.5 4 41.5q22 0 74 21t66 43q34 56 70 140l426 980q10 22 34.5 49t39.5 27q13 0 26 -4.5t16 -9.5l410 -1014q14 -33 31 -78.5t25 -65.5q12 -28 36 -47.5t51 -26.5t43 -9.5t28 -2.5q7 -13 8.5 -40.5t-4.5 -33.5q-18 1 -117 8.5t-151 7.5q-41 0 -97 -3 t-121 -7.5t-84 -5.5q-8 8 -8 41t8 33q29 0 63.5 9.5t54.5 26.5q18 15 18 34q0 8 -30 84t-60 148l-30 72q-8 8 -14 8q-38 2 -192 2q-138 0 -208 -2q-9 0 -14 -10q-50 -112 -72 -168q-44 -110 -44 -136q0 -18 21.5 -32.5t50 -21.5t51 -10.5t31.5 -3.5q8 -12 7.5 -39.5 t-5.5 -34.5q-140 16 -216 16q-78 0 -218 -16q-6 6 -8 30.5zM378 1662q0 37 38 56.5t74 19.5q20 0 36 -8q65 -50 152.5 -136.5t87.5 -97.5q0 -10 -9 -25t-19 -15q-17 0 -103.5 35t-171.5 86.5t-85 84.5zM420 560q0 -8 4 -8q60 -6 166 -6q98 0 160 4q2 0 4 2q2 4 2 6v2 l-166 392z" />
<glyph unicode="&#xc1;" horiz-adv-x="1350" d="M-26 22.5q-2 24.5 4 41.5q22 0 74 21t66 43q34 56 70 140l426 980q10 22 34.5 49t39.5 27q13 0 26 -4.5t16 -9.5l410 -1014q14 -33 31 -78.5t25 -65.5q12 -28 36 -47.5t51 -26.5t43 -9.5t28 -2.5q7 -13 8.5 -40.5t-4.5 -33.5q-18 1 -117 8.5t-151 7.5q-41 0 -97 -3 t-121 -7.5t-84 -5.5q-8 8 -8 41t8 33q29 0 63.5 9.5t54.5 26.5q18 15 18 34q0 8 -30 84t-60 148l-30 72q-8 8 -14 8q-38 2 -192 2q-138 0 -208 -2q-9 0 -14 -10q-50 -112 -72 -168q-44 -110 -44 -136q0 -18 21.5 -32.5t50 -21.5t51 -10.5t31.5 -3.5q8 -12 7.5 -39.5 t-5.5 -34.5q-140 16 -216 16q-78 0 -218 -16q-6 6 -8 30.5zM420 560q0 -8 4 -8q60 -6 166 -6q98 0 160 4q2 0 4 2q2 4 2 6v2l-166 392zM578 1496q0 11 87.5 97.5t152.5 136.5q16 8 36 8q36 0 74 -19.5t38 -56.5q0 -33 -85 -84.5t-171.5 -86.5t-103.5 -35q-10 0 -19 15t-9 25 z" />
<glyph unicode="&#xc2;" horiz-adv-x="1350" d="M-26 22.5q-2 24.5 4 41.5q22 0 74 21t66 43q34 56 70 140l426 980q10 22 34.5 49t39.5 27q13 0 26 -4.5t16 -9.5l410 -1014q14 -33 31 -78.5t25 -65.5q12 -28 36 -47.5t51 -26.5t43 -9.5t28 -2.5q7 -13 8.5 -40.5t-4.5 -33.5q-18 1 -117 8.5t-151 7.5q-41 0 -97 -3 t-121 -7.5t-84 -5.5q-8 8 -8 41t8 33q29 0 63.5 9.5t54.5 26.5q18 15 18 34q0 8 -30 84t-60 148l-30 72q-8 8 -14 8q-38 2 -192 2q-138 0 -208 -2q-9 0 -14 -10q-50 -112 -72 -168q-44 -110 -44 -136q0 -18 21.5 -32.5t50 -21.5t51 -10.5t31.5 -3.5q8 -12 7.5 -39.5 t-5.5 -34.5q-140 16 -216 16q-78 0 -218 -16q-6 6 -8 30.5zM420 560q0 -8 4 -8q60 -6 166 -6q98 0 160 4q2 0 4 2q2 4 2 6v2l-166 392zM436 1494q22 16 144 130q41 37 90 96q17 20 26 20q6 0 26 -20q48 -52 84 -88q112 -109 150 -138q0 -27 -20 -34q-20 5 -108 48.5 t-132 71.5q-44 -29 -130 -71.5t-110 -48.5q-20 10 -20 34z" />
<glyph unicode="&#xc3;" horiz-adv-x="1350" d="M-26 22.5q-2 24.5 4 41.5q22 0 74 21t66 43q34 56 70 140l426 980q10 22 34.5 49t39.5 27q13 0 26 -4.5t16 -9.5l410 -1014q14 -33 31 -78.5t25 -65.5q12 -28 36 -47.5t51 -26.5t43 -9.5t28 -2.5q7 -13 8.5 -40.5t-4.5 -33.5q-18 1 -117 8.5t-151 7.5q-41 0 -97 -3 t-121 -7.5t-84 -5.5q-8 8 -8 41t8 33q29 0 63.5 9.5t54.5 26.5q18 15 18 34q0 8 -30 84t-60 148l-30 72q-8 8 -14 8q-38 2 -192 2q-138 0 -208 -2q-9 0 -14 -10q-50 -112 -72 -168q-44 -110 -44 -136q0 -18 21.5 -32.5t50 -21.5t51 -10.5t31.5 -3.5q8 -12 7.5 -39.5 t-5.5 -34.5q-140 16 -216 16q-78 0 -218 -16q-6 6 -8 30.5zM326 1516q0 45 38 96q77 96 186 96q35 0 69 -9.5t55 -19.5t56 -29q116 -64 166 -64q37 0 69.5 15t50.5 32.5t33.5 35t20.5 19.5q7 0 11.5 -9.5t4.5 -18.5q0 -45 -38 -96q-79 -98 -186 -98q-35 0 -69 9.5t-55 19.5 t-56 29q-5 3 -24 13.5t-25.5 14t-22.5 11.5t-25 11.5t-22 8t-24.5 6t-22.5 1.5q-37 0 -69.5 -15t-50.5 -33t-33.5 -36t-20.5 -20q-7 0 -11.5 10.5t-4.5 19.5zM420 560q0 -8 4 -8q60 -6 166 -6q98 0 160 4q2 0 4 2q2 4 2 6v2l-166 392z" />
<glyph unicode="&#xc4;" horiz-adv-x="1350" d="M-26 22.5q-2 24.5 4 41.5q22 0 74 21t66 43q34 56 70 140l426 980q10 22 34.5 49t39.5 27q13 0 26 -4.5t16 -9.5l410 -1014q14 -33 31 -78.5t25 -65.5q12 -28 36 -47.5t51 -26.5t43 -9.5t28 -2.5q7 -13 8.5 -40.5t-4.5 -33.5q-18 1 -117 8.5t-151 7.5q-41 0 -97 -3 t-121 -7.5t-84 -5.5q-8 8 -8 41t8 33q29 0 63.5 9.5t54.5 26.5q18 15 18 34q0 8 -30 84t-60 148l-30 72q-8 8 -14 8q-38 2 -192 2q-138 0 -208 -2q-9 0 -14 -10q-50 -112 -72 -168q-44 -110 -44 -136q0 -18 21.5 -32.5t50 -21.5t51 -10.5t31.5 -3.5q8 -12 7.5 -39.5 t-5.5 -34.5q-140 16 -216 16q-78 0 -218 -16q-6 6 -8 30.5zM342 1594q0 57 38.5 95.5t95.5 38.5t96.5 -38.5t39.5 -95.5t-39.5 -96.5t-96.5 -39.5t-95.5 39.5t-38.5 96.5zM420 560q0 -8 4 -8q60 -6 166 -6q98 0 160 4q2 0 4 2q2 4 2 6v2l-166 392zM752 1594q0 57 39.5 95.5 t96.5 38.5t96.5 -38.5t39.5 -95.5t-39.5 -96.5t-96.5 -39.5t-96.5 39.5t-39.5 96.5z" />
<glyph unicode="&#xc5;" horiz-adv-x="1350" d="M-26 22.5q-2 24.5 4 41.5q22 0 74 21t66 43q34 56 70 140l426 980q10 22 34.5 49t39.5 27q13 0 26 -4.5t16 -9.5l410 -1014q14 -33 31 -78.5t25 -65.5q12 -28 36 -47.5t51 -26.5t43 -9.5t28 -2.5q7 -13 8.5 -40.5t-4.5 -33.5q-18 1 -117 8.5t-151 7.5q-41 0 -97 -3 t-121 -7.5t-84 -5.5q-8 8 -8 41t8 33q29 0 63.5 9.5t54.5 26.5q18 15 18 34q0 8 -30 84t-60 148l-30 72q-8 8 -14 8q-38 2 -192 2q-138 0 -208 -2q-9 0 -14 -10q-50 -112 -72 -168q-44 -110 -44 -136q0 -18 21.5 -32.5t50 -21.5t51 -10.5t31.5 -3.5q8 -12 7.5 -39.5 t-5.5 -34.5q-140 16 -216 16q-78 0 -218 -16q-6 6 -8 30.5zM420 560q0 -8 4 -8q60 -6 166 -6q98 0 160 4q2 0 4 2q2 4 2 6v2l-166 392zM500 1518q0 81 58.5 138.5t139.5 57.5t138.5 -57.5t57.5 -138.5t-57.5 -139.5t-138.5 -58.5t-139.5 58.5t-58.5 139.5zM592 1518 q0 -45 30.5 -76.5t75.5 -31.5t75.5 31.5t30.5 76.5t-30.5 76.5t-75.5 31.5t-75.5 -31.5t-30.5 -76.5z" />
<glyph unicode="&#xc6;" horiz-adv-x="1802" d="M-45.5 22.5q-0.5 23.5 7.5 41.5q23 0 80.5 21t75.5 43q50 61 98 140l588 940q0 4 -2 6q-3 6 -10 10.5t-17.5 7.5t-20.5 5.5t-23.5 4t-22 2t-20.5 1.5t-14 1q-7 11 -6.5 38t6.5 36q90 -6 286 -6q48 0 330.5 6.5t319.5 7.5q6 -45 16 -95t23.5 -112.5t18.5 -88.5 q-10 -10 -46 -10q-26 0 -32 16q-18 47 -35 79t-42.5 62.5t-60 45.5t-78.5 15h-166q-89 0 -100 -24q-10 -24 -10 -122v-358q0 -9 26 -15.5t60 -6.5h106q88 0 120 26t56 114q3 16 24 16q28 0 38 -10v-384q-8 -8 -36 -8q-25 0 -28 16q-26 102 -70 122q-34 14 -152 14 q-144 0 -144 -28v-310q0 -118 16 -158q8 -19 47 -29.5t83 -10.5h132q120 0 186 66q58 58 108 190q3 12 28 12q16 0 36 -4t24 -8q-4 -12 -23.5 -66t-28 -79t-22.5 -68t-22 -74.5t-12 -56.5q-412 0 -680 -1q-268 0 -296 -1q-6 9 -6.5 36t6.5 38q118 9 128 34q16 40 16 188v160 h-158q-126 0 -196 -2q-11 0 -16 -10q-78 -118 -110 -174q-64 -108 -68 -132q-3 -18 13.5 -32t41.5 -20.5t44.5 -10t28.5 -3.5q7 -10 7.5 -39t-5.5 -35q-136 16 -222 16q-74 0 -218 -16q-5 7 -5.5 30.5zM516 560q-2 -8 2 -8q60 -6 152 -6q94 0 148 4v490z" />
<glyph unicode="&#xc7;" horiz-adv-x="1348" d="M82 644q0 142 55 270t148 220t221 146t268 54q229 0 416 -38q0 -1 34 -144.5t34 -157.5q0 -9 -17 -19.5t-35 -10.5q-20 0 -28 8q-7 29 -20 59t-43.5 71t-70.5 71.5t-106 52.5t-146 22q-102 0 -179.5 -45t-122 -123t-66.5 -172.5t-22 -203.5q0 -121 25.5 -230.5 t75.5 -200.5t135 -145t194 -54q155 0 248 86q38 34 72.5 94.5t49 98.5t18.5 55q43 0 70 -24q0 -28 -31.5 -162t-50.5 -142q-87 -32 -133.5 -47t-132.5 -31t-172 -16q-186 0 -343.5 84.5t-251 236.5t-93.5 337zM630 -256q0 16 6 16q64 -32 102 -32q50 0 73 19t23 45 q0 70 -56 70q-18 0 -56 -14q-5 0 -16.5 12t-11.5 20q39 63 60 118h68q-18 -30 -28 -50q36 4 48 4q44 0 76 -31t32 -73q0 -77 -56.5 -128.5t-151.5 -51.5q-70 0 -104 34q-8 12 -8 42z" />
<glyph unicode="&#xc8;" horiz-adv-x="1204" d="M70.5 30q-0.5 27 6.5 38q118 9 128 34q16 40 16 188v736q0 148 -16 188q-9 23 -128 32q-7 11 -6.5 38t6.5 36q90 -6 286 -6q48 0 330.5 6.5t319.5 7.5q6 -45 16 -95t23.5 -112.5t18.5 -88.5q-10 -10 -46 -10q-26 0 -32 16q-18 47 -35 79t-42.5 62.5t-60 45.5t-78.5 15 h-166q-89 0 -100 -24q-10 -24 -10 -122v-358q0 -9 26.5 -15.5t59.5 -6.5h106q88 0 120 26t56 114q3 16 24 16q28 0 38 -10v-384q-8 -8 -36 -8q-25 0 -28 16q-26 102 -70 122q-34 14 -152 14q-144 0 -144 -28v-310q0 -118 16 -158q8 -19 47 -29.5t83 -10.5h132q120 0 186 66 q58 58 108 190q3 12 28 12q16 0 36 -4t24 -8q-4 -12 -23.5 -66t-28 -79t-22.5 -68t-22 -74.5t-12 -56.5q-898 0 -976 -2q-6 9 -6.5 36zM359 1662q0 37 38 56.5t74 19.5q20 0 36 -8q65 -50 152.5 -136.5t87.5 -97.5q0 -10 -9 -25t-19 -15q-17 0 -103.5 35t-171.5 86.5 t-85 84.5z" />
<glyph unicode="&#xc9;" horiz-adv-x="1204" d="M70.5 30q-0.5 27 6.5 38q118 9 128 34q16 40 16 188v736q0 148 -16 188q-9 23 -128 32q-7 11 -6.5 38t6.5 36q90 -6 286 -6q48 0 330.5 6.5t319.5 7.5q6 -45 16 -95t23.5 -112.5t18.5 -88.5q-10 -10 -46 -10q-26 0 -32 16q-18 47 -35 79t-42.5 62.5t-60 45.5t-78.5 15 h-166q-89 0 -100 -24q-10 -24 -10 -122v-358q0 -9 26.5 -15.5t59.5 -6.5h106q88 0 120 26t56 114q3 16 24 16q28 0 38 -10v-384q-8 -8 -36 -8q-25 0 -28 16q-26 102 -70 122q-34 14 -152 14q-144 0 -144 -28v-310q0 -118 16 -158q8 -19 47 -29.5t83 -10.5h132q120 0 186 66 q58 58 108 190q3 12 28 12q16 0 36 -4t24 -8q-4 -12 -23.5 -66t-28 -79t-22.5 -68t-22 -74.5t-12 -56.5q-898 0 -976 -2q-6 9 -6.5 36zM459 1496q0 11 87.5 97.5t152.5 136.5q16 8 36 8q36 0 74 -19.5t38 -56.5q0 -33 -85 -84.5t-171.5 -86.5t-103.5 -35q-10 0 -19 15t-9 25 z" />
<glyph unicode="&#xca;" horiz-adv-x="1204" d="M70.5 30q-0.5 27 6.5 38q118 9 128 34q16 40 16 188v736q0 148 -16 188q-9 23 -128 32q-7 11 -6.5 38t6.5 36q90 -6 286 -6q48 0 330.5 6.5t319.5 7.5q6 -45 16 -95t23.5 -112.5t18.5 -88.5q-10 -10 -46 -10q-26 0 -32 16q-18 47 -35 79t-42.5 62.5t-60 45.5t-78.5 15 h-166q-89 0 -100 -24q-10 -24 -10 -122v-358q0 -9 26.5 -15.5t59.5 -6.5h106q88 0 120 26t56 114q3 16 24 16q28 0 38 -10v-384q-8 -8 -36 -8q-25 0 -28 16q-26 102 -70 122q-34 14 -152 14q-144 0 -144 -28v-310q0 -118 16 -158q8 -19 47 -29.5t83 -10.5h132q120 0 186 66 q58 58 108 190q3 12 28 12q16 0 36 -4t24 -8q-4 -12 -23.5 -66t-28 -79t-22.5 -68t-22 -74.5t-12 -56.5q-898 0 -976 -2q-6 9 -6.5 36zM337 1494q22 16 144 130q41 37 90 96q17 20 26 20q6 0 26 -20q48 -52 84 -88q112 -109 150 -138q0 -27 -20 -34q-20 5 -108 48.5 t-132 71.5q-44 -29 -130 -71.5t-110 -48.5q-20 10 -20 34z" />
<glyph unicode="&#xcb;" horiz-adv-x="1204" d="M70.5 30q-0.5 27 6.5 38q118 9 128 34q16 40 16 188v736q0 148 -16 188q-9 23 -128 32q-7 11 -6.5 38t6.5 36q90 -6 286 -6q48 0 330.5 6.5t319.5 7.5q6 -45 16 -95t23.5 -112.5t18.5 -88.5q-10 -10 -46 -10q-26 0 -32 16q-18 47 -35 79t-42.5 62.5t-60 45.5t-78.5 15 h-166q-89 0 -100 -24q-10 -24 -10 -122v-358q0 -9 26.5 -15.5t59.5 -6.5h106q88 0 120 26t56 114q3 16 24 16q28 0 38 -10v-384q-8 -8 -36 -8q-25 0 -28 16q-26 102 -70 122q-34 14 -152 14q-144 0 -144 -28v-310q0 -118 16 -158q8 -19 47 -29.5t83 -10.5h132q120 0 186 66 q58 58 108 190q3 12 28 12q16 0 36 -4t24 -8q-4 -12 -23.5 -66t-28 -79t-22.5 -68t-22 -74.5t-12 -56.5q-898 0 -976 -2q-6 9 -6.5 36zM243 1594q0 57 38.5 95.5t95.5 38.5t96.5 -38.5t39.5 -95.5t-39.5 -96.5t-96.5 -39.5t-95.5 39.5t-38.5 96.5zM653 1594q0 57 39.5 95.5 t96.5 38.5t96.5 -38.5t39.5 -95.5t-39.5 -96.5t-96.5 -39.5t-96.5 39.5t-39.5 96.5z" />
<glyph unicode="&#xcc;" horiz-adv-x="720" d="M70.5 28q-0.5 27 6.5 38q118 9 128 36q16 40 16 188v736q0 148 -16 188q-10 27 -128 36q-7 11 -6.5 38t6.5 36q137 -14 286 -14q145 0 282 14q6 -9 6.5 -36t-6.5 -38q-118 -9 -128 -36q-16 -40 -16 -188v-736q0 -148 16 -188q10 -27 128 -36q7 -11 6.5 -38t-6.5 -36 q-137 14 -286 14q-145 0 -282 -14q-6 9 -6.5 36zM115 1662q0 37 38 56.5t74 19.5q20 0 36 -8q65 -50 152.5 -136.5t87.5 -97.5q0 -10 -9 -25t-19 -15q-17 0 -103.5 35t-171.5 86.5t-85 84.5z" />
<glyph unicode="&#xcd;" horiz-adv-x="720" d="M70.5 28q-0.5 27 6.5 38q118 9 128 36q16 40 16 188v736q0 148 -16 188q-10 27 -128 36q-7 11 -6.5 38t6.5 36q137 -14 286 -14q145 0 282 14q6 -9 6.5 -36t-6.5 -38q-118 -9 -128 -36q-16 -40 -16 -188v-736q0 -148 16 -188q10 -27 128 -36q7 -11 6.5 -38t-6.5 -36 q-137 14 -286 14q-145 0 -282 -14q-6 9 -6.5 36zM219 1496q0 11 87.5 97.5t152.5 136.5q16 8 36 8q36 0 74 -19.5t38 -56.5q0 -33 -85 -84.5t-171.5 -86.5t-103.5 -35q-10 0 -19 15t-9 25z" />
<glyph unicode="&#xce;" horiz-adv-x="720" d="M70.5 28q-0.5 27 6.5 38q118 9 128 36q16 40 16 188v736q0 148 -16 188q-10 27 -128 36q-7 11 -6.5 38t6.5 36q137 -14 286 -14q145 0 282 14q6 -9 6.5 -36t-6.5 -38q-118 -9 -128 -36q-16 -40 -16 -188v-736q0 -148 16 -188q10 -27 128 -36q7 -11 6.5 -38t-6.5 -36 q-137 14 -286 14q-145 0 -282 -14q-6 9 -6.5 36zM105 1494q22 16 144 130q41 37 90 96q17 20 26 20q6 0 26 -20q48 -52 84 -88q112 -109 150 -138q0 -27 -20 -34q-20 5 -108 48.5t-132 71.5q-44 -29 -130 -71.5t-110 -48.5q-20 10 -20 34z" />
<glyph unicode="&#xcf;" horiz-adv-x="720" d="M18 1594q0 57 38.5 95.5t95.5 38.5t96.5 -38.5t39.5 -95.5t-39.5 -96.5t-96.5 -39.5t-95.5 39.5t-38.5 96.5zM71.5 28q-0.5 27 6.5 38q118 9 128 36q16 40 16 188v736q0 148 -16 188q-10 27 -128 36q-7 11 -6.5 38t6.5 36q137 -14 286 -14q145 0 282 14q6 -9 6.5 -36 t-6.5 -38q-118 -9 -128 -36q-16 -40 -16 -188v-736q0 -148 16 -188q10 -27 128 -36q7 -11 6.5 -38t-6.5 -36q-137 14 -286 14q-145 0 -282 -14q-6 9 -6.5 36zM428 1594q0 57 39.5 95.5t96.5 38.5t96.5 -38.5t39.5 -95.5t-39.5 -96.5t-96.5 -39.5t-96.5 39.5t-39.5 96.5z" />
<glyph unicode="&#xd0;" horiz-adv-x="1530" d="M60 632q-2 16 0 36t8 28h698q6 0 6 -33t-6 -47h-700q-4 0 -6 16zM78.5 30q-0.5 27 6.5 38q118 9 128 34q16 40 16 188v736q0 148 -16 188q-9 23 -128 32q-7 11 -6.5 38t6.5 36q90 -6 286 -6q48 0 157.5 2.5t148.5 3.5q231 0 403.5 -76t268.5 -223t96 -349 q0 -137 -40 -250t-111 -191.5t-169.5 -132.5t-214 -79t-247.5 -25h-578q-6 9 -6.5 36zM509 282q0 -118 16 -158q9 -20 47 -33t79 -13q244 0 360 139.5t116 432.5q0 285 -139 437.5t-369 152.5q-89 0 -100 -24q-10 -24 -10 -122v-812z" />
<glyph unicode="&#xd1;" horiz-adv-x="1520" d="M57.5 18.5q-0.5 18.5 1.5 33t4 14.5q32 0 91 14.5t69 37.5q10 22 17 82.5t7 119.5v708q0 127 -36 180q-12 17 -59.5 29.5t-72.5 12.5q-8 0 -9.5 33t5.5 41q18 -1 61 -5t83.5 -6.5t81.5 -2.5q106 0 218 14q27 -55 102.5 -157.5t150 -194.5t200.5 -244.5t189 -231.5 q4 14 4 82v374q0 67 -6 151t-16 105q-10 23 -67 33.5t-95 10.5q-2 0 -4 14.5t-1.5 33t5.5 26.5q36 -2 114.5 -9t129.5 -7t140 7.5t112 8.5q4 -12 4 -37.5t-8 -38.5q-19 0 -48 -2t-70 -13.5t-48 -30.5q-7 -20 -13.5 -104t-6.5 -142v-680q0 -72 8 -280q-8 -8 -50 -8 q-27 0 -62 46l-814 1002v-724q0 -52 7 -112t15 -82q9 -24 71.5 -38t92.5 -14q8 -13 8 -38.5t-4 -37.5q-23 1 -112 8.5t-140 7.5t-129.5 -7t-114.5 -9q-5 8 -5.5 26.5zM399 1516q0 45 38 96q77 96 186 96q35 0 69 -9.5t55 -19.5t56 -29q116 -64 166 -64q37 0 69.5 15 t50.5 32.5t33.5 35t20.5 19.5q7 0 11.5 -9.5t4.5 -18.5q0 -45 -38 -96q-79 -98 -186 -98q-35 0 -69 9.5t-55 19.5t-56 29q-5 3 -24 13.5t-25.5 14t-22.5 11.5t-25 11.5t-22 8t-24.5 6t-22.5 1.5q-37 0 -69.5 -15t-50.5 -33t-33.5 -36t-20.5 -20q-7 0 -11.5 10.5t-4.5 19.5z " />
<glyph unicode="&#xd2;" horiz-adv-x="1520" d="M80 656q0 137 57 263.5t150.5 216.5t218 144t254.5 54t254.5 -54t218 -144t150.5 -216.5t57 -263.5t-57 -263t-150.5 -216t-218 -143.5t-254.5 -53.5t-254.5 53.5t-218 143.5t-150.5 216t-57 263zM400 726q0 -79 9.5 -155.5t28.5 -151.5t51.5 -138t75.5 -111.5t104 -76 t133 -27.5q69 0 124.5 31t91 81.5t59 119t33.5 139.5t10 147q0 95 -13.5 186.5t-44.5 179t-77 153t-116.5 105.5t-156.5 40q-68 0 -122.5 -31.5t-89.5 -82.5t-58 -120t-32.5 -140.5t-9.5 -147.5zM470 1662q0 37 38 56.5t74 19.5q20 0 36 -8q65 -50 152.5 -136.5t87.5 -97.5 q0 -10 -9 -25t-19 -15q-17 0 -103.5 35t-171.5 86.5t-85 84.5z" />
<glyph unicode="&#xd3;" horiz-adv-x="1520" d="M80 656q0 137 57 263.5t150.5 216.5t218 144t254.5 54t254.5 -54t218 -144t150.5 -216.5t57 -263.5t-57 -263t-150.5 -216t-218 -143.5t-254.5 -53.5t-254.5 53.5t-218 143.5t-150.5 216t-57 263zM400 726q0 -79 9.5 -155.5t28.5 -151.5t51.5 -138t75.5 -111.5t104 -76 t133 -27.5q69 0 124.5 31t91 81.5t59 119t33.5 139.5t10 147q0 95 -13.5 186.5t-44.5 179t-77 153t-116.5 105.5t-156.5 40q-68 0 -122.5 -31.5t-89.5 -82.5t-58 -120t-32.5 -140.5t-9.5 -147.5zM638 1496q0 11 87.5 97.5t152.5 136.5q16 8 36 8q36 0 74 -19.5t38 -56.5 q0 -33 -85 -84.5t-171.5 -86.5t-103.5 -35q-10 0 -19 15t-9 25z" />
<glyph unicode="&#xd4;" horiz-adv-x="1520" d="M80 656q0 137 57 263.5t150.5 216.5t218 144t254.5 54t254.5 -54t218 -144t150.5 -216.5t57 -263.5t-57 -263t-150.5 -216t-218 -143.5t-254.5 -53.5t-254.5 53.5t-218 143.5t-150.5 216t-57 263zM400 726q0 -79 9.5 -155.5t28.5 -151.5t51.5 -138t75.5 -111.5t104 -76 t133 -27.5q69 0 124.5 31t91 81.5t59 119t33.5 139.5t10 147q0 95 -13.5 186.5t-44.5 179t-77 153t-116.5 105.5t-156.5 40q-68 0 -122.5 -31.5t-89.5 -82.5t-58 -120t-32.5 -140.5t-9.5 -147.5zM504 1494q22 16 144 130q41 37 90 96q17 20 26 20q6 0 26 -20q48 -52 84 -88 q112 -109 150 -138q0 -27 -20 -34q-20 5 -108 48.5t-132 71.5q-44 -29 -130 -71.5t-110 -48.5q-20 10 -20 34z" />
<glyph unicode="&#xd5;" horiz-adv-x="1520" d="M80 656q0 137 57 263.5t150.5 216.5t218 144t254.5 54t254.5 -54t218 -144t150.5 -216.5t57 -263.5t-57 -263t-150.5 -216t-218 -143.5t-254.5 -53.5t-254.5 53.5t-218 143.5t-150.5 216t-57 263zM394 1516q0 45 38 96q77 96 186 96q35 0 69 -9.5t55 -19.5t56 -29 q116 -64 166 -64q37 0 69.5 15t50.5 32.5t33.5 35t20.5 19.5q7 0 11.5 -9.5t4.5 -18.5q0 -45 -38 -96q-79 -98 -186 -98q-35 0 -69 9.5t-55 19.5t-56 29q-5 3 -24 13.5t-25.5 14t-22.5 11.5t-25 11.5t-22 8t-24.5 6t-22.5 1.5q-37 0 -69.5 -15t-50.5 -33t-33.5 -36 t-20.5 -20q-7 0 -11.5 10.5t-4.5 19.5zM400 726q0 -79 9.5 -155.5t28.5 -151.5t51.5 -138t75.5 -111.5t104 -76t133 -27.5q69 0 124.5 31t91 81.5t59 119t33.5 139.5t10 147q0 95 -13.5 186.5t-44.5 179t-77 153t-116.5 105.5t-156.5 40q-68 0 -122.5 -31.5t-89.5 -82.5 t-58 -120t-32.5 -140.5t-9.5 -147.5z" />
<glyph unicode="&#xd6;" horiz-adv-x="1520" d="M80 656q0 137 57 263.5t150.5 216.5t218 144t254.5 54t254.5 -54t218 -144t150.5 -216.5t57 -263.5t-57 -263t-150.5 -216t-218 -143.5t-254.5 -53.5t-254.5 53.5t-218 143.5t-150.5 216t-57 263zM400 726q0 -79 9.5 -155.5t28.5 -151.5t51.5 -138t75.5 -111.5t104 -76 t133 -27.5q69 0 124.5 31t91 81.5t59 119t33.5 139.5t10 147q0 95 -13.5 186.5t-44.5 179t-77 153t-116.5 105.5t-156.5 40q-68 0 -122.5 -31.5t-89.5 -82.5t-58 -120t-32.5 -140.5t-9.5 -147.5zM418 1594q0 57 38.5 95.5t95.5 38.5t96.5 -38.5t39.5 -95.5t-39.5 -96.5 t-96.5 -39.5t-95.5 39.5t-38.5 96.5zM828 1594q0 57 39.5 95.5t96.5 38.5t96.5 -38.5t39.5 -95.5t-39.5 -96.5t-96.5 -39.5t-96.5 39.5t-39.5 96.5z" />
<glyph unicode="&#xd7;" horiz-adv-x="930" d="M108 214q276 274 284 282l-284 284q0 21 21 51.5t35 30.5q10 0 14 -4q290 -280 294 -284l286 284q4 4 12 4q13 0 32.5 -35.5t19.5 -52.5q-270 -268 -276 -274l276 -286q0 -24 -18 -55t-34 -31q-10 0 -14 4l-290 290l-294 -294q-4 -4 -12 -4q-13 0 -32.5 36.5t-19.5 53.5z " />
<glyph unicode="&#xd8;" horiz-adv-x="1518" d="M80 656q0 137 57 263.5t150.5 216.5t218 144t254.5 54t254.5 -54t218 -144t150.5 -216.5t57 -263.5t-57 -263t-150.5 -216t-218 -143.5t-254.5 -53.5t-254.5 53.5t-218 143.5t-150.5 216t-57 263zM328 8l754 1344q1 0 7 -2t10 -4t11 -4t12 -6q5 -2 11 -5q7 -3 11 -5t8 -6 q4 -2 6 -5t0 -5l-754 -1346q-80 30 -76 44zM400 726q0 -79 9.5 -155.5t28.5 -151.5t51.5 -138t75.5 -111.5t104 -76t133 -27.5q69 0 124.5 31t91 81.5t59 119t33.5 139.5t10 147q0 95 -13.5 186.5t-44.5 179t-77 153t-116.5 105.5t-156.5 40q-68 0 -122.5 -31.5t-89.5 -82.5 t-58 -120t-32.5 -140.5t-9.5 -147.5z" />
<glyph unicode="&#xd9;" horiz-adv-x="1460" d="M38.5 1288q0.5 27 6.5 36q137 -14 286 -14q145 0 282 14q6 -9 6.5 -36t-6.5 -38q-118 -9 -128 -36q-16 -40 -16 -188v-366q0 -119 9 -194t41 -148q83 -192 304 -192q62 0 118.5 28.5t103.5 85.5t74.5 154.5t27.5 223.5v340q0 67 -8 141t-20 103q-16 38 -150 48 q-7 11 -6.5 38t6.5 36q165 -14 250 -14q51 0 131 6.5t103 7.5q6 -9 6.5 -36t-6.5 -38q-1 0 -11.5 -0.5t-17 -1.5t-19.5 -2t-22 -3t-21.5 -4.5t-21.5 -6t-18 -8t-14.5 -10t-8.5 -12.5q-12 -29 -20 -102t-8 -140v-388q0 -119 -29.5 -217.5t-80.5 -166.5t-121 -115t-149.5 -69 t-167.5 -22q-131 0 -241.5 44.5t-180.5 131.5q-112 141 -112 444v424q0 148 -16 188q-10 27 -128 36q-7 11 -6.5 38zM527 1662q0 37 38 56.5t74 19.5q20 0 36 -8q65 -50 152.5 -136.5t87.5 -97.5q0 -10 -9 -25t-19 -15q-17 0 -103.5 35t-171.5 86.5t-85 84.5z" />
<glyph unicode="&#xda;" horiz-adv-x="1460" d="M38.5 1288q0.5 27 6.5 36q137 -14 286 -14q145 0 282 14q6 -9 6.5 -36t-6.5 -38q-118 -9 -128 -36q-16 -40 -16 -188v-366q0 -119 9 -194t41 -148q83 -192 304 -192q62 0 118.5 28.5t103.5 85.5t74.5 154.5t27.5 223.5v340q0 67 -8 141t-20 103q-16 38 -150 48 q-7 11 -6.5 38t6.5 36q165 -14 250 -14q51 0 131 6.5t103 7.5q6 -9 6.5 -36t-6.5 -38q-1 0 -11.5 -0.5t-17 -1.5t-19.5 -2t-22 -3t-21.5 -4.5t-21.5 -6t-18 -8t-14.5 -10t-8.5 -12.5q-12 -29 -20 -102t-8 -140v-388q0 -119 -29.5 -217.5t-80.5 -166.5t-121 -115t-149.5 -69 t-167.5 -22q-131 0 -241.5 44.5t-180.5 131.5q-112 141 -112 444v424q0 148 -16 188q-10 27 -128 36q-7 11 -6.5 38zM623 1496q0 11 87.5 97.5t152.5 136.5q16 8 36 8q36 0 74 -19.5t38 -56.5q0 -33 -85 -84.5t-171.5 -86.5t-103.5 -35q-10 0 -19 15t-9 25z" />
<glyph unicode="&#xdb;" horiz-adv-x="1460" d="M38.5 1288q0.5 27 6.5 36q137 -14 286 -14q145 0 282 14q6 -9 6.5 -36t-6.5 -38q-118 -9 -128 -36q-16 -40 -16 -188v-366q0 -119 9 -194t41 -148q83 -192 304 -192q62 0 118.5 28.5t103.5 85.5t74.5 154.5t27.5 223.5v340q0 67 -8 141t-20 103q-16 38 -150 48 q-7 11 -6.5 38t6.5 36q165 -14 250 -14q51 0 131 6.5t103 7.5q6 -9 6.5 -36t-6.5 -38q-1 0 -11.5 -0.5t-17 -1.5t-19.5 -2t-22 -3t-21.5 -4.5t-21.5 -6t-18 -8t-14.5 -10t-8.5 -12.5q-12 -29 -20 -102t-8 -140v-388q0 -119 -29.5 -217.5t-80.5 -166.5t-121 -115t-149.5 -69 t-167.5 -22q-131 0 -241.5 44.5t-180.5 131.5q-112 141 -112 444v424q0 148 -16 188q-10 27 -128 36q-7 11 -6.5 38zM529 1494q22 16 144 130q41 37 90 96q17 20 26 20q6 0 26 -20q48 -52 84 -88q112 -109 150 -138q0 -27 -20 -34q-20 5 -108 48.5t-132 71.5 q-44 -29 -130 -71.5t-110 -48.5q-20 10 -20 34z" />
<glyph unicode="&#xdc;" horiz-adv-x="1460" d="M38.5 1288q0.5 27 6.5 36q137 -14 286 -14q145 0 282 14q6 -9 6.5 -36t-6.5 -38q-118 -9 -128 -36q-16 -40 -16 -188v-366q0 -119 9 -194t41 -148q83 -192 304 -192q62 0 118.5 28.5t103.5 85.5t74.5 154.5t27.5 223.5v340q0 67 -8 141t-20 103q-16 38 -150 48 q-7 11 -6.5 38t6.5 36q165 -14 250 -14q51 0 131 6.5t103 7.5q6 -9 6.5 -36t-6.5 -38q-1 0 -11.5 -0.5t-17 -1.5t-19.5 -2t-22 -3t-21.5 -4.5t-21.5 -6t-18 -8t-14.5 -10t-8.5 -12.5q-12 -29 -20 -102t-8 -140v-388q0 -119 -29.5 -217.5t-80.5 -166.5t-121 -115t-149.5 -69 t-167.5 -22q-131 0 -241.5 44.5t-180.5 131.5q-112 141 -112 444v424q0 148 -16 188q-10 27 -128 36q-7 11 -6.5 38zM445 1594q0 57 38.5 95.5t95.5 38.5t96.5 -38.5t39.5 -95.5t-39.5 -96.5t-96.5 -39.5t-95.5 39.5t-38.5 96.5zM855 1594q0 57 39.5 95.5t96.5 38.5 t96.5 -38.5t39.5 -95.5t-39.5 -96.5t-96.5 -39.5t-96.5 39.5t-39.5 96.5z" />
<glyph unicode="&#xdd;" horiz-adv-x="1248" d="M0.5 1288q0.5 27 6.5 36q137 -14 286 -14q145 0 282 14q6 -9 6.5 -36t-6.5 -38q-1 0 -11 -0.5t-15 -1t-17 -2t-19 -3.5t-17.5 -4.5t-17 -6.5t-13 -9t-9.5 -12t-3 -15t14 -32l240 -442q7 -7 85.5 131.5t166.5 302.5q10 20 10 46q0 37 -148 48q-7 11 -6.5 38t6.5 36 q165 -14 226 -14q51 0 124.5 6.5t99.5 7.5q6 -9 6.5 -36t-6.5 -38l-13 -1q-12 -1 -17.5 -1.5t-19.5 -2t-23 -4t-21.5 -6t-21.5 -8.5t-18 -12t-14 -15q-54 -82 -191.5 -305t-174.5 -299q-10 -20 -10 -38v-268q-2 -144 16 -188q10 -27 128 -36q7 -11 6.5 -38t-6.5 -36 q-137 14 -286 14q-145 0 -282 -14q-6 9 -6.5 36t6.5 38q118 9 128 36q3 7 5 14t3.5 16.5t2.5 16.5t2 20t1.5 20t0.5 23.5t0.5 23.5t0.5 27v27v278q0 13 -12 40q-23 48 -85 164q-62 118 -114 210l-51 92q-33 62 -62 110q-19 32 -61 47.5t-75 18.5q-7 11 -6.5 38zM581 1496 q0 11 87.5 97.5t152.5 136.5q16 8 36 8q36 0 74 -19.5t38 -56.5q0 -33 -85 -84.5t-171.5 -86.5t-103.5 -35q-10 0 -19 15t-9 25z" />
<glyph unicode="&#xde;" horiz-adv-x="1166" d="M70.5 28q-0.5 27 6.5 38q118 9 128 36q16 40 16 188v736q0 148 -16 188q-10 27 -128 36q-7 11 -6.5 38t6.5 36q137 -14 286 -14q145 0 282 14q6 -9 6.5 -36t-6.5 -38q-118 -9 -128 -36q-16 -38 -16 -136v-44q104 4 170 4q127 0 228 -40.5t162.5 -122.5t61.5 -193 q0 -116 -56.5 -206.5t-146 -137t-191.5 -46.5q-48 0 -85.5 15.5t-52.5 30.5t-15 50q0 14 7 14q27 -8 82 -8q74 0 124 73t50 187q0 122 -65 213t-163 91q-89 0 -100 -24q-4 -11 -6.5 -41.5t-2.5 -55.5l-1 -25v-522q0 -148 16 -188q10 -27 128 -36q7 -11 6.5 -38t-6.5 -36 q-137 14 -286 14q-145 0 -282 -14q-6 9 -6.5 36z" />
<glyph unicode="&#xdf;" horiz-adv-x="1180" d="M38.5 28q-0.5 27 6.5 38q118 9 128 36q16 40 16 188v472h-118q-10 4 -10 26q26 36 64 68h64v30q0 99 43.5 194.5t111.5 163.5t151.5 110t161.5 42q135 0 242.5 -77.5t107.5 -192.5q0 -45 -18 -83.5t-35.5 -57t-48.5 -45.5q-7 -6 -29 -24t-33.5 -28.5t-26.5 -26.5t-22 -30 t-7 -27q0 -26 24 -61t48.5 -59.5t67.5 -63t54 -48.5q46 -45 71.5 -74.5t49 -82t23.5 -109.5q0 -73 -31.5 -136t-81.5 -103.5t-109.5 -63.5t-117.5 -23q-54 0 -106.5 15t-75.5 39q-18 36 -18 74q0 51 27.5 93.5t70.5 42.5q13 0 24.5 -3.5t20 -7.5t17.5 -13t14 -14.5 t12.5 -17.5t10 -16.5t8.5 -17.5t7 -14q36 -72 80 -72q64 0 64 96q0 16 -2.5 31.5t-10 31.5t-13 28.5t-19 30t-20 26.5t-25 28.5t-24.5 26t-27.5 27.5t-26.5 26q-14 14 -50 47.5t-54.5 53t-42.5 50t-34.5 61.5t-10.5 64q0 17 5.5 33t18 33.5t22 29t29 32.5t27.5 30 q45 50 65.5 91.5t20.5 104.5q0 61 -15.5 116t-53.5 95.5t-93 40.5q-63 0 -110.5 -93t-47.5 -237v-682q0 -148 16 -188q12 -30 86 -36q7 -11 6.5 -38t-6.5 -36q-137 14 -232 14q-137 0 -274 -14q-6 9 -6.5 36z" />
<glyph unicode="&#xe0;" horiz-adv-x="944" d="M62 228q0 56 31.5 101.5t72.5 58.5q33 11 101 36.5t150.5 57.5t118.5 46v42v52q0 78 -33.5 139t-84.5 61q-22 0 -39.5 -9.5t-28.5 -23t-20.5 -38.5t-15 -44.5t-12.5 -52.5q-19 -88 -112 -88q-42 0 -73 27.5t-31 68.5q0 33 28 82q38 38 153.5 96t228.5 58q126 0 213 -86.5 t87 -219.5v-374q0 -39 13.5 -60.5t34.5 -21.5q10 0 20 3t16 5q6 4 14 8l8 4q14 -7 14 -34q0 -17 -8 -30q-21 -19 -47.5 -39.5t-73.5 -42.5t-85 -22q-48 0 -93 31t-59 69q-25 -22 -102 -63t-124 -41q-110 0 -186 75.5t-76 168.5zM240 1292q0 18 23 38t69 20q50 0 68 -18 q34 -39 79.5 -105.5t76 -116t30.5 -54.5q0 -9 -12 -22.5t-22 -13.5q-12 0 -87.5 51t-150 118.5t-74.5 102.5zM332 248q1 -59 39 -91.5t83 -32.5q34 0 58 15.5t24 26.5v280q-6 -3 -57 -26t-75 -38q-76 -49 -72 -134z" />
<glyph unicode="&#xe1;" horiz-adv-x="944" d="M62 228q0 56 31.5 101.5t72.5 58.5q33 11 101 36.5t150.5 57.5t118.5 46v42v52q0 78 -33.5 139t-84.5 61q-22 0 -39.5 -9.5t-28.5 -23t-20.5 -38.5t-15 -44.5t-12.5 -52.5q-19 -88 -112 -88q-42 0 -73 27.5t-31 68.5q0 33 28 82q38 38 153.5 96t228.5 58q126 0 213 -86.5 t87 -219.5v-374q0 -39 13.5 -60.5t34.5 -21.5q10 0 20 3t16 5q6 4 14 8l8 4q14 -7 14 -34q0 -17 -8 -30q-21 -19 -47.5 -39.5t-73.5 -42.5t-85 -22q-48 0 -93 31t-59 69q-25 -22 -102 -63t-124 -41q-110 0 -186 75.5t-76 168.5zM332 248q1 -59 39 -91.5t83 -32.5 q34 0 58 15.5t24 26.5v280q-6 -3 -57 -26t-75 -38q-76 -49 -72 -134zM332 1056q0 5 30.5 54.5t76 116t79.5 105.5q18 18 68 18q46 0 69 -20t23 -38q0 -35 -74.5 -102.5t-150 -118.5t-87.5 -51q-10 0 -22 13.5t-12 22.5z" />
<glyph unicode="&#xe2;" horiz-adv-x="944" d="M62 228q0 56 31.5 101.5t72.5 58.5q33 11 101 36.5t150.5 57.5t118.5 46v42v52q0 78 -33.5 139t-84.5 61q-22 0 -39.5 -9.5t-28.5 -23t-20.5 -38.5t-15 -44.5t-12.5 -52.5q-19 -88 -112 -88q-42 0 -73 27.5t-31 68.5q0 33 28 82q38 38 153.5 96t228.5 58q126 0 213 -86.5 t87 -219.5v-374q0 -39 13.5 -60.5t34.5 -21.5q10 0 20 3t16 5q6 4 14 8l8 4q14 -7 14 -34q0 -17 -8 -30q-21 -19 -47.5 -39.5t-73.5 -42.5t-85 -22q-48 0 -93 31t-59 69q-25 -22 -102 -63t-124 -41q-110 0 -186 75.5t-76 168.5zM226 1066q48 48 132 156q42 55 78 114 q11 20 26 20q4 0 7.5 -1.5t5 -3.5t5.5 -7t6 -8q6 -8 29.5 -42.5t44.5 -61.5q88 -116 138 -166q0 -15 -5.5 -29t-12.5 -17q-16 5 -97 59.5t-121 88.5q-40 -34 -117.5 -86t-100.5 -62q-7 3 -12.5 17t-5.5 29zM332 248q1 -59 39 -91.5t83 -32.5q34 0 58 15.5t24 26.5v280 q-6 -3 -57 -26t-75 -38q-76 -49 -72 -134z" />
<glyph unicode="&#xe3;" horiz-adv-x="944" d="M62 228q0 56 31.5 101.5t72.5 58.5q33 11 101 36.5t150.5 57.5t118.5 46v42v52q0 78 -33.5 139t-84.5 61q-22 0 -39.5 -9.5t-28.5 -23t-20.5 -38.5t-15 -44.5t-12.5 -52.5q-19 -88 -112 -88q-42 0 -73 27.5t-31 68.5q0 33 28 82q38 38 153.5 96t228.5 58q126 0 213 -86.5 t87 -219.5v-374q0 -39 13.5 -60.5t34.5 -21.5q10 0 20 3t16 5q6 4 14 8l8 4q14 -7 14 -34q0 -17 -8 -30q-21 -19 -47.5 -39.5t-73.5 -42.5t-85 -22q-48 0 -93 31t-59 69q-25 -22 -102 -63t-124 -41q-110 0 -186 75.5t-76 168.5zM136 1076q0 46 30 102q62 100 150 100 q9 0 18 -1t16 -2t16 -4.5t14.5 -5.5t15 -7t13 -7t14 -8.5t13 -8t14 -9.5t12.5 -9q37 -27 77.5 -46.5t64.5 -19.5q30 0 55.5 15.5t38.5 33.5t24.5 36t15.5 21q16 0 16 -24q0 -43 -34 -106q-64 -102 -150 -102q-9 0 -18 1t-16 2t-16 4.5t-14.5 5.5t-15 7t-13 7t-14 8.5t-13 8 t-14 9.5t-12.5 9q-92 68 -142 68q-25 0 -45 -10t-33 -25t-22 -30.5t-15.5 -28t-10.5 -14.5q-9 0 -14.5 10t-5.5 20zM332 248q1 -59 39 -91.5t83 -32.5q34 0 58 15.5t24 26.5v280q-6 -3 -57 -26t-75 -38q-76 -49 -72 -134z" />
<glyph unicode="&#xe4;" horiz-adv-x="944" d="M62 228q0 56 31.5 101.5t72.5 58.5q33 11 101 36.5t150.5 57.5t118.5 46v42v52q0 78 -33.5 139t-84.5 61q-22 0 -39.5 -9.5t-28.5 -23t-20.5 -38.5t-15 -44.5t-12.5 -52.5q-19 -88 -112 -88q-42 0 -73 27.5t-31 68.5q0 33 28 82q38 38 153.5 96t228.5 58q126 0 213 -86.5 t87 -219.5v-374q0 -39 13.5 -60.5t34.5 -21.5q10 0 20 3t16 5q6 4 14 8l8 4q14 -7 14 -34q0 -17 -8 -30q-21 -19 -47.5 -39.5t-73.5 -42.5t-85 -22q-48 0 -93 31t-59 69q-25 -22 -102 -63t-124 -41q-110 0 -186 75.5t-76 168.5zM108 1164q0 57 41.5 97.5t98.5 40.5 t97.5 -40.5t40.5 -97.5t-40.5 -98.5t-97.5 -41.5t-98.5 41.5t-41.5 98.5zM332 248q1 -59 39 -91.5t83 -32.5q34 0 58 15.5t24 26.5v280q-6 -3 -57 -26t-75 -38q-76 -49 -72 -134zM486 1164q0 57 40.5 97.5t97.5 40.5t98.5 -40.5t41.5 -97.5t-41.5 -98.5t-98.5 -41.5 t-97.5 41.5t-40.5 98.5z" />
<glyph unicode="&#xe5;" horiz-adv-x="944" d="M62 228q0 56 31.5 101.5t72.5 58.5q33 11 101 36.5t150.5 57.5t118.5 46v42v52q0 78 -33.5 139t-84.5 61q-22 0 -39.5 -9.5t-28.5 -23t-20.5 -38.5t-15 -44.5t-12.5 -52.5q-19 -88 -112 -88q-42 0 -73 27.5t-31 68.5q0 33 28 82q38 38 153.5 96t228.5 58q126 0 213 -86.5 t87 -219.5v-374q0 -39 13.5 -60.5t34.5 -21.5q10 0 20 3t16 5q6 4 14 8l8 4q14 -7 14 -34q0 -17 -8 -30q-21 -19 -47.5 -39.5t-73.5 -42.5t-85 -22q-48 0 -93 31t-59 69q-25 -22 -102 -63t-124 -41q-110 0 -186 75.5t-76 168.5zM292 1220q0 91 65 155.5t157 64.5t157 -64.5 t65 -155.5q0 -92 -65.5 -158t-156.5 -66t-156.5 66t-65.5 158zM332 248q1 -59 39 -91.5t83 -32.5q34 0 58 15.5t24 26.5v280q-6 -3 -57 -26t-75 -38q-76 -49 -72 -134zM386 1220q0 -54 37 -93t91 -39t92 39t38 93t-38 92t-92 38t-91 -38t-37 -92z" />
<glyph unicode="&#xe6;" horiz-adv-x="1392" d="M62 228q0 56 31.5 101.5t72.5 58.5q124 39 404 138q6 4 11 18.5t5 25.5q0 44 -4 66q-15 83 -62.5 134.5t-101.5 51.5q-22 0 -39.5 -9.5t-28.5 -23t-20.5 -38.5t-15 -44.5t-12.5 -52.5q-19 -88 -112 -88q-42 0 -73 27.5t-31 68.5q0 33 28 82q38 38 153.5 96t228.5 58 q146 0 234 -110q116 106 250 106q75 0 136.5 -20.5t100 -52.5t65 -73t37.5 -80t11 -76q0 -33 -16 -58t-38 -26q-180 -16 -480 -24q0 -80 21 -142t51.5 -97t70.5 -57.5t73 -30t64 -7.5q133 0 224 100q10 -3 17 -14.5t7 -21.5q0 -29 -6 -38q-16 -25 -46 -54.5t-76 -62.5 t-109.5 -55t-130.5 -22q-102 0 -185 37.5t-135 108.5q-75 -60 -167.5 -102t-144.5 -42q-110 0 -186 75.5t-76 168.5zM332 248q1 -59 39 -91.5t83 -32.5q39 0 88.5 27.5t49.5 52.5q-30 94 -30 184q0 28 2 58q-4 -1 -45 -15t-69 -25.5t-46 -23.5q-76 -49 -72 -134zM798 564 q13 -1 117.5 5t140.5 11q26 2 26 32q0 80 -30 140t-92 60q-41 0 -74.5 -28.5t-51.5 -70.5t-27 -81t-9 -68z" />
<glyph unicode="&#xe7;" horiz-adv-x="894" d="M62 400q0 90 43 180t114 159.5t167.5 113t197.5 43.5q74 0 127.5 -11.5t74.5 -24.5q40 -44 40 -96q0 -47 -32.5 -85.5t-83.5 -38.5q-15 0 -29 5t-28 17t-22 20t-22 25.5t-19 22.5q-55 62 -136 62q-42 0 -75 -44t-49 -106.5t-16 -125.5q0 -100 26.5 -174.5t70 -114.5 t91.5 -58.5t100 -18.5q133 0 224 100q10 -3 17 -14.5t7 -21.5q0 -29 -6 -38q-16 -25 -46 -54.5t-76 -62.5t-109.5 -55t-130.5 -22q-113 0 -208 49t-153.5 145.5t-58.5 223.5zM346 -240q0 14 6 14q60 -30 96 -30q47 0 67.5 17.5t20.5 42.5q0 26 -12 46t-40 20q-17 0 -52 -14 q-5 0 -15.5 11t-10.5 19q36 60 56 110h64q-16 -28 -26 -46q32 4 44 4q40 0 70 -29.5t30 -68.5q0 -73 -52.5 -120.5t-141.5 -47.5q-30 0 -57 10t-39 22q-8 12 -8 40z" />
<glyph unicode="&#xe8;" horiz-adv-x="920" d="M64 400q0 124 62.5 238.5t166 185t215.5 70.5q75 0 136.5 -20.5t100 -52.5t65 -73t37.5 -80t11 -76q0 -33 -16 -58t-38 -26q-180 -16 -480 -24q0 -80 21 -142t51.5 -97t70.5 -57.5t73 -30t64 -7.5q133 0 224 100q10 -3 17 -14.5t7 -21.5q0 -29 -6 -38q-16 -25 -46 -54.5 t-76 -62.5t-109.5 -55t-130.5 -22q-113 0 -208 49t-153.5 145.5t-58.5 223.5zM254 1292q0 18 23 38t69 20q50 0 68 -18q34 -39 79.5 -105.5t76 -116t30.5 -54.5q0 -9 -12 -22.5t-22 -13.5q-12 0 -87.5 51t-150 118.5t-74.5 102.5zM326 564q13 -1 117.5 5t140.5 11 q26 2 26 32q0 80 -30 140t-92 60q-41 0 -74.5 -28.5t-51.5 -70.5t-27 -81t-9 -68z" />
<glyph unicode="&#xe9;" horiz-adv-x="920" d="M64 400q0 124 62.5 238.5t166 185t215.5 70.5q75 0 136.5 -20.5t100 -52.5t65 -73t37.5 -80t11 -76q0 -33 -16 -58t-38 -26q-180 -16 -480 -24q0 -80 21 -142t51.5 -97t70.5 -57.5t73 -30t64 -7.5q133 0 224 100q10 -3 17 -14.5t7 -21.5q0 -29 -6 -38q-16 -25 -46 -54.5 t-76 -62.5t-109.5 -55t-130.5 -22q-113 0 -208 49t-153.5 145.5t-58.5 223.5zM326 564q13 -1 117.5 5t140.5 11q26 2 26 32q0 80 -30 140t-92 60q-41 0 -74.5 -28.5t-51.5 -70.5t-27 -81t-9 -68zM374 1056q0 5 30.5 54.5t76 116t79.5 105.5q18 18 68 18q46 0 69 -20t23 -38 q0 -35 -74.5 -102.5t-150 -118.5t-87.5 -51q-10 0 -22 13.5t-12 22.5z" />
<glyph unicode="&#xea;" horiz-adv-x="920" d="M64 400q0 124 62.5 238.5t166 185t215.5 70.5q75 0 136.5 -20.5t100 -52.5t65 -73t37.5 -80t11 -76q0 -33 -16 -58t-38 -26q-180 -16 -480 -24q0 -80 21 -142t51.5 -97t70.5 -57.5t73 -30t64 -7.5q133 0 224 100q10 -3 17 -14.5t7 -21.5q0 -29 -6 -38q-16 -25 -46 -54.5 t-76 -62.5t-109.5 -55t-130.5 -22q-113 0 -208 49t-153.5 145.5t-58.5 223.5zM248 1066q48 48 132 156q42 55 78 114q11 20 26 20q4 0 7.5 -1.5t5 -3.5t5.5 -7t6 -8q6 -8 29.5 -42.5t44.5 -61.5q88 -116 138 -166q0 -15 -5.5 -29t-12.5 -17q-16 5 -97 59.5t-121 88.5 q-40 -34 -117.5 -86t-100.5 -62q-7 3 -12.5 17t-5.5 29zM326 564q13 -1 117.5 5t140.5 11q26 2 26 32q0 80 -30 140t-92 60q-41 0 -74.5 -28.5t-51.5 -70.5t-27 -81t-9 -68z" />
<glyph unicode="&#xeb;" horiz-adv-x="920" d="M64 400q0 124 62.5 238.5t166 185t215.5 70.5q75 0 136.5 -20.5t100 -52.5t65 -73t37.5 -80t11 -76q0 -33 -16 -58t-38 -26q-180 -16 -480 -24q0 -80 21 -142t51.5 -97t70.5 -57.5t73 -30t64 -7.5q133 0 224 100q10 -3 17 -14.5t7 -21.5q0 -29 -6 -38q-16 -25 -46 -54.5 t-76 -62.5t-109.5 -55t-130.5 -22q-113 0 -208 49t-153.5 145.5t-58.5 223.5zM146 1164q0 57 41.5 97.5t98.5 40.5t97.5 -40.5t40.5 -97.5t-40.5 -98.5t-97.5 -41.5t-98.5 41.5t-41.5 98.5zM326 564q13 -1 117.5 5t140.5 11q26 2 26 32q0 80 -30 140t-92 60 q-41 0 -74.5 -28.5t-51.5 -70.5t-27 -81t-9 -68zM524 1164q0 57 40.5 97.5t97.5 40.5t98.5 -40.5t41.5 -97.5t-41.5 -98.5t-98.5 -41.5t-97.5 41.5t-40.5 98.5z" />
<glyph unicode="&#xec;" horiz-adv-x="630" d="M58.5 28q-0.5 27 6.5 38q118 9 128 36q16 40 16 188v230q0 130 -18 164q-10 19 -56.5 29.5t-69.5 10.5q-5 3 -5 32.5t7 29.5q104 8 213.5 40t176.5 66q10 -3 22 -16t12 -18q-4 -12 -11 -52.5t-9 -61.5q-2 -44 -2 -126v-328q0 -148 16 -188q11 -28 114 -36q7 -11 6.5 -38 t-6.5 -36q-137 14 -260 14q-137 0 -274 -14q-6 9 -6.5 36zM119 1292q0 18 23 38t69 20q50 0 68 -18q34 -39 79.5 -105.5t76 -116t30.5 -54.5q0 -9 -12 -22.5t-22 -13.5q-12 0 -87.5 51t-150 118.5t-74.5 102.5z" />
<glyph unicode="&#xed;" horiz-adv-x="630" d="M58.5 28q-0.5 27 6.5 38q118 9 128 36q16 40 16 188v230q0 130 -18 164q-10 19 -56.5 29.5t-69.5 10.5q-5 3 -5 32.5t7 29.5q104 8 213.5 40t176.5 66q10 -3 22 -16t12 -18q-4 -12 -11 -52.5t-9 -61.5q-2 -44 -2 -126v-328q0 -148 16 -188q11 -28 114 -36q7 -11 6.5 -38 t-6.5 -36q-137 14 -260 14q-137 0 -274 -14q-6 9 -6.5 36zM191 1056q0 5 30.5 54.5t76 116t79.5 105.5q18 18 68 18q46 0 69 -20t23 -38q0 -35 -74.5 -102.5t-150 -118.5t-87.5 -51q-10 0 -22 13.5t-12 22.5z" />
<glyph unicode="&#xee;" horiz-adv-x="630" d="M58.5 28q-0.5 27 6.5 38q118 9 128 36q16 40 16 188v230q0 130 -18 164q-10 19 -56.5 29.5t-69.5 10.5q-5 3 -5 32.5t7 29.5q104 8 213.5 40t176.5 66q10 -3 22 -16t12 -18q-4 -12 -11 -52.5t-9 -61.5q-2 -44 -2 -126v-328q0 -148 16 -188q11 -28 114 -36q7 -11 6.5 -38 t-6.5 -36q-137 14 -260 14q-137 0 -274 -14q-6 9 -6.5 36zM81 1066q48 48 132 156q42 55 78 114q11 20 26 20q4 0 7.5 -1.5t5 -3.5t5.5 -7t6 -8q6 -8 29.5 -42.5t44.5 -61.5q88 -116 138 -166q0 -15 -5.5 -29t-12.5 -17q-16 5 -97 59.5t-121 88.5q-40 -34 -117.5 -86 t-100.5 -62q-7 3 -12.5 17t-5.5 29z" />
<glyph unicode="&#xef;" horiz-adv-x="630" d="M-10 1164q0 57 41.5 97.5t98.5 40.5t97.5 -40.5t40.5 -97.5t-40.5 -98.5t-97.5 -41.5t-98.5 41.5t-41.5 98.5zM59.5 28q-0.5 27 6.5 38q118 9 128 36q16 40 16 188v230q0 130 -18 164q-10 19 -56.5 29.5t-69.5 10.5q-5 3 -5 32.5t7 29.5q104 8 213.5 40t176.5 66 q10 -3 22 -16t12 -18q-4 -12 -11 -52.5t-9 -61.5q-2 -44 -2 -126v-328q0 -148 16 -188q11 -28 114 -36q7 -11 6.5 -38t-6.5 -36q-137 14 -260 14q-137 0 -274 -14q-6 9 -6.5 36zM368 1164q0 57 40.5 97.5t97.5 40.5t98.5 -40.5t41.5 -97.5t-41.5 -98.5t-98.5 -41.5 t-97.5 41.5t-40.5 98.5z" />
<glyph unicode="&#xf0;" horiz-adv-x="1080" d="M66 436q0 111 39 201.5t101.5 145.5t136.5 84t149 29q63 0 130 -16q-21 61 -54.5 119t-83.5 118l-18 20l-196 -133q-51 59 -40 70l177 120q-23 19 -48 38q-74 54 -165 94q-7 40 14 56q119 -18 282 -104q11 -6 23 -12l221 150q50 -60 42 -68l-188 -128q101 -69 182 -160 q208 -233 208 -542q0 -229 -127.5 -379.5t-324.5 -150.5q-66 0 -129.5 15.5t-124 51t-106 86t-73 127t-27.5 168.5zM342 424q0 -160 60.5 -256t127.5 -96q48 0 82.5 33t53 89.5t26.5 119.5t8 136q0 184 -58 300q-44 62 -114 62q-51 0 -88.5 -34t-58 -92.5t-30 -123.5 t-9.5 -138z" />
<glyph unicode="&#xf1;" horiz-adv-x="1192" d="M52.5 28q-0.5 27 6.5 38q118 9 128 36q16 40 16 188v230q0 130 -18 164q-10 19 -56.5 29.5t-69.5 10.5q-5 3 -5 32.5t7 29.5q104 8 213.5 40t176.5 66q9 0 21.5 -13t12.5 -21q-2 -7 -7 -35t-9 -53t-4 -26q0 -10 2 -12q4 0 14 10q47 53 131.5 101.5t148.5 48.5 q68 0 116 -19.5t78.5 -55t47.5 -95.5t23.5 -130.5t6.5 -171.5v-130q0 -148 16 -188q10 -27 128 -36q7 -11 6.5 -38t-6.5 -36q-137 14 -274 14q-113 0 -250 -14q-6 9 -6.5 36t6.5 38q93 7 104 36q16 40 16 188v158q0 282 -134 282q-57 0 -116.5 -40t-59.5 -72v-328 q0 -148 16 -188q11 -28 114 -36q7 -11 6.5 -38t-6.5 -36q-137 14 -260 14q-137 0 -274 -14q-6 9 -6.5 36zM287 1076q0 46 30 102q62 100 150 100q9 0 18 -1t16 -2t16 -4.5t14.5 -5.5t15 -7t13 -7t14 -8.5t13 -8t14 -9.5t12.5 -9q37 -27 77.5 -46.5t64.5 -19.5 q30 0 55.5 15.5t38.5 33.5t24.5 36t15.5 21q16 0 16 -24q0 -43 -34 -106q-64 -102 -150 -102q-9 0 -18 1t-16 2t-16 4.5t-14.5 5.5t-15 7t-13 7t-14 8.5t-13 8t-14 9.5t-12.5 9q-92 68 -142 68q-25 0 -45 -10t-33 -25t-22 -30.5t-15.5 -28t-10.5 -14.5q-9 0 -14.5 10 t-5.5 20z" />
<glyph unicode="&#xf2;" horiz-adv-x="1064" d="M64 434q0 190 135.5 325t330.5 135q206 0 338 -126t132 -318q0 -125 -61 -231.5t-168.5 -169.5t-236.5 -63q-206 0 -338 128.5t-132 319.5zM294 1292q0 18 23 38t69 20q50 0 68 -18q34 -39 79.5 -105.5t76 -116t30.5 -54.5q0 -9 -12 -22.5t-22 -13.5q-12 0 -87.5 51 t-150 118.5t-74.5 102.5zM348 474q0 -95 20 -183.5t68.5 -154.5t117.5 -66q42 0 73 21.5t47.5 53.5t26.5 80t12.5 88t2.5 91q0 96 -20.5 185.5t-69.5 156t-118 66.5q-52 0 -86 -30.5t-49 -86t-20 -105.5t-5 -116z" />
<glyph unicode="&#xf3;" horiz-adv-x="1064" d="M64 434q0 190 135.5 325t330.5 135q206 0 338 -126t132 -318q0 -125 -61 -231.5t-168.5 -169.5t-236.5 -63q-206 0 -338 128.5t-132 319.5zM348 474q0 -95 20 -183.5t68.5 -154.5t117.5 -66q42 0 73 21.5t47.5 53.5t26.5 80t12.5 88t2.5 91q0 96 -20.5 185.5t-69.5 156 t-118 66.5q-52 0 -86 -30.5t-49 -86t-20 -105.5t-5 -116zM446 1056q0 5 30.5 54.5t76 116t79.5 105.5q18 18 68 18q46 0 69 -20t23 -38q0 -35 -74.5 -102.5t-150 -118.5t-87.5 -51q-10 0 -22 13.5t-12 22.5z" />
<glyph unicode="&#xf4;" horiz-adv-x="1064" d="M64 434q0 190 135.5 325t330.5 135q206 0 338 -126t132 -318q0 -125 -61 -231.5t-168.5 -169.5t-236.5 -63q-206 0 -338 128.5t-132 319.5zM300 1066q48 48 132 156q42 55 78 114q11 20 26 20q4 0 7.5 -1.5t5 -3.5t5.5 -7t6 -8q6 -8 29.5 -42.5t44.5 -61.5 q88 -116 138 -166q0 -15 -5.5 -29t-12.5 -17q-16 5 -97 59.5t-121 88.5q-40 -34 -117.5 -86t-100.5 -62q-7 3 -12.5 17t-5.5 29zM348 474q0 -95 20 -183.5t68.5 -154.5t117.5 -66q42 0 73 21.5t47.5 53.5t26.5 80t12.5 88t2.5 91q0 96 -20.5 185.5t-69.5 156t-118 66.5 q-52 0 -86 -30.5t-49 -86t-20 -105.5t-5 -116z" />
<glyph unicode="&#xf5;" horiz-adv-x="1064" d="M64 434q0 190 135.5 325t330.5 135q206 0 338 -126t132 -318q0 -125 -61 -231.5t-168.5 -169.5t-236.5 -63q-206 0 -338 128.5t-132 319.5zM232 1076q0 46 30 102q62 100 150 100q9 0 18 -1t16 -2t16 -4.5t14.5 -5.5t15 -7t13 -7t14 -8.5t13 -8t14 -9.5t12.5 -9 q37 -27 77.5 -46.5t64.5 -19.5q30 0 55.5 15.5t38.5 33.5t24.5 36t15.5 21q16 0 16 -24q0 -43 -34 -106q-64 -102 -150 -102q-9 0 -18 1t-16 2t-16 4.5t-14.5 5.5t-15 7t-13 7t-14 8.5t-13 8t-14 9.5t-12.5 9q-92 68 -142 68q-25 0 -45 -10t-33 -25t-22 -30.5t-15.5 -28 t-10.5 -14.5q-9 0 -14.5 10t-5.5 20zM348 474q0 -95 20 -183.5t68.5 -154.5t117.5 -66q42 0 73 21.5t47.5 53.5t26.5 80t12.5 88t2.5 91q0 96 -20.5 185.5t-69.5 156t-118 66.5q-52 0 -86 -30.5t-49 -86t-20 -105.5t-5 -116z" />
<glyph unicode="&#xf6;" horiz-adv-x="1064" d="M64 434q0 190 135.5 325t330.5 135q206 0 338 -126t132 -318q0 -125 -61 -231.5t-168.5 -169.5t-236.5 -63q-206 0 -338 128.5t-132 319.5zM194 1164q0 57 41.5 97.5t98.5 40.5t97.5 -40.5t40.5 -97.5t-40.5 -98.5t-97.5 -41.5t-98.5 41.5t-41.5 98.5zM348 474 q0 -95 20 -183.5t68.5 -154.5t117.5 -66q42 0 73 21.5t47.5 53.5t26.5 80t12.5 88t2.5 91q0 96 -20.5 185.5t-69.5 156t-118 66.5q-52 0 -86 -30.5t-49 -86t-20 -105.5t-5 -116zM572 1164q0 57 40.5 97.5t97.5 40.5t98.5 -40.5t41.5 -97.5t-41.5 -98.5t-98.5 -41.5 t-97.5 41.5t-40.5 98.5z" />
<glyph unicode="&#xf7;" horiz-adv-x="1184" d="M114 478q0 14 5 41.5t17 42.5h920q8 0 13 -9t5 -19q0 -53 -28 -88h-920q-12 0 -12 32zM466 128q0 51 36.5 87.5t87.5 36.5t87.5 -36.5t36.5 -87.5t-36.5 -87.5t-87.5 -36.5t-87.5 36.5t-36.5 87.5zM466 864q0 51 36.5 87.5t87.5 36.5t87.5 -36.5t36.5 -87.5t-36.5 -87.5 t-87.5 -36.5t-87.5 36.5t-36.5 87.5z" />
<glyph unicode="&#xf8;" horiz-adv-x="1064" d="M64 434q0 190 135.5 325t330.5 135q206 0 338 -126t132 -318q0 -125 -61 -231.5t-168.5 -169.5t-236.5 -63q-206 0 -338 128.5t-132 319.5zM240 8l506 902q68 -25 64 -38l-506 -904q-68 26 -64 40zM348 474q0 -95 20 -183.5t68.5 -154.5t117.5 -66q42 0 73 21.5 t47.5 53.5t26.5 80t12.5 88t2.5 91q0 96 -20.5 185.5t-69.5 156t-118 66.5q-52 0 -86 -30.5t-49 -86t-20 -105.5t-5 -116z" />
<glyph unicode="&#xf9;" horiz-adv-x="1132" d="M18 756.5q0 29.5 7 29.5q104 8 213.5 40t176.5 66q10 -3 22 -16t12 -18q-4 -12 -11 -52.5t-9 -61.5q-2 -44 -2 -126v-180q0 -169 33.5 -247.5t122.5 -78.5q41 0 84.5 25.5t43.5 48.5v334q0 130 -18 164q-10 19 -56.5 29.5t-69.5 10.5q-5 3 -5 32.5t7 29.5q104 8 213.5 40 t176.5 66q10 -3 22 -16t12 -18q-4 -12 -11 -52.5t-9 -61.5q-2 -44 -2 -126v-402q0 -56 18 -76t90 -20q6 -6 6 -26t-12 -38q-51 -5 -132 -22.5t-141.5 -32.5t-70.5 -15q-7 0 -12.5 13.5t-5.5 34.5v32q0 14 -6 10q-24 -16 -56.5 -33t-97 -35t-128.5 -18q-70 0 -121.5 29 t-80 80.5t-41.5 113t-13 135.5v172q0 130 -18 164q-10 19 -56.5 29.5t-69.5 10.5q-5 3 -5 32.5zM267 1292q0 18 23 38t69 20q50 0 68 -18q34 -39 79.5 -105.5t76 -116t30.5 -54.5q0 -9 -12 -22.5t-22 -13.5q-12 0 -87.5 51t-150 118.5t-74.5 102.5z" />
<glyph unicode="&#xfa;" horiz-adv-x="1132" d="M18 756.5q0 29.5 7 29.5q104 8 213.5 40t176.5 66q10 -3 22 -16t12 -18q-4 -12 -11 -52.5t-9 -61.5q-2 -44 -2 -126v-180q0 -169 33.5 -247.5t122.5 -78.5q41 0 84.5 25.5t43.5 48.5v334q0 130 -18 164q-10 19 -56.5 29.5t-69.5 10.5q-5 3 -5 32.5t7 29.5q104 8 213.5 40 t176.5 66q10 -3 22 -16t12 -18q-4 -12 -11 -52.5t-9 -61.5q-2 -44 -2 -126v-402q0 -56 18 -76t90 -20q6 -6 6 -26t-12 -38q-51 -5 -132 -22.5t-141.5 -32.5t-70.5 -15q-7 0 -12.5 13.5t-5.5 34.5v32q0 14 -6 10q-24 -16 -56.5 -33t-97 -35t-128.5 -18q-70 0 -121.5 29 t-80 80.5t-41.5 113t-13 135.5v172q0 130 -18 164q-10 19 -56.5 29.5t-69.5 10.5q-5 3 -5 32.5zM495 1056q0 5 30.5 54.5t76 116t79.5 105.5q18 18 68 18q46 0 69 -20t23 -38q0 -35 -74.5 -102.5t-150 -118.5t-87.5 -51q-10 0 -22 13.5t-12 22.5z" />
<glyph unicode="&#xfb;" horiz-adv-x="1132" d="M18 756.5q0 29.5 7 29.5q104 8 213.5 40t176.5 66q10 -3 22 -16t12 -18q-4 -12 -11 -52.5t-9 -61.5q-2 -44 -2 -126v-180q0 -169 33.5 -247.5t122.5 -78.5q41 0 84.5 25.5t43.5 48.5v334q0 130 -18 164q-10 19 -56.5 29.5t-69.5 10.5q-5 3 -5 32.5t7 29.5q104 8 213.5 40 t176.5 66q10 -3 22 -16t12 -18q-4 -12 -11 -52.5t-9 -61.5q-2 -44 -2 -126v-402q0 -56 18 -76t90 -20q6 -6 6 -26t-12 -38q-51 -5 -132 -22.5t-141.5 -32.5t-70.5 -15q-7 0 -12.5 13.5t-5.5 34.5v32q0 14 -6 10q-24 -16 -56.5 -33t-97 -35t-128.5 -18q-70 0 -121.5 29 t-80 80.5t-41.5 113t-13 135.5v172q0 130 -18 164q-10 19 -56.5 29.5t-69.5 10.5q-5 3 -5 32.5zM305 1066q48 48 132 156q42 55 78 114q11 20 26 20q4 0 7.5 -1.5t5 -3.5t5.5 -7t6 -8q6 -8 29.5 -42.5t44.5 -61.5q88 -116 138 -166q0 -15 -5.5 -29t-12.5 -17q-16 5 -97 59.5 t-121 88.5q-40 -34 -117.5 -86t-100.5 -62q-7 3 -12.5 17t-5.5 29z" />
<glyph unicode="&#xfc;" horiz-adv-x="1132" d="M18 756.5q0 29.5 7 29.5q104 8 213.5 40t176.5 66q10 -3 22 -16t12 -18q-4 -12 -11 -52.5t-9 -61.5q-2 -44 -2 -126v-180q0 -169 33.5 -247.5t122.5 -78.5q41 0 84.5 25.5t43.5 48.5v334q0 130 -18 164q-10 19 -56.5 29.5t-69.5 10.5q-5 3 -5 32.5t7 29.5q104 8 213.5 40 t176.5 66q10 -3 22 -16t12 -18q-4 -12 -11 -52.5t-9 -61.5q-2 -44 -2 -126v-402q0 -56 18 -76t90 -20q6 -6 6 -26t-12 -38q-51 -5 -132 -22.5t-141.5 -32.5t-70.5 -15q-7 0 -12.5 13.5t-5.5 34.5v32q0 14 -6 10q-24 -16 -56.5 -33t-97 -35t-128.5 -18q-70 0 -121.5 29 t-80 80.5t-41.5 113t-13 135.5v172q0 130 -18 164q-10 19 -56.5 29.5t-69.5 10.5q-5 3 -5 32.5zM211 1164q0 57 41.5 97.5t98.5 40.5t97.5 -40.5t40.5 -97.5t-40.5 -98.5t-97.5 -41.5t-98.5 41.5t-41.5 98.5zM589 1164q0 57 40.5 97.5t97.5 40.5t98.5 -40.5t41.5 -97.5 t-41.5 -98.5t-98.5 -41.5t-97.5 41.5t-40.5 98.5z" />
<glyph unicode="&#xfd;" horiz-adv-x="1068" d="M-7.5 850.5q0.5 25.5 7.5 35.5q121 -14 270 -14q135 0 252 14q8 -8 8 -36.5t-8 -37.5q-27 0 -72.5 -16t-45.5 -38q0 -20 4 -30l206 -394q92 202 158 350q22 44 22 74q0 17 -19 29t-47 17t-46 6.5t-30 1.5q-7 7 -7.5 35.5t5.5 38.5q105 -14 210 -14q103 0 208 14 q6 -8 6.5 -35.5t-6.5 -38.5q-20 0 -47.5 -3.5t-64.5 -20t-50 -42.5q-204 -433 -330 -696q-11 -24 -40 -86t-41.5 -86.5t-38.5 -67t-56 -79.5q-134 -167 -254 -167q-60 0 -97 31.5t-37 74.5q0 62 46 94q129 0 200.5 30t129.5 126q30 51 70 142l-332 674q-17 39 -59.5 57.5 t-66.5 18.5q-8 13 -7.5 38.5zM524 1056q0 5 30.5 54.5t76 116t79.5 105.5q18 18 68 18q46 0 69 -20t23 -38q0 -35 -74.5 -102.5t-150 -118.5t-87.5 -51q-10 0 -22 13.5t-12 22.5z" />
<glyph unicode="&#xfe;" horiz-adv-x="1070" d="M-15.5 -400q-0.5 27 6.5 38q118 9 128 36q16 40 16 188v1254q0 62 -14 96q-7 16 -50 26t-70 10q-4 0 -6 14.5t-0.5 30t6.5 19.5q63 6 125 16t106.5 20.5t79.5 20t54.5 15.5t20.5 6q8 -1 18 -13.5t12 -20.5q-22 -124 -22 -204v-364q0 -6 1 -8q2 -9 7 -4q47 50 107 85 t105 35q117 0 208 -61t137.5 -158t46.5 -209q0 -110 -45.5 -204t-117.5 -153.5t-157.5 -93t-169.5 -33.5q-25 0 -52 4.5t-44.5 9t-19.5 4.5q-6 0 -6 -32v-108q0 -148 16 -188q10 -27 128 -36q7 -11 6.5 -38t-6.5 -36q-137 14 -274 14t-274 -14q-6 9 -6.5 36zM395 192 q0 -57 40 -88.5t96 -31.5q27 0 57.5 19t60.5 56t50 103t20 148q0 352 -214 352q-34 0 -61 -12.5t-38 -24.5t-11 -19v-502z" />
<glyph unicode="&#xff;" horiz-adv-x="1068" d="M-7.5 850.5q0.5 25.5 7.5 35.5q121 -14 270 -14q135 0 252 14q8 -8 8 -36.5t-8 -37.5q-27 0 -72.5 -16t-45.5 -38q0 -20 4 -30l206 -394q92 202 158 350q22 44 22 74q0 17 -19 29t-47 17t-46 6.5t-30 1.5q-7 7 -7.5 35.5t5.5 38.5q105 -14 210 -14q103 0 208 14 q6 -8 6.5 -35.5t-6.5 -38.5q-20 0 -47.5 -3.5t-64.5 -20t-50 -42.5q-204 -433 -330 -696q-11 -24 -40 -86t-41.5 -86.5t-38.5 -67t-56 -79.5q-134 -167 -254 -167q-60 0 -97 31.5t-37 74.5q0 62 46 94q129 0 200.5 30t129.5 126q30 51 70 142l-332 674q-17 39 -59.5 57.5 t-66.5 18.5q-8 13 -7.5 38.5zM240 1164q0 57 41.5 97.5t98.5 40.5t97.5 -40.5t40.5 -97.5t-40.5 -98.5t-97.5 -41.5t-98.5 41.5t-41.5 98.5zM618 1164q0 57 40.5 97.5t97.5 40.5t98.5 -40.5t41.5 -97.5t-41.5 -98.5t-98.5 -41.5t-97.5 41.5t-40.5 98.5z" />
<glyph unicode="&#x152;" horiz-adv-x="2030" d="M80 656q0 182 95 337.5t250 244t329 88.5q113 0 259.5 -6t174.5 -6q48 0 330.5 6.5t319.5 7.5q6 -45 16 -95t23.5 -112.5t18.5 -88.5q-10 -10 -46 -10q-26 0 -32 16q-18 47 -35 79t-42.5 62.5t-60 45.5t-78.5 15h-166q-89 0 -100 -24q-10 -24 -10 -122v-358 q0 -9 26 -15.5t60 -6.5h106q88 0 120 26t56 114q3 16 24 16q28 0 38 -10v-384q-8 -8 -36 -8q-25 0 -28 16q-26 102 -70 122q-34 14 -152 14q-144 0 -144 -28v-310q0 -118 16 -158q8 -19 47 -29.5t83 -10.5h132q120 0 186 66q58 58 108 190q3 12 28 12q16 0 36 -4t24 -8 q-4 -12 -23.5 -66t-28 -79t-22.5 -68t-22 -74.5t-12 -56.5q-432 0 -702 -1q-60 0 -122 -0.5t-103 -0.5h-49h-1h-1h-1h-1h-1h1h1h1h1h1h1h1h1h1h1h1h1h1h1h1h1h1h1h1h1h1h1h1h1h1h1h1h1h1h1h1h1h1h1h1h1h1h1h1h1h1h1h1h1h1h1h1h1h1h1h1h1h-1h-1h-1h-1h-1h-1h-1h-1h-1h-1h-1 h-1h-1h-1h-1h-1h-1h-1h-1h-1h-1h-1h-1h-1h-1h-1h-1h-1h-1h-1h-1h-1h-1h-1h-1h-1h-1h-1h-1h-1h-1h-1h-1h-1h-1h-1h-1h-1h-1h-1h-1h-1h-1h-1h-1h-1h-1h-1h-1h-1h-1h-1h-1h-1h-1h-1h-1h-1h-1h-1h-1h-1h-1h-1h-1h-1h-1h-1h-1h-1h-1h-1h-1h-1h-1h-1h-1h-1h-1h-1h-1h-1h-1h-1h-1 h-1h-1h-1h-1h-1h-1h-1h-1h-1h-1h-1h-1h-1h-1h-1h-1h-1h-1h-1h-1h-1h-1h-1h-1h-1h-1h-1h-1h-1h-1h-1h-1h-1h-1h-1h-1h-1h-1h-1h-1h-1h-1h-1h-1h-1h-1h-1h-1h-1h-1h-1h-1h-1h-1h-1h-1h-1h-1h-1h-1h-1h-1h-1h-1h-1h-1h-1h-1h-1h-1h-1h-1h-1h-1h-1h-1h-1h-1h-1h-1h-1h-1h-1h-1 h-1h-1h-10q-175 0 -330.5 86.5t-251.5 240t-96 335.5zM382 726q0 -95 14 -185.5t46 -176t79 -149.5t118 -102.5t157 -38.5q58 0 120 16t88 48q42 51 42 160v664q0 133 -66 202q-76 80 -274 80q-85 0 -149.5 -46t-101.5 -123t-55 -165t-18 -184z" />
<glyph unicode="&#x153;" horiz-adv-x="1572" d="M64 434q0 190 135.5 325t330.5 135q209 0 342 -130q59 61 134.5 95.5t153.5 34.5q75 0 136.5 -20.5t100 -52.5t65 -73t37.5 -80t11 -76q0 -33 -16 -58t-38 -26q-180 -16 -480 -24q0 -80 21 -142t51.5 -97t70.5 -57.5t73 -30t64 -7.5q133 0 224 100q10 -3 17 -14.5 t7 -21.5q0 -29 -6 -38q-16 -25 -46 -54.5t-76 -62.5t-109.5 -55t-130.5 -22q-176 0 -298 116q-132 -112 -304 -112q-206 0 -338 128.5t-132 319.5zM348 474q0 -95 20 -183.5t68.5 -154.5t117.5 -66q42 0 73 21.5t47.5 53.5t26.5 80t12.5 88t2.5 91q0 96 -20.5 185.5 t-69.5 156t-118 66.5q-52 0 -86 -30.5t-49 -86t-20 -105.5t-5 -116zM978 564q13 -1 117.5 5t140.5 11q26 2 26 32q0 80 -30 140t-92 60q-41 0 -74.5 -28.5t-51.5 -70.5t-27 -81t-9 -68z" />
<glyph unicode="&#x178;" horiz-adv-x="1248" d="M0.5 1288q0.5 27 6.5 36q137 -14 286 -14q145 0 282 14q6 -9 6.5 -36t-6.5 -38q-1 0 -11 -0.5t-15 -1t-17 -2t-19 -3.5t-17.5 -4.5t-17 -6.5t-13 -9t-9.5 -12t-3 -15t14 -32l240 -442q7 -7 85.5 131.5t166.5 302.5q10 20 10 46q0 37 -148 48q-7 11 -6.5 38t6.5 36 q165 -14 226 -14q51 0 124.5 6.5t99.5 7.5q6 -9 6.5 -36t-6.5 -38l-13 -1q-12 -1 -17.5 -1.5t-19.5 -2t-23 -4t-21.5 -6t-21.5 -8.5t-18 -12t-14 -15q-54 -82 -191.5 -305t-174.5 -299q-10 -20 -10 -38v-268q-2 -144 16 -188q10 -27 128 -36q7 -11 6.5 -38t-6.5 -36 q-137 14 -286 14q-145 0 -282 -14q-6 9 -6.5 36t6.5 38q118 9 128 36q3 7 5 14t3.5 16.5t2.5 16.5t2 20t1.5 20t0.5 23.5t0.5 23.5t0.5 27v27v278q0 13 -12 40q-23 48 -85 164q-62 118 -114 210l-51 92q-33 62 -62 110q-19 32 -61 47.5t-75 18.5q-7 11 -6.5 38zM309 1594 q0 57 38.5 95.5t95.5 38.5t96.5 -38.5t39.5 -95.5t-39.5 -96.5t-96.5 -39.5t-95.5 39.5t-38.5 96.5zM719 1594q0 57 39.5 95.5t96.5 38.5t96.5 -38.5t39.5 -95.5t-39.5 -96.5t-96.5 -39.5t-96.5 39.5t-39.5 96.5z" />
<glyph unicode="&#x2000;" horiz-adv-x="870" />
<glyph unicode="&#x2001;" horiz-adv-x="1740" />
<glyph unicode="&#x2002;" horiz-adv-x="870" />
<glyph unicode="&#x2003;" horiz-adv-x="1740" />
<glyph unicode="&#x2004;" horiz-adv-x="580" />
<glyph unicode="&#x2005;" horiz-adv-x="435" />
<glyph unicode="&#x2006;" horiz-adv-x="290" />
<glyph unicode="&#x2007;" horiz-adv-x="290" />
<glyph unicode="&#x2008;" horiz-adv-x="217" />
<glyph unicode="&#x2009;" horiz-adv-x="348" />
<glyph unicode="&#x200a;" horiz-adv-x="96" />
<glyph unicode="&#x2010;" horiz-adv-x="750" d="M112 420q0 50 30 114q416 22 482 24q14 0 14 -18q0 -56 -30 -120q-41 -3 -482 -22q-14 0 -14 22z" />
<glyph unicode="&#x2011;" horiz-adv-x="750" d="M112 420q0 50 30 114q416 22 482 24q14 0 14 -18q0 -56 -30 -120q-41 -3 -482 -22q-14 0 -14 22z" />
<glyph unicode="&#x2012;" horiz-adv-x="750" d="M112 420q0 50 30 114q416 22 482 24q14 0 14 -18q0 -56 -30 -120q-41 -3 -482 -22q-14 0 -14 22z" />
<glyph unicode="&#x2013;" horiz-adv-x="1120" d="M116 406q0 23 7 76.5t21 53.5h850q12 0 12 -18q0 -44 -18 -116q-2 -5 -6 -8.5t-6 -4.5l-2 -1h-846h-3t-5.5 4.5t-3.5 13.5z" />
<glyph unicode="&#x2014;" horiz-adv-x="1888" d="M116 406q0 23 7 76.5t21 53.5h1620q12 0 12 -18q0 -44 -18 -116q-2 -5 -6 -8.5t-6 -4.5l-2 -1h-1616h-3t-5.5 4.5t-3.5 13.5z" />
<glyph unicode="&#x2018;" horiz-adv-x="420" d="M90 1096q0 128 86 226q76 84 138 121q28 16 36 15q14 0 28.5 -12t21.5 -31q-140 -86 -140 -177q0 -77 48 -130q53 -58 53 -86q0 -44 -45 -82t-101 -38q-54 0 -89 26q-36 52 -36 168z" />
<glyph unicode="&#x2019;" horiz-adv-x="420" d="M70 945q140 86 140 177q0 77 -48 130q-53 58 -53 86q0 44 45 82t101 38q54 0 89 -26q36 -52 36 -168q0 -128 -86 -226q-76 -84 -138 -121q-28 -16 -36 -15q-14 0 -28.5 12t-21.5 31z" />
<glyph unicode="&#x201a;" horiz-adv-x="420" d="M40 -217q140 86 140 177q0 77 -48 130q-53 58 -53 86q0 44 45 82t101 38q54 0 89 -26q36 -52 36 -168q0 -128 -86 -226q-76 -84 -138 -121q-28 -16 -36 -15q-14 0 -28.5 12t-21.5 31z" />
<glyph unicode="&#x201c;" horiz-adv-x="766" d="M90 1096q0 128 86 226q76 84 138 121q28 16 36 15q14 0 28.5 -12t21.5 -31q-140 -86 -140 -177q0 -77 48 -130q53 -58 53 -86q0 -44 -45 -82t-101 -38q-54 0 -89 26q-36 52 -36 168zM436 1096q0 128 86 226q76 84 138 121q28 16 36 15q14 0 28.5 -12t21.5 -31 q-140 -86 -140 -177q0 -77 48 -130q53 -58 53 -86q0 -44 -45 -82t-101 -38q-54 0 -89 26q-36 52 -36 168z" />
<glyph unicode="&#x201d;" horiz-adv-x="766" d="M70 945q140 86 140 177q0 77 -48 130q-53 58 -53 86q0 44 45 82t101 38q54 0 89 -26q36 -52 36 -168q0 -128 -86 -226q-76 -84 -138 -121q-28 -16 -36 -15q-14 0 -28.5 12t-21.5 31zM416 945q140 86 140 177q0 77 -48 130q-53 58 -53 86q0 44 45 82t101 38q54 0 89 -26 q36 -52 36 -168q0 -128 -86 -226q-76 -84 -138 -121q-28 -16 -36 -15q-14 0 -28.5 12t-21.5 31z" />
<glyph unicode="&#x201e;" horiz-adv-x="766" d="M40 -217q140 86 140 177q0 77 -48 130q-53 58 -53 86q0 44 45 82t101 38q54 0 89 -26q36 -52 36 -168q0 -128 -86 -226q-76 -84 -138 -121q-28 -16 -36 -15q-14 0 -28.5 12t-21.5 31zM386 -217q140 86 140 177q0 77 -48 130q-53 58 -53 86q0 44 45 82t101 38q54 0 89 -26 q36 -52 36 -168q0 -128 -86 -226q-76 -84 -138 -121q-28 -16 -36 -15q-14 0 -28.5 12t-21.5 31z" />
<glyph unicode="&#x2022;" horiz-adv-x="842" d="M142 526q0 116 82.5 199t197.5 83t196.5 -83t81.5 -199t-81.5 -198t-196.5 -82q-116 0 -198 82t-82 198z" />
<glyph unicode="&#x2026;" horiz-adv-x="1580" d="M84 132q0 60 44 103t106 43t106 -45.5t44 -106.5q0 -60 -43.5 -104t-104.5 -44q-63 0 -107.5 45t-44.5 109zM640 132q0 60 44 103t106 43t106 -45.5t44 -106.5q0 -60 -43.5 -104t-104.5 -44q-63 0 -107.5 45t-44.5 109zM1196 132q0 60 44 103t106 43t106 -45.5t44 -106.5 q0 -60 -43.5 -104t-104.5 -44q-63 0 -107.5 45t-44.5 109z" />
<glyph unicode="&#x202f;" horiz-adv-x="348" />
<glyph unicode="&#x2039;" horiz-adv-x="630" d="M52 496q0 16 14 30q54 32 105 66.5t91 64.5t75.5 58.5t61.5 51.5t44.5 39.5t30 27.5t12.5 12q12 -2 30.5 -13.5t23.5 -24.5q-5 -8 -54.5 -68t-115 -136t-98.5 -108q33 -32 98.5 -108t115 -136t54.5 -68q-5 -13 -23.5 -24.5t-30.5 -13.5q-1 1 -12.5 12t-30 27.5 t-44.5 39.5t-61.5 51.5t-75.5 58.5t-91 64.5t-105 66.5q-14 14 -14 30z" />
<glyph unicode="&#x203a;" horiz-adv-x="630" d="M90 184q5 8 54.5 68t115 136t98.5 108q-33 32 -98.5 108t-115 136t-54.5 68q5 13 23.5 24.5t30.5 13.5q1 -1 12.5 -12t30 -27.5t44.5 -39.5t61.5 -51.5t75.5 -58.5t91 -64.5t105 -66.5q14 -14 14 -30t-14 -30q-54 -32 -105 -66.5t-91 -64.5t-75.5 -58.5t-61.5 -51.5 t-44.5 -39.5t-30 -27.5t-12.5 -12q-12 2 -30.5 13.5t-23.5 24.5z" />
<glyph unicode="&#x205f;" horiz-adv-x="435" />
<glyph unicode="&#x20ac;" horiz-adv-x="1432" d="M81 504q-9 9 9 46.5t31 37.5h39q-1 16 -1 32q0 49 7 96h-85q-9 9 9 46.5t31 37.5h64q11 38 27 76q54 122 144.5 211.5t216 143t262.5 53.5q236 0 410 -36q0 -1 33 -139.5t33 -152.5q0 -9 -17 -18.5t-35 -9.5t-26 8q-7 28 -20 57t-42.5 68.5t-69 69t-104.5 50.5t-144 21 q-101 0 -178.5 -43.5t-124 -118t-70.5 -166.5q-9 -36 -14 -74h401q14 -12 10 -30t-13.5 -33.5t-16.5 -20.5h-389q-1 -19 -1 -38q0 -46 4 -90h406q14 -12 10 -30t-13.5 -33.5t-16.5 -20.5h-374q5 -24 11 -48q26 -106 77.5 -193.5t136.5 -140t193 -52.5q149 0 244 84 q37 33 71 91t48.5 95t18.5 52q43 0 68 -22q0 -28 -30.5 -157t-49.5 -137q-87 -31 -131 -45t-129 -29.5t-170 -15.5q-182 0 -337 85t-245 231q-59 95 -79 202h-89z" />
<glyph unicode="&#x25fc;" horiz-adv-x="885" d="M0 0v885h885v-885h-885z" />
</font>
</defs>
</svg>
