<?xml version="1.0" encoding="UTF-8" standalone="no"?>
<!-- Created with Inkscape (http://www.inkscape.org/) -->

<svg
   xmlns:dc="http://purl.org/dc/elements/1.1/"
   xmlns:cc="http://creativecommons.org/ns#"
   xmlns:rdf="http://www.w3.org/1999/02/22-rdf-syntax-ns#"
   xmlns:svg="http://www.w3.org/2000/svg"
   xmlns="http://www.w3.org/2000/svg"
   xmlns:sodipodi="http://sodipodi.sourceforge.net/DTD/sodipodi-0.dtd"
   xmlns:inkscape="http://www.inkscape.org/namespaces/inkscape"
   width="210mm"
   height="297mm"
   viewBox="0 0 744.09448819 1052.3622047"
   id="svg2"
   version="1.1"
   inkscape:version="0.91 r13725"
   sodipodi:docname="essaie 01.svg">
  <defs
     id="defs4" />
  <sodipodi:namedview
     id="base"
     pagecolor="#ffffff"
     bordercolor="#666666"
     borderopacity="1.0"
     inkscape:pageopacity="0.0"
     inkscape:pageshadow="2"
     inkscape:zoom="0.21181199"
     inkscape:cx="282.00185"
     inkscape:cy="229.71723"
     inkscape:document-units="px"
     inkscape:current-layer="layer2"
     showgrid="false"
     inkscape:window-width="1280"
     inkscape:window-height="708"
     inkscape:window-x="-1"
     inkscape:window-y="1"
     inkscape:window-maximized="0" />
  <metadata
     id="metadata7">
    <rdf:RDF>
      <cc:Work
         rdf:about="">
        <dc:format>image/svg+xml</dc:format>
        <dc:type
           rdf:resource="http://purl.org/dc/dcmitype/StillImage" />
        <dc:title></dc:title>
      </cc:Work>
    </rdf:RDF>
  </metadata>
  <g
     inkscape:label="Layer 1"
     inkscape:groupmode="layer"
     id="layer1"
     style="display:none"
     sodipodi:insensitive="true">
    <path
       style="fill:#00ffcc;fill-rule:nonzero;stroke-width:1.00200105;stroke-miterlimit:10;stroke-dasharray:none;stroke-dashoffset:0"
       id="path4143"
       d="m 198.54436,261.66416 c -17.68688,15.54497 -51.52155,23.13805 -53.06064,46.63493 -1.61155,24.60311 27.7363,41.43221 46.2235,57.7458 44.9512,39.66612 89.66627,57.06112 147.09644,69.38899 15.80058,3.39173 37.25907,15.07108 48.36683,3.33311 14.66817,-15.50038 5.68255,-42.30101 8.52383,-63.45152 -67.27284,88.9268 -74.76971,-37.4865 -52.95098,-38.63348 47.70873,-2.50798 98.92257,-1.11565 141.97933,19.58527 15.96479,7.67558 2.27145,35.7788 8.02302,52.53317 8.18632,23.84678 32.98837,39.51809 50.80423,54.17397 8.35735,12.92491 16.7147,25.84981 25.07204,38.77472 C 602.02907,604.57098 456.617,651.81576 423.20989,548.9939 l 0,0 c 4.72163,-2.07901 9.44325,-4.15802 14.16488,-6.23703 -4.36069,-16.03449 -3.37621,-28.48319 -27.5499,-30.20329 -10.25863,-0.72996 -39.43934,6.92134 -29.42724,9.27299 35.20903,8.26991 72.11853,12.76704 108.11022,9.2081 6.96853,-0.68907 11.9984,-19.68159 5.03241,-20.3959 -24.6301,-2.52564 -48.70352,8.94709 -73.05529,13.42064 -12.50283,-21.34092 -19.82323,-46.73152 -37.5085,-64.02276 C 371.02573,448.35217 351.64086,448.35736 336.29199,441.74226 312.25801,431.38402 288.33011,420.73459 264.87013,409.13483 239.31297,396.49812 214.3651,382.66067 189.30506,369.06475 165.91052,356.37243 145.12533,337.5149 119.51346,330.27393 78.261471,318.61119 34.526329,318.95268 -7.9672348,313.29205 -44.473673,167.2663 162.03793,115.6384 198.54436,261.66416 Z"
       inkscape:connector-curvature="0" />
    <path
       style="fill:#00ffcc;fill-rule:nonzero;stroke-width:1.00200105;stroke-miterlimit:10;stroke-dasharray:none;stroke-dashoffset:0"
       id="path4145"
       d="m 317.15049,573.20982 c -10.04839,6.3165 -21.07767,11.29126 -30.14516,18.94952 -21.662,18.29542 -31.12215,28.23203 -26.50209,56.84859 1.0498,6.50244 4.23629,13.57588 9.74174,17.19164 28.70439,18.85194 24.92657,9.75765 22.52525,-0.11245 5.90983,-1.13572 12.26838,-5.93546 17.72948,-3.40717 30.93231,14.32052 28.96347,38.35513 32.83057,68.38319 5.0566,39.26465 7.22992,76.01226 -35.16714,104.64963 -22.40842,15.13591 -53.27834,9.29251 -79.91751,13.93877 -22.34109,-12.94776 -53.58478,-36.58693 -82.81427,-36.84283 -17.43103,-0.15261 -39.0112,12.25765 -48.926735,26.42728 -4.342068,6.20497 -14.439156,18.52829 -7.456888,21.46139 19.122193,8.0328 41.469123,1.02435 62.203683,1.53653 73.69967,-161.92823 86.83633,-90.61715 44.84422,-164.83602 -1.95015,-3.4468 6.18994,5.79789 6.85829,9.70134 0.8501,4.96498 1.64675,12.24839 -2.6499,14.87755 -13.52596,8.27667 -30.21114,9.64913 -45.31672,14.47369 71.41173,47.72763 3.91466,148.71907 -67.497064,100.99144 l 0,0 c -32.608868,-4.43828 -65.206269,-8.96165 -97.826605,-13.31484 -2.187487,-0.29192 -4.756401,-1.84557 -6.591563,-0.61981 -1.421181,0.94926 5.35656,3.43466 4.792747,1.82129 -4.346256,-12.43693 -19.056798,-22.87411 -16.678292,-35.83212 9.25668,-50.43004 33.3058302,-96.98568 49.958745,-145.47853 23.545996,0.79877 47.691353,-2.9426 70.637989,2.39631 6.875939,1.59979 8.757833,11.09577 12.653943,16.98289 6.64794,10.04524 9.84882,22.87887 18.94942,30.77071 8.5489,7.41343 46.01875,14.57919 55.28754,3.37017 8.3173,-10.05835 4.8109,-25.65632 7.21634,-38.48448 -13.54437,6.09289 -30.14432,7.764 -40.63313,18.27868 -19.9213,19.97044 -31.9648,44.56979 -23.57152,70.78054 2.7955,8.72983 7.68007,16.69741 12.50053,24.49407 1.66084,2.68625 5.6728,9.61401 6.75264,6.64613 2.61907,-7.19844 -0.54326,-15.31056 -0.81489,-22.96584 -3.55202,-12.76912 -9.73967,-25.08512 -10.65606,-38.30735 -0.73906,-10.66364 4.41553,-20.93878 5.81544,-31.53594 1.64057,-12.41899 2.90966,-24.91492 3.29588,-37.43586 0.3063,-9.92958 3.11376,-20.8399 -1.22258,-29.77783 -3.90825,-8.05554 -38.909554,-38.21733 -47.695886,-46.02028 0,-160.85941 227.489556,-160.85941 227.489556,0 z"
       inkscape:connector-curvature="0" />
    <path
       style="fill:#00ffcc;fill-rule:nonzero;stroke-width:1.00200105;stroke-miterlimit:10;stroke-dasharray:none;stroke-dashoffset:0"
       id="path4147"
       d="m 421.35515,807.55925 c 17.82123,11.35647 32.70199,30.13014 53.46368,34.06942 23.16867,4.39597 48.95951,0.1137 69.93906,-10.65526 18.15044,-9.31676 29.7781,-28.5603 40.39689,-45.98102 21.33119,-34.99504 23.9032,-62.79044 -9.87549,-93.25176 -11.04879,-9.96369 -28.1921,-9.51888 -42.28815,-14.27832 63.02785,-149.27648 274.13667,-60.14165 211.10883,89.13483 l 0,0 c -8.58245,-0.63176 -103.88341,-8.70213 -115.10332,-5.56841 -15.55485,4.34446 -27.78296,16.84864 -39.77405,27.6672 -15.2151,13.72734 -31.43766,27.56374 -41.33281,45.5088 -27.22394,49.37118 -24.05103,96.95419 -27.79194,151.09136 -125.67893,69.82161 -224.42162,-107.91521 -98.7427,-177.73684 z"
       inkscape:connector-curvature="0" />
    <path
       style="fill:#00ffcc;fill-rule:nonzero;stroke-width:1.00200105;stroke-miterlimit:10;stroke-dasharray:none;stroke-dashoffset:0"
       id="path4155"
       d="m 292.10002,38.784103 c -0.18212,21.965 -8.00397,45.233956 -0.54638,65.894997 17.80155,49.31869 63.36793,49.94198 102.74908,67.6992 17.28162,7.7924 33.58683,17.62273 49.92571,27.23608 14.12232,8.30918 31.15068,13.71657 41.40235,26.49882 11.25191,14.02941 13.35282,33.39793 20.02923,50.09689 4.1044,37.85167 -49.42594,43.65616 -53.53033,5.8045 l 0,0 c 5.81721,-29.57862 15.90999,-49.95394 -10.26869,-77.99496 -12.77335,-13.68204 -32.46891,-18.75876 -49.53162,-26.45422 -20.22446,-9.12144 -40.07849,-21.3639 -62.11914,-23.90143 -50.0367,-5.7607 -96.60532,23.97315 -138.73756,43.24881 C 79.658802,125.75851 180.28615,-32.370177 292.10002,38.784103 Z"
       inkscape:connector-curvature="0" />
    <path
       style="fill:#00ffcc;fill-rule:nonzero;stroke-width:1.00200105;stroke-miterlimit:10;stroke-dasharray:none;stroke-dashoffset:0"
       id="path4157"
       d="m 725.59467,165.79493 c -39.35145,26.68774 -80.79948,54.51056 -87.72414,106.25272 -1.91348,14.29777 -1.56962,30.18115 5.09444,42.97483 0.76046,1.45994 56.09494,50.79926 60.53565,54.77237 9.94816,6.97375 19.89632,13.9475 29.84447,20.92125 C 707.77803,550.51023 481.795,514.35295 507.36206,354.55881 l 0,0 c 3.48861,0.45133 6.97722,0.90265 10.46583,1.35397 29.00454,-7.6288 58.75258,-8.81756 74.68069,-40.8903 6.38311,-12.85302 4.05479,-28.69996 2.58097,-42.97483 -1.58007,-15.30394 -2.78693,-32.07648 -11.62958,-44.66675 -5.33239,-7.59232 -62.84588,-50.76393 -77.06219,-61.58597 0,-154.995606 219.19689,-154.995606 219.19689,0 z"
       inkscape:connector-curvature="0" />
    <path
       style="fill:#00ffcc;fill-rule:nonzero;stroke-width:1.00200105;stroke-miterlimit:10;stroke-dasharray:none;stroke-dashoffset:0"
       id="path4161"
       d="m -36.650384,1121.3765 c 21.134803,-11.7599 105.285784,-57.1961 123.698417,-73.0386 14.613707,-12.5738 26.121177,-28.7254 35.924707,-45.3251 8.30037,-14.05456 17.31323,-29.30714 17.78756,-45.62282 0.63828,-21.955 -23.91458,-44.36839 -14.59311,-64.25657 11.98949,-25.58066 45.50462,-33.49333 68.25693,-50.24 114.11701,155.26064 152.89705,106.14002 83.42316,168.19959 -56.73137,147.2315 -264.948051,67.0012 -208.216676,-80.23024 l 0,0 c -49.534122,45.20443 -8.394952,3.63084 95.388726,147.26894 17.54432,-22.1612 51.95224,-38.2265 52.63295,-66.4835 0.47243,-19.61124 -30.73335,-29.08989 -50.29524,-30.55815 -16.01228,-1.20184 -30.47765,12.42492 -41.97673,23.63245 -13.5683,13.2243 -27.765358,28.9305 -31.091386,47.583 -9.060961,50.8144 14.194356,64.9971 41.691016,95.6295 -18.7797,122.0681 -191.410028,95.5096 -172.630324,-26.5585 z"
       inkscape:connector-curvature="0" />
  </g>
  <g
     inkscape:groupmode="layer"
     id="layer2"
     inkscape:label="Layer 2"
     style="display:inline">
    <path
       style="fill:#d40055;fill-rule:nonzero;stroke-width:1.00200105;stroke-miterlimit:10;stroke-dasharray:none;stroke-dashoffset:0"
       id="path4166"
       d="m -74.45162,-58.515843 c 15.774381,31.024739 27.514141,64.4565822 47.323142,93.074216 C 23.30448,107.41777 111.36699,192.66839 171.58912,257.51417 c 24.78278,26.68552 65.86569,96.10087 118.30694,94.10947 15.18544,-0.57666 25.89482,-15.91161 38.84223,-23.86741 -35.96653,30.36915 -71.93307,60.7383 -107.89961,91.10745 -2.04766,2.88734 -9.36152,10.13539 -6.14299,8.66203 44.55218,-20.39475 89.81403,-39.99624 131.35503,-65.98063 3.90685,-2.44379 -4.59577,-8.66298 -8.71251,-10.73373 -1.75941,-0.885 -4.60682,2.44779 -4.02172,4.32831 1.72512,5.54458 6.56055,9.58294 9.84083,14.37441 12.80956,6.97101 5.91008,1.71165 17.58038,19.19119 34.3759,106.76751 -116.61616,155.38238 -150.99206,48.61487 l 0,0 c 15.26762,11.19265 10.20882,13.19555 15.84054,-3.93753 -2.25843,-1.89786 -4.64695,-3.65091 -6.77531,-5.69357 -5.20802,-4.99831 -43.89995,-40.66582 -33.89433,-50.03054 35.75531,-33.46502 82.93689,-52.80312 127.73824,-72.58163 4.7453,-2.09491 13.43868,7.45004 10.35193,11.61879 -28.94735,39.09426 -65.74025,71.71793 -98.61037,107.57689 8.95018,-12.62155 24.87374,-22.51858 26.85053,-37.86463 6.85815,-53.24052 -56.86022,-97.68034 -82.6846,-126.24057 C 135.97972,224.13297 104.14555,187.42877 72.024756,150.98219 -52.009783,10.243574 16.512546,60.610042 -118.75049,-12.203382 c -32.74786,-31.324035 11.55102,-77.636496 44.29887,-46.312461 z"
       inkscape:connector-curvature="0" />
    <path
       style="fill:#d40055;fill-rule:nonzero;stroke-width:1.00200105;stroke-miterlimit:10;stroke-dasharray:none;stroke-dashoffset:0"
       id="path4170"
       d="m 430.54273,181.19641 c 4.82673,331.15524 -11.33441,-43.23796 58.49766,404.36864 11.24716,72.09151 -0.26623,147.27706 16.62527,218.25848 8.90277,37.41118 33.112,70.67702 58.91787,99.18864 11.58685,12.80174 60.86877,7.42743 48.14871,19.1039 -28.85123,26.4842 -73.98634,25.71472 -110.97951,38.57208 3.68991,-8.82773 7.37982,-17.65546 11.06973,-26.48319 -31.38577,-76.50282 76.80556,-120.88901 108.19133,-44.38619 l 0,0 c 7.54003,4.99227 15.08005,9.98454 22.62008,14.97681 -34.20292,16.05152 -64.83043,48.69207 -102.60875,48.15455 -17.93734,-0.25522 24.65686,-31.63684 21.56561,-49.30765 -6.48246,-37.05646 -39.53671,-65.47333 -48.0548,-102.11546 C 498.1255,730.93455 505.38961,656.16619 488.66725,585.64696 456.53007,450.12252 387.34938,325.29567 360.34956,187.98929 c -4.80329,-49.63406 65.38987,-56.42695 70.19317,-6.79288 z"
       inkscape:connector-curvature="0" />
    <path
       style="fill:#d40055;fill-rule:nonzero;stroke-width:1.00200105;stroke-miterlimit:10;stroke-dasharray:none;stroke-dashoffset:0"
       id="path4172"
       d="m -162.34154,1079.3974 c 13.65601,-25.95 18.19902,-59.3713 40.96803,-77.8499 32.179168,-26.11557 78.134234,-28.55327 114.5401361,-48.35564 C 274.56803,800.12829 21.734982,917.00962 299.38836,724.72086 c 278.03058,-192.54998 17.73533,37.40412 180.9249,-113.01036 -61.96751,-156.54869 12.96229,30.24227 19.89143,65.64749 1.6055,8.20346 -13.51551,-10.76087 -21.6619,-12.63454 -11.53016,-2.65194 -23.65997,-0.34026 -35.48995,-0.51038 -91.27538,-25.26072 -55.55133,-154.34359 35.72404,-129.08288 l 0,0 c -4.23373,1.422 -11.84212,8.64877 -12.7012,4.26601 -1.07309,-5.47459 7.99385,-17.19323 11.07845,-12.5448 101.72019,153.29023 79.01487,127.74205 4.69137,87.01363 -152.45519,118.789 61.69837,-45.87535 -173.69726,123.51477 -54.18332,38.99018 -105.32075,82.15517 -160.11422,120.28314 -197.587076,137.49075 -121.624837,29.32134 -187.919129,186.56896 -2.664592,6.3203 3.81224,-13.1777 5.718361,-19.7666 38.8428276,90.6333 -89.331962,145.5654 -128.174792,54.9321 z"
       inkscape:connector-curvature="0" />
    <path
       style="fill:#d40055;fill-rule:nonzero;stroke-width:1.00200105;stroke-miterlimit:10;stroke-dasharray:none;stroke-dashoffset:0"
       id="path4174"
       d="m 33.551169,459.5164 c 26.570395,124.87208 13.621036,93.52746 64.164657,211.8726 9.937764,23.26873 13.759074,51.58988 32.487994,68.60224 12.7859,11.61403 46.66797,24.13199 51.27634,7.48483 6.51302,-23.52745 -23.75764,-42.6546 -35.63646,-63.98189 120.6305,0 120.6305,170.59728 0,170.59728 l 0,0 C 34.691069,690.28452 134.62169,876.09917 126.06683,741.8975 124.45413,716.59879 105.61577,695.50373 95.673632,672.18466 45.212409,553.82889 58.208575,584.42592 12.534026,464.29303 9.156443,449.43166 30.173586,444.65504 33.551169,459.5164 Z"
       inkscape:connector-curvature="0" />
    <path
       style="fill:#d40055;fill-rule:nonzero;stroke-width:1.00200105;stroke-miterlimit:10;stroke-dasharray:none;stroke-dashoffset:0"
       id="path4176"
       d="m 545.72198,-45.381594 c -24.00712,39.9314991 -36.4229,49.607975 -17.99036,112.780714 9.77838,33.51285 35.35108,60.2294 51.86046,90.98924 15.78407,29.40848 61.43661,129.9695 89.38362,161.71751 11.35092,12.89473 28.35324,19.40525 42.52986,29.10788 10.58907,6.24495 21.97616,11.30094 31.76721,18.73486 12.60245,9.56848 26.85577,30.85709 35.83472,42.99596 35.88162,57.82068 -45.88917,108.56497 -81.77079,50.74429 l 0,0 c -5.27667,-7.19937 -11.75043,-13.65888 -15.82999,-21.5981 -10.4949,-20.42409 -12.40324,-42.42136 -16.32102,-64.60314 0.87143,-83.24274 9.59562,-32.44574 -38.76959,-119.94102 C 612.0275,229.51684 543.75565,93.536139 523.59505,69.467405 490.66046,30.14845 437.72999,11.150792 407.53995,-31.563391 397.76901,-129.27284 535.95104,-143.09105 545.72198,-45.381594 Z"
       inkscape:connector-curvature="0" />
    <path
       style="fill:#d40055;fill-rule:nonzero;stroke-width:1.00200105;stroke-miterlimit:10;stroke-dasharray:none;stroke-dashoffset:0"
       id="path4182"
       d="m 464.29213,983.90527 c -19.08113,24.39273 -43.02132,45.66763 -57.2434,73.17813 -44.55572,86.1863 -62.70573,147.6947 -13.30583,238.6001 16.75739,30.8368 78.89565,96.6584 126.67586,57.9382 10.31176,-8.3565 2.38324,-26.4381 3.57486,-39.6572 -20.72229,-7.0562 -41.44458,-14.1124 -62.16687,-21.1686 179.24076,-57.0311 259.89499,196.4536 80.65423,253.4848 l 0,0 c -29.62494,-3.267 -59.24989,-6.534 -88.87483,-9.801 -17.74848,-20.2772 -41.76799,-36.4506 -53.24544,-60.8318 -24.64046,-52.3431 -7.00142,-125.1384 -14.58966,-178.0887 -15.24496,-106.3785 -39.28468,-147.1551 -93.30656,-240.4758 -14.6778,-25.3554 -32.45469,-48.7854 -48.68204,-73.17813 0,-155.92389 220.50968,-155.92389 220.50968,0 z"
       inkscape:connector-curvature="0" />
    <path
       style="fill:#d40055;fill-rule:nonzero;stroke-width:1.00200105;stroke-miterlimit:10;stroke-dasharray:none;stroke-dashoffset:0"
       id="path4184"
       d="M 343.65949,-10.468098 C 306.22193,-4.4639496 265.60634,-8.7008028 231.3468,7.5443463 124.69222,58.117692 83.585036,150.92488 24.766255,246.21012 c -14.017989,22.70886 -145.519285,232.3777 -151.571875,284.8685 -3.37302,29.2524 21.30835,54.90242 31.962518,82.35363 -36.187228,88.07012 -160.737178,36.89365 -124.549958,-51.17647 l 0,0 c 28.98916,-11.36134 64.78457,-12.23524 86.96749,-34.08403 32.01576,-31.53353 45.492978,-77.53965 66.627192,-117.19716 29.551262,-55.45176 54.114453,-113.556 85.388699,-168.0546 C 73.053052,149.75568 149.82951,71.719126 168.72557,-38.916563 c 7.32483,-42.886537 -4.37263,-86.905187 -6.55894,-130.357787 112.29298,-128.33483 293.78584,30.47142 181.49286,158.806252 z"
       inkscape:connector-curvature="0" />
  </g>
</svg>
