<?xml version="1.0" encoding="UTF-8" standalone="no"?>
<!-- Created with Inkscape (http://www.inkscape.org/) -->

<svg
   xmlns:dc="http://purl.org/dc/elements/1.1/"
   xmlns:cc="http://creativecommons.org/ns#"
   xmlns:rdf="http://www.w3.org/1999/02/22-rdf-syntax-ns#"
   xmlns:svg="http://www.w3.org/2000/svg"
   xmlns="http://www.w3.org/2000/svg"
   xmlns:sodipodi="http://sodipodi.sourceforge.net/DTD/sodipodi-0.dtd"
   xmlns:inkscape="http://www.inkscape.org/namespaces/inkscape"
   width="210mm"
   height="297mm"
   viewBox="0 0 744.09448819 1052.3622047"
   id="svg2"
   version="1.1"
   inkscape:version="0.91 r13725"
   sodipodi:docname="drawing.svg">
  <defs
     id="defs4" />
  <sodipodi:namedview
     id="base"
     pagecolor="#ffffff"
     bordercolor="#666666"
     borderopacity="1.0"
     inkscape:pageopacity="0.0"
     inkscape:pageshadow="2"
     inkscape:zoom="0.36940231"
     inkscape:cx="-291.813"
     inkscape:cy="520"
     inkscape:document-units="px"
     inkscape:current-layer="layer1"
     showgrid="false"
     inkscape:window-width="1280"
     inkscape:window-height="708"
     inkscape:window-x="8"
     inkscape:window-y="1"
     inkscape:window-maximized="0" />
  <metadata
     id="metadata7">
    <rdf:RDF>
      <cc:Work
         rdf:about="">
        <dc:format>image/svg+xml</dc:format>
        <dc:type
           rdf:resource="http://purl.org/dc/dcmitype/StillImage" />
        <dc:title />
      </cc:Work>
    </rdf:RDF>
  </metadata>
  <g
     inkscape:label="Layer 1"
     inkscape:groupmode="layer"
     id="layer1">
    <path
       style="fill:#00ffcc;fill-rule:nonzero;stroke-width:1.00200105;stroke-miterlimit:10;stroke-dasharray:none;stroke-dashoffset:0"
       id="path4143"
       d="m 198.54436,261.66416 c -17.68688,15.54497 -51.52155,23.13805 -53.06064,46.63493 -1.61155,24.60311 27.7363,41.43221 46.2235,57.7458 44.9512,39.66612 89.66627,57.06112 147.09644,69.38899 15.80058,3.39173 37.25907,15.07108 48.36683,3.33311 14.66817,-15.50038 5.68255,-42.30101 8.52383,-63.45152 -67.27284,88.9268 -74.76971,-37.4865 -52.95098,-38.63348 47.70873,-2.50798 98.92257,-1.11565 141.97933,19.58527 15.96479,7.67558 2.27145,35.7788 8.02302,52.53317 8.18632,23.84678 32.98837,39.51809 50.80423,54.17397 8.35735,12.92491 16.7147,25.84981 25.07204,38.77472 C 602.02907,604.57098 456.617,651.81576 423.20989,548.9939 l 0,0 c 4.72163,-2.07901 9.44325,-4.15802 14.16488,-6.23703 -4.36069,-16.03449 -3.37621,-28.48319 -27.5499,-30.20329 -10.25863,-0.72996 -39.43934,6.92134 -29.42724,9.27299 35.20903,8.26991 72.11853,12.76704 108.11022,9.2081 6.96853,-0.68907 11.9984,-19.68159 5.03241,-20.3959 -24.6301,-2.52564 -48.70352,8.94709 -73.05529,13.42064 -12.50283,-21.34092 -19.82323,-46.73152 -37.5085,-64.02276 C 371.02573,448.35217 351.64086,448.35736 336.29199,441.74226 312.25801,431.38402 288.33011,420.73459 264.87013,409.13483 239.31297,396.49812 214.3651,382.66067 189.30506,369.06475 165.91052,356.37243 145.12533,337.5149 119.51346,330.27393 78.261471,318.61119 34.526329,318.95268 -7.9672348,313.29205 -44.473673,167.2663 162.03793,115.6384 198.54436,261.66416 Z"
       inkscape:connector-curvature="0" />
    <path
       style="fill:#00ffcc;fill-rule:nonzero;stroke-width:1.00200105;stroke-miterlimit:10;stroke-dasharray:none;stroke-dashoffset:0"
       id="path4145"
       d="m 317.15049,573.20982 c -10.04839,6.3165 -21.07767,11.29126 -30.14516,18.94952 -21.662,18.29542 -31.12215,28.23203 -26.50209,56.84859 1.0498,6.50244 4.23629,13.57588 9.74174,17.19164 28.70439,18.85194 24.92657,9.75765 22.52525,-0.11245 5.90983,-1.13572 12.26838,-5.93546 17.72948,-3.40717 30.93231,14.32052 28.96347,38.35513 32.83057,68.38319 5.0566,39.26465 7.22992,76.01226 -35.16714,104.64963 -22.40842,15.13591 -53.27834,9.29251 -79.91751,13.93877 -22.34109,-12.94776 -53.58478,-36.58693 -82.81427,-36.84283 -17.43103,-0.15261 -39.0112,12.25765 -48.926735,26.42728 -4.342068,6.20497 -14.439156,18.52829 -7.456888,21.46139 19.122193,8.0328 41.469123,1.02435 62.203683,1.53653 73.69967,-161.92823 86.83633,-90.61715 44.84422,-164.83602 -1.95015,-3.4468 6.18994,5.79789 6.85829,9.70134 0.8501,4.96498 1.64675,12.24839 -2.6499,14.87755 -13.52596,8.27667 -30.21114,9.64913 -45.31672,14.47369 71.41173,47.72763 3.91466,148.71907 -67.497064,100.99144 l 0,0 c -32.608868,-4.43828 -65.206269,-8.96165 -97.826605,-13.31484 -2.187487,-0.29192 -4.756401,-1.84557 -6.591563,-0.61981 -1.421181,0.94926 5.35656,3.43466 4.792747,1.82129 -4.346256,-12.43693 -19.056798,-22.87411 -16.678292,-35.83212 9.25668,-50.43004 33.3058302,-96.98568 49.958745,-145.47853 23.545996,0.79877 47.691353,-2.9426 70.637989,2.39631 6.875939,1.59979 8.757833,11.09577 12.653943,16.98289 6.64794,10.04524 9.84882,22.87887 18.94942,30.77071 8.5489,7.41343 46.01875,14.57919 55.28754,3.37017 8.3173,-10.05835 4.8109,-25.65632 7.21634,-38.48448 -13.54437,6.09289 -30.14432,7.764 -40.63313,18.27868 -19.9213,19.97044 -31.9648,44.56979 -23.57152,70.78054 2.7955,8.72983 7.68007,16.69741 12.50053,24.49407 1.66084,2.68625 5.6728,9.61401 6.75264,6.64613 2.61907,-7.19844 -0.54326,-15.31056 -0.81489,-22.96584 -3.55202,-12.76912 -9.73967,-25.08512 -10.65606,-38.30735 -0.73906,-10.66364 4.41553,-20.93878 5.81544,-31.53594 1.64057,-12.41899 2.90966,-24.91492 3.29588,-37.43586 0.3063,-9.92958 3.11376,-20.8399 -1.22258,-29.77783 -3.90825,-8.05554 -38.909554,-38.21733 -47.695886,-46.02028 0,-160.85941 227.489556,-160.85941 227.489556,0 z"
       inkscape:connector-curvature="0" />
    <path
       style="fill:#00ffcc;fill-rule:nonzero;stroke-width:1.00200105;stroke-miterlimit:10;stroke-dasharray:none;stroke-dashoffset:0"
       id="path4147"
       d="m 421.35515,807.55925 c 17.82123,11.35647 32.70199,30.13014 53.46368,34.06942 23.16867,4.39597 48.95951,0.1137 69.93906,-10.65526 18.15044,-9.31676 29.7781,-28.5603 40.39689,-45.98102 21.33119,-34.99504 23.9032,-62.79044 -9.87549,-93.25176 -11.04879,-9.96369 -28.1921,-9.51888 -42.28815,-14.27832 63.02785,-149.27648 274.13667,-60.14165 211.10883,89.13483 l 0,0 c -8.58245,-0.63176 -103.88341,-8.70213 -115.10332,-5.56841 -15.55485,4.34446 -27.78296,16.84864 -39.77405,27.6672 -15.2151,13.72734 -31.43766,27.56374 -41.33281,45.5088 -27.22394,49.37118 -24.05103,96.95419 -27.79194,151.09136 -125.67893,69.82161 -224.42162,-107.91521 -98.7427,-177.73684 z"
       inkscape:connector-curvature="0" />
    <path
       style="fill:#00ffcc;fill-rule:nonzero;stroke-width:1.00200105;stroke-miterlimit:10;stroke-dasharray:none;stroke-dashoffset:0"
       id="path4155"
       d="m 292.10002,38.784103 c -0.18212,21.965 -8.00397,45.233956 -0.54638,65.894997 17.80155,49.31869 63.36793,49.94198 102.74908,67.6992 17.28162,7.7924 33.58683,17.62273 49.92571,27.23608 14.12232,8.30918 31.15068,13.71657 41.40235,26.49882 11.25191,14.02941 13.35282,33.39793 20.02923,50.09689 4.1044,37.85167 -49.42594,43.65616 -53.53033,5.8045 l 0,0 c 5.81721,-29.57862 15.90999,-49.95394 -10.26869,-77.99496 -12.77335,-13.68204 -32.46891,-18.75876 -49.53162,-26.45422 -20.22446,-9.12144 -40.07849,-21.3639 -62.11914,-23.90143 -50.0367,-5.7607 -96.60532,23.97315 -138.73756,43.24881 C 79.658802,125.75851 180.28615,-32.370177 292.10002,38.784103 Z"
       inkscape:connector-curvature="0" />
    <path
       style="fill:#00ffcc;fill-rule:nonzero;stroke-width:1.00200105;stroke-miterlimit:10;stroke-dasharray:none;stroke-dashoffset:0"
       id="path4157"
       d="m 725.59467,165.79493 c -39.35145,26.68774 -80.79948,54.51056 -87.72414,106.25272 -1.91348,14.29777 -1.56962,30.18115 5.09444,42.97483 0.76046,1.45994 56.09494,50.79926 60.53565,54.77237 9.94816,6.97375 19.89632,13.9475 29.84447,20.92125 C 707.77803,550.51023 481.795,514.35295 507.36206,354.55881 l 0,0 c 3.48861,0.45133 6.97722,0.90265 10.46583,1.35397 29.00454,-7.6288 58.75258,-8.81756 74.68069,-40.8903 6.38311,-12.85302 4.05479,-28.69996 2.58097,-42.97483 -1.58007,-15.30394 -2.78693,-32.07648 -11.62958,-44.66675 -5.33239,-7.59232 -62.84588,-50.76393 -77.06219,-61.58597 0,-154.995606 219.19689,-154.995606 219.19689,0 z"
       inkscape:connector-curvature="0" />
    <path
       style="fill:#00ffcc;fill-rule:nonzero;stroke-width:1.00200105;stroke-miterlimit:10;stroke-dasharray:none;stroke-dashoffset:0"
       id="path4161"
       d="m -36.650384,1121.3765 c 21.134803,-11.7599 105.285784,-57.1961 123.698417,-73.0386 14.613707,-12.5738 26.121177,-28.7254 35.924707,-45.3251 8.30037,-14.05456 17.31323,-29.30714 17.78756,-45.62282 0.63828,-21.955 -23.91458,-44.36839 -14.59311,-64.25657 11.98949,-25.58066 45.50462,-33.49333 68.25693,-50.24 114.11701,155.26064 152.89705,106.14002 83.42316,168.19959 -56.73137,147.2315 -264.948051,67.0012 -208.216676,-80.23024 l 0,0 c -49.534122,45.20443 -8.394952,3.63084 95.388726,147.26894 17.54432,-22.1612 51.95224,-38.2265 52.63295,-66.4835 0.47243,-19.61124 -30.73335,-29.08989 -50.29524,-30.55815 -16.01228,-1.20184 -30.47765,12.42492 -41.97673,23.63245 -13.5683,13.2243 -27.765358,28.9305 -31.091386,47.583 -9.060961,50.8144 14.194356,64.9971 41.691016,95.6295 -18.7797,122.0681 -191.410028,95.5096 -172.630324,-26.5585 z"
       inkscape:connector-curvature="0" />
  </g>
</svg>
